<svg width="501" height="69" viewBox="0 0 501 69" fill="none" xmlns="http://www.w3.org/2000/svg">
<path d="M14.4258 32.7924L14.7704 28.5997L18.4136 18.4675L21.4662 14.774L32.1498 7.53667L36.5808 6.38867L47.1168 6.68815L51.8924 8.48501L61.5915 16.2215L64.2501 20.4141L67.1056 30.8458V35.837L62.5762 47.7163L59.5729 51.1602L50.5139 56.9999L45.7383 58.697L33.1345 58.098L28.8019 56.2513L20.5799 49.563L17.7244 45.4203L14.4258 32.7924Z" fill="url(#paint0_linear_3006_34534)"/>
<path d="M17.511 45.5099L17.4988 45.4628L14.2999 33.2521L14.2764 33.1624L14.2946 33.1273L14.5001 28.5288L14.5017 28.4923L14.5142 28.4577L18.1254 18.4721L18.1382 18.4367L18.1612 18.4071L21.2621 14.4116L21.2745 14.4214L21.3252 14.3877L31.784 7.4536L31.8635 7.40089L31.9035 7.40879L36.572 6.14062L36.6064 6.14176L47.0106 6.46863L47.0473 6.46981L47.0818 6.48227L51.9807 8.24594L52 8.24377L52.021 8.26045L52.0221 8.26072L52.0219 8.26108L52.0746 8.30257L61.7094 15.9028L61.7838 15.9614L61.7886 15.9949L61.7909 15.9933L64.4406 20.2075L64.4599 20.2384L67.2508 30.7977L67.251 30.8281L67.2921 35.7929L67.3031 35.8192L67.2696 35.9081L62.7657 47.834L62.7324 47.9225L62.6911 47.9426L59.617 51.3305L59.5971 51.3524L59.5724 51.3685L50.6103 57.2897L50.5849 57.3066L50.556 57.3162L45.7757 58.9179L45.7594 58.8682L45.7029 58.8655L33.2628 58.3035L33.2239 58.3018L33.2218 58.307L33.2069 58.301L33.1712 58.2993L33.1498 58.2776L28.6923 56.4449L28.6604 56.4318L28.6335 56.4099L20.4363 49.7229L20.4107 49.7021L20.3917 49.6749L17.5226 45.5531L17.5224 45.5528L17.5223 45.5524L17.4989 45.5187L17.511 45.5099ZM63.3463 26.2154L66.8142 34.6327L66.7829 30.8623L64.0261 20.4318L61.9503 17.1303L63.2498 26.2564L63.3463 26.2154ZM48.0818 43.176L53.5407 51.8546L62.3615 47.5759L66.7986 35.8271L63.0155 26.6446L53.2345 29.3016L48.065 43.1869L48.0818 43.176ZM53.2102 28.8165L62.7714 26.2193L61.3472 16.2188L51.8615 8.73618L42.011 9.79366L41.8045 19.4105L53.2102 28.8165ZM50.3802 56.875L59.292 50.987L61.5544 48.4939L53.5803 52.3617L46.7065 58.106L50.3802 56.875ZM41.7485 9.3442L41.7567 9.3433L50.9025 8.36173L46.9596 6.94219L36.6265 6.61741L32.9533 7.61521L41.7485 9.3442ZM47.6237 43.027L52.8042 29.1127L41.4959 19.83L28.9236 28.1367L32.7226 42.5102L47.6237 43.027ZM33.3751 57.8332L45.6337 58.3873L53.1458 52.1097L47.7338 43.506L32.6799 42.9841L26.452 50.7419L33.3751 57.8332ZM28.6395 27.7577L41.337 19.3681L41.5426 9.78747L31.9609 7.90382L21.6588 14.734L19.3565 24.2391L28.6395 27.7577ZM26.0732 50.4616L32.2919 42.7151L28.4539 28.1943L19.21 24.6905L14.776 33.2199L17.9278 45.251L26.0732 50.4616ZM20.7553 49.3737L28.9003 56.0182L32.3142 57.4217L25.9713 50.9244L25.966 50.9191L25.9503 50.9443L18.5563 46.2143L20.7553 49.3737ZM18.8384 24.3868L18.852 24.331L20.9808 15.542L18.5523 18.671L14.9664 28.5868L14.8076 32.1407L18.8384 24.3868Z" fill="white"/>
<path opacity="0.16" d="M14.9416 28.6154L17.1564 34.5156L22.0788 30.8653L25.0531 22.9799L23.6758 17.0233L17.9919 19.4457L17.8102 19.0079L23.6784 16.5072L31.5488 11.4035L31.5571 11.3948L36.4637 6.27344L36.6316 6.43889L36.7997 6.60432L32.0812 11.5293L36.8543 15.0462L45.4135 15.2567L50.4364 12.2215L46.8267 6.87256L47.2133 6.60439L50.9278 12.1088L58.4412 18.1026L58.4393 18.1051L64.3255 20.0894L64.2517 20.3148L64.1778 20.5401L58.4119 18.5962L56.4594 24.2307L58.6866 32.6573L63.3644 36.5489L66.8074 30.675L67.0087 30.7962L67.21 30.9176L63.6172 37.047L60.3266 45.8743L59.6095 51.1928L59.1455 51.1284L59.8254 46.0853L53.88 46.0316L46.6383 50.6826L44.3645 56.3076L50.4381 56.8637L50.3959 57.3366L44.0994 56.7601L34.2738 56.125L34.2755 56.098L28.8714 56.538L28.834 56.0646L33.982 55.6455L32.4902 50.001L25.8699 44.8131L19.7707 44.2478L20.6153 49.2235L20.1537 49.3042L19.2754 44.1293L16.9226 35.2276L16.828 34.9754L14.5039 28.7843L14.9416 28.6154ZM59.9239 45.6113L63.1421 36.9783L58.5135 33.1277L53.4282 38.2032L53.9942 45.5578L59.9239 45.6113ZM49.0021 22.1395L56.0807 23.8909L57.9993 18.3543L50.7597 12.5789L45.7867 15.5839L49.0021 22.1395ZM46.5489 35.3892L53.172 37.7927L58.2258 32.7486L56.0091 24.3618L48.938 22.6125L44.5566 28.1796L46.5489 35.3892ZM46.3551 50.3022L53.5346 45.6913L52.9597 38.2199L46.3868 35.8348L40.2569 39.8951L39.9232 47.0191L46.3551 50.3022ZM36.9872 27.5802L44.1901 27.8838L48.5682 22.3212L45.3352 15.7299L36.9228 15.523L33.032 21.6363L36.9872 27.5802ZM40.0143 39.4886L46.0842 35.468L44.1188 28.3561L37.0407 28.0578L34.4752 34.8697L40.0143 39.4886ZM43.8736 56.2696L46.1194 50.7136L39.7189 47.4465L32.9926 50.0668L34.4715 55.6619L43.8736 56.2696ZM32.6235 21.4025L36.4738 15.3527L31.7243 11.8533L24.104 16.7949L25.4901 22.7887L32.6235 21.4025ZM27.1561 36.5682L34.0382 34.6988L36.6119 27.8652L32.632 21.8842L25.4406 23.2819L22.5665 30.9017L27.1561 36.5682ZM32.791 49.6366L39.4532 47.0414L39.7872 39.914L34.1016 35.1731L27.2798 37.0263L26.1733 44.4508L32.791 49.6366ZM25.7187 44.3223L26.824 36.9066L22.2842 31.3014L17.339 34.9685L19.6629 43.7609L25.7187 44.3223Z" fill="white"/>
<path opacity="0.32" d="M57.7972 18.4264C57.7146 18.114 57.8976 17.7929 58.2058 17.7091C58.514 17.6254 58.8307 17.8108 58.9133 18.1233C58.9959 18.4357 58.813 18.7568 58.5048 18.8405C58.1966 18.9244 57.8798 18.7389 57.7972 18.4264ZM62.7457 37.1519C62.6631 36.8395 62.846 36.5181 63.1542 36.4344C63.4624 36.3507 63.7793 36.5363 63.8618 36.8488C63.9444 37.1611 63.7615 37.4823 63.4534 37.566C63.1452 37.6497 62.8283 37.4644 62.7457 37.1519ZM57.8831 33.0161C57.8005 32.7036 57.9833 32.3823 58.2915 32.2986C58.5997 32.2149 58.9166 32.4005 58.9991 32.7129C59.0817 33.0253 58.8989 33.3465 58.5907 33.4302C58.2825 33.5139 57.9656 33.3284 57.8831 33.0161ZM55.5948 24.3602C55.5122 24.0479 55.6951 23.7267 56.0034 23.643C56.3115 23.5593 56.6283 23.7447 56.7109 24.0571C56.7934 24.3695 56.6106 24.6908 56.3024 24.7745C55.9942 24.8583 55.6774 24.6727 55.5948 24.3602ZM59.5138 45.9738C59.4312 45.6613 59.6143 45.3401 59.9225 45.2564C60.2307 45.1727 60.5474 45.358 60.63 45.6705C60.7127 45.9829 60.5297 46.304 60.2215 46.3879C59.9133 46.4716 59.5965 46.2862 59.5138 45.9738ZM50.2819 12.4027C50.1993 12.0902 50.3822 11.769 50.6904 11.6853C50.9986 11.6016 51.3155 11.7869 51.398 12.0994C51.4806 12.4119 51.2977 12.7331 50.9895 12.8168C50.6813 12.9005 50.3645 12.715 50.2819 12.4027ZM52.4904 38.1799C52.4079 37.8675 52.5908 37.5462 52.899 37.4625C53.2072 37.3788 53.5239 37.5643 53.6065 37.8767C53.6892 38.1892 53.5063 38.5104 53.1981 38.5941C52.8898 38.6778 52.573 38.4924 52.4904 38.1799ZM48.3483 22.5083C48.2658 22.1958 48.4486 21.8746 48.7568 21.7909C49.065 21.7072 49.3817 21.8927 49.4644 22.2051C49.547 22.5176 49.3641 22.8387 49.0558 22.9224C48.7476 23.0062 48.4309 22.8207 48.3483 22.5083ZM53.1642 45.9405C53.0816 45.6282 53.2645 45.3069 53.5727 45.2232C53.881 45.1395 54.1978 45.3249 54.2803 45.6373C54.3629 45.9498 54.18 46.2709 53.8718 46.3547C53.5636 46.4384 53.2467 46.253 53.1642 45.9405ZM44.9274 15.6758C44.8448 15.3633 45.0277 15.0422 45.3358 14.9585C45.644 14.8747 45.961 15.0601 46.0435 15.3726C46.1261 15.6851 45.9431 16.0063 45.6349 16.09C45.3268 16.1737 45.0099 15.9882 44.9274 15.6758ZM45.7358 35.709C45.6532 35.3965 45.8361 35.0753 46.1443 34.9916C46.4525 34.9079 46.7693 35.0933 46.8519 35.4058C46.9344 35.7183 46.7516 36.0395 46.4434 36.1232C46.1352 36.2069 45.8184 36.0214 45.7358 35.709ZM43.7464 28.185C43.6639 27.8727 43.8468 27.5515 44.155 27.4678C44.4632 27.3841 44.7799 27.5694 44.8625 27.8819C44.9452 28.1943 44.7622 28.5155 44.454 28.5992C44.1458 28.6829 43.829 28.4975 43.7464 28.185ZM45.8152 50.7257C45.7326 50.4132 45.9156 50.092 46.2238 50.0083C46.532 49.9246 46.8487 50.11 46.9314 50.4225C47.014 50.735 46.8311 51.056 46.5229 51.1398C46.2146 51.2236 45.8978 51.0381 45.8152 50.7257ZM36.1923 15.4418C36.1097 15.1294 36.2927 14.8082 36.6009 14.7245C36.9091 14.6408 37.2258 14.8262 37.3085 15.1387C37.391 15.4511 37.2081 15.7722 36.8999 15.8559C36.5917 15.9396 36.2749 15.7543 36.1923 15.4418ZM39.4149 39.8518C39.3323 39.5394 39.5154 39.2182 39.8236 39.1345C40.1317 39.0508 40.4485 39.2362 40.5311 39.5485C40.6136 39.861 40.4307 40.1822 40.1226 40.2659C39.8144 40.3496 39.4975 40.1643 39.4149 39.8518ZM36.274 27.9703C36.1915 27.6579 36.3744 27.3368 36.6826 27.2529C36.9908 27.1692 37.3076 27.3547 37.3902 27.6671C37.4729 27.9796 37.2898 28.3008 36.9816 28.3846C36.6734 28.4682 36.3566 28.2828 36.274 27.9703ZM43.4907 56.6326C43.4082 56.3201 43.591 55.9989 43.8992 55.9152C44.2074 55.8315 44.5242 56.0169 44.6068 56.3294C44.6894 56.6419 44.5065 56.9631 44.1982 57.0468C43.8901 57.1305 43.5733 56.945 43.4907 56.6326ZM31.1821 11.6486C31.0996 11.3361 31.2826 11.015 31.5908 10.9312C31.899 10.8475 32.2158 11.033 32.2983 11.3454C32.3809 11.6579 32.1981 11.979 31.8899 12.0627C31.5817 12.1465 31.2648 11.9611 31.1821 11.6486ZM39.1868 47.3725C39.1041 47.0601 39.2871 46.7388 39.5953 46.6551C39.9035 46.5714 40.2204 46.7568 40.303 47.0693C40.3855 47.3817 40.2025 47.7029 39.8943 47.7866C39.5861 47.8703 39.2694 47.6849 39.1868 47.3725ZM32.1924 21.8039C32.1099 21.4914 32.2928 21.1703 32.601 21.0865C32.9092 21.0028 33.2259 21.1882 33.3085 21.5007C33.3912 21.8132 33.2082 22.1343 32.9 22.2181C32.5918 22.3018 32.275 22.1163 32.1924 21.8039ZM33.6039 35.0638C33.5213 34.7513 33.7042 34.4302 34.0124 34.3464C34.3206 34.2627 34.6374 34.4481 34.72 34.7606C34.8025 35.073 34.6196 35.3941 34.3114 35.4779C34.0032 35.5617 33.6865 35.3762 33.6039 35.0638ZM33.7375 55.9473C33.6549 55.6348 33.8378 55.3135 34.146 55.2298C34.4542 55.1461 34.771 55.3316 34.8536 55.6441C34.9361 55.9565 34.7532 56.2777 34.445 56.3614C34.1369 56.4451 33.8201 56.2596 33.7375 55.9473ZM32.1823 50.0629C32.0996 49.7505 32.2826 49.4293 32.5908 49.3456C32.899 49.2619 33.2158 49.4473 33.2984 49.7598C33.3809 50.0722 33.198 50.3934 32.8898 50.4771C32.5816 50.5608 32.2649 50.3754 32.1823 50.0629ZM23.2088 16.7852C23.1261 16.4727 23.3092 16.1515 23.6174 16.0678C23.9256 15.9841 24.2424 16.1696 24.325 16.4819C24.4075 16.7944 24.2246 17.1156 23.9164 17.1993C23.6082 17.283 23.2914 17.0977 23.2088 16.7852ZM24.788 23.2087C24.7055 22.8962 24.8883 22.575 25.1965 22.4913C25.5048 22.4076 25.8215 22.5931 25.9042 22.9055C25.9867 23.218 25.8038 23.5392 25.4956 23.6229C25.1874 23.7066 24.8707 23.5212 24.788 23.2087ZM26.5149 36.9894C26.4324 36.677 26.6153 36.3558 26.9235 36.2721C27.2317 36.1884 27.5484 36.3739 27.631 36.6862C27.7137 36.9987 27.5307 37.32 27.2225 37.4037C26.9143 37.4874 26.5975 37.3018 26.5149 36.9894ZM25.3116 44.6544C25.229 44.3419 25.412 44.0208 25.7202 43.937C26.0284 43.8533 26.3451 44.0387 26.4277 44.3512C26.5102 44.6637 26.3274 44.9848 26.0192 45.0686C25.711 45.1523 25.3942 44.9668 25.3116 44.6544ZM21.7368 31.1319C21.6542 30.8196 21.8372 30.4984 22.1454 30.4147C22.4536 30.331 22.7704 30.5163 22.853 30.8288C22.9356 31.1412 22.7526 31.4625 22.4444 31.5462C22.1362 31.6299 21.8195 31.4444 21.7368 31.1319ZM16.4768 34.9862C16.3944 34.6739 16.5772 34.3526 16.8854 34.2689C17.1936 34.1852 17.5103 34.3707 17.593 34.683C17.6756 34.9955 17.4926 35.3168 17.1844 35.4005C16.8762 35.4842 16.5595 35.2987 16.4768 34.9862ZM18.9288 44.2647C18.8463 43.9522 19.0293 43.631 19.3375 43.5473C19.6457 43.4636 19.9624 43.6491 20.045 43.9615C20.1276 44.274 19.9448 44.5951 19.6366 44.6788C19.3283 44.7626 19.0115 44.5772 18.9288 44.2647Z" fill="white"/>
<path d="M61.5971 26.609C61.3963 25.8491 61.8411 25.068 62.5906 24.8643C63.3403 24.6607 64.1108 25.1116 64.3117 25.8716C64.5125 26.6316 64.0676 27.4128 63.3181 27.6164C62.5685 27.82 61.7979 27.3689 61.5971 26.609ZM51.2436 29.7901C50.9926 28.8402 51.5486 27.8637 52.4857 27.6091C53.4227 27.3547 54.3859 27.9184 54.6369 28.8684C54.888 29.8183 54.3319 30.7948 53.3949 31.0492C52.4579 31.3038 51.4947 30.74 51.2436 29.7901ZM52.0032 52.2577C51.8024 51.4978 52.2473 50.7167 52.9969 50.513C53.7465 50.3094 54.5169 50.7603 54.7179 51.5204C54.9187 52.2803 54.4739 53.0615 53.7243 53.2651C52.9746 53.4688 52.2041 53.0178 52.0032 52.2577ZM40.4289 9.74193C40.2281 8.98196 40.673 8.20075 41.4225 7.99712C42.1721 7.79352 42.9427 8.24457 43.1435 9.00452C43.3443 9.76445 42.8996 10.5455 42.15 10.7492C41.4003 10.9528 40.6297 10.5019 40.4289 9.74193ZM39.6264 20.3751C39.3754 19.4252 39.9314 18.4486 40.8683 18.194C41.8054 17.9396 42.7686 18.5034 43.0196 19.4534C43.2707 20.4033 42.7146 21.3797 41.7776 21.6342C40.8406 21.8888 39.8775 21.325 39.6264 20.3751ZM45.7226 44.0234C45.4715 43.0735 46.0276 42.097 46.9646 41.8426C47.9016 41.588 48.8648 42.1517 49.1159 43.1017C49.3669 44.0516 48.8109 45.0281 47.8738 45.2827C46.9368 45.5371 45.9737 44.9734 45.7226 44.0234ZM30.8688 43.3891C30.6177 42.4392 31.1738 41.4627 32.1109 41.2082C33.0479 40.9537 34.0111 41.5174 34.2622 42.4674C34.5132 43.4173 33.9571 44.3938 33.0201 44.6483C32.0831 44.9028 31.1199 44.3391 30.8688 43.3891ZM26.9513 28.5666C26.7002 27.6167 27.2563 26.6402 28.1933 26.3858C29.1302 26.1312 30.0934 26.695 30.3445 27.6449C30.5955 28.5948 30.0395 29.5713 29.1024 29.8258C28.1655 30.0803 27.2023 29.5166 26.9513 28.5666ZM24.8216 50.9697C24.6208 50.2096 25.0656 49.4285 25.8152 49.2249C26.5649 49.0212 27.3353 49.4723 27.5363 50.2322C27.7371 50.9921 27.2922 51.7733 26.5426 51.977C25.793 52.1806 25.0224 51.7296 24.8216 50.9697ZM17.8832 24.7192C17.6824 23.9592 18.1272 23.1781 18.8769 22.9744C19.6265 22.7709 20.397 23.2218 20.5978 23.9818C20.7987 24.7417 20.3538 25.5229 19.6043 25.7265C18.8547 25.9302 18.0841 25.4792 17.8832 24.7192Z" fill="url(#paint1_linear_3006_34534)"/>
<mask id="mask0_3006_34534" style="mask-type:luminance" maskUnits="userSpaceOnUse" x="17" y="7" width="48" height="47">
<path d="M61.5976 26.609C61.3968 25.8491 61.8415 25.068 62.5911 24.8643C63.3408 24.6607 64.1113 25.1116 64.3122 25.8716C64.513 26.6316 64.0681 27.4128 63.3186 27.6164C62.569 27.82 61.7984 27.3689 61.5976 26.609ZM51.2441 29.7901C50.9931 28.8402 51.5491 27.8637 52.4862 27.6091C53.4232 27.3547 54.3864 27.9184 54.6374 28.8684C54.8885 29.8183 54.3324 30.7948 53.3954 31.0492C52.4584 31.3038 51.4952 30.74 51.2441 29.7901ZM52.0037 52.2577C51.8029 51.4978 52.2478 50.7167 52.9974 50.513C53.747 50.3094 54.5174 50.7603 54.7184 51.5204C54.9192 52.2803 54.4744 53.0615 53.7248 53.2651C52.9751 53.4688 52.2045 53.0178 52.0037 52.2577ZM40.4294 9.74193C40.2286 8.98196 40.6734 8.20075 41.423 7.99712C42.1726 7.79352 42.9432 8.24457 43.144 9.00452C43.3448 9.76445 42.9 10.5455 42.1505 10.7492C41.4008 10.9528 40.6302 10.5019 40.4294 9.74193ZM39.6268 20.3751C39.3758 19.4252 39.9319 18.4486 40.8688 18.194C41.8059 17.9396 42.7691 18.5034 43.0201 19.4534C43.2712 20.4033 42.7151 21.3797 41.7781 21.6342C40.8411 21.8888 39.8779 21.325 39.6268 20.3751ZM45.7231 44.0234C45.472 43.0735 46.0281 42.097 46.9651 41.8426C47.9021 41.588 48.8653 42.1517 49.1164 43.1017C49.3674 44.0516 48.8114 45.0281 47.8743 45.2827C46.9373 45.5371 45.9742 44.9734 45.7231 44.0234ZM30.8693 43.3891C30.6182 42.4392 31.1743 41.4627 32.1114 41.2082C33.0484 40.9537 34.0116 41.5174 34.2627 42.4674C34.5137 43.4173 33.9575 44.3938 33.0206 44.6483C32.0836 44.9028 31.1204 44.3391 30.8693 43.3891ZM26.9518 28.5666C26.7007 27.6167 27.2568 26.6402 28.1938 26.3858C29.1307 26.1312 30.0939 26.695 30.345 27.6449C30.596 28.5948 30.04 29.5713 29.1029 29.8258C28.1659 30.0803 27.2028 29.5166 26.9518 28.5666ZM24.8221 50.9697C24.6213 50.2096 25.0661 49.4285 25.8157 49.2249C26.5654 49.0212 27.3358 49.4723 27.5367 50.2322C27.7376 50.9921 27.2927 51.7733 26.5431 51.977C25.7935 52.1806 25.0229 51.7296 24.8221 50.9697ZM17.8837 24.7192C17.6828 23.9592 18.1277 23.1781 18.8774 22.9744C19.627 22.7709 20.3975 23.2218 20.5983 23.9818C20.7992 24.7417 20.3543 25.5229 19.6047 25.7265C18.8552 25.9302 18.0846 25.4792 17.8837 24.7192Z" fill="white"/>
</mask>
<g mask="url(#mask0_3006_34534)">
<path d="M45.7232 44.024L45.0445 44.2083H45.0446L45.7232 44.024ZM20.5984 23.9824L21.277 23.798V23.7979L20.5984 23.9824ZM61.5977 26.6096L62.2763 26.4252C62.1759 26.0452 62.3983 25.6547 62.7731 25.5529L62.5913 24.8649L62.4094 24.1769C61.285 24.4823 60.6178 25.6539 60.9191 26.7939L61.5977 26.6096ZM62.5913 24.8649L62.7731 25.5529C63.148 25.4511 63.5332 25.6766 63.6337 26.0565L64.3123 25.8721L64.991 25.6878C64.6897 24.5478 63.5338 23.8714 62.4094 24.1769L62.5913 24.8649ZM64.3123 25.8721L63.6337 26.0565C63.7341 26.4364 63.5116 26.8271 63.1368 26.9289L63.3187 27.6169L63.5005 28.3049C64.6249 27.9995 65.2923 26.8277 64.991 25.6878L64.3123 25.8721ZM63.3187 27.6169L63.1368 26.9289C62.762 27.0307 62.3768 26.8053 62.2763 26.4252L61.5977 26.6096L60.9191 26.7939C61.2204 27.9338 62.376 28.6104 63.5005 28.3049L63.3187 27.6169ZM51.2442 29.7906L51.923 29.6063C51.7723 29.0363 52.1059 28.4505 52.6682 28.2978L52.4863 27.6097L52.3045 26.9217C50.9926 27.2781 50.2141 28.645 50.5656 29.975L51.2442 29.7906ZM52.4863 27.6097L52.6682 28.2978C53.2304 28.1451 53.8082 28.4832 53.9589 29.0532L54.6375 28.8689L55.3162 28.6846C54.9647 27.3546 53.6163 26.5654 52.3045 26.9217L52.4863 27.6097ZM54.6375 28.8689L53.9589 29.0532C54.1095 29.6232 53.7758 30.2091 53.2137 30.3618L53.3955 31.0498L53.5774 31.7379C54.8893 31.3815 55.6677 30.0144 55.3162 28.6846L54.6375 28.8689ZM53.3955 31.0498L53.2137 30.3618C52.6515 30.5145 52.0736 30.1762 51.923 29.6063L51.2442 29.7906L50.5656 29.975C50.9172 31.3049 52.2655 32.0942 53.5774 31.7379L53.3955 31.0498ZM52.0038 52.2583L52.6825 52.0739C52.5821 51.6941 52.8045 51.3034 53.1794 51.2017L52.9975 50.5136L52.8156 49.8256C51.6913 50.131 51.0238 51.3026 51.3252 52.4426L52.0038 52.2583ZM52.9975 50.5136L53.1794 51.2017C53.5541 51.0998 53.9394 51.3252 54.0398 51.7053L54.7185 51.5209L55.3971 51.3366C55.0958 50.1966 53.9401 49.5201 52.8156 49.8256L52.9975 50.5136ZM54.7185 51.5209L54.0398 51.7053C54.1402 52.0853 53.9178 52.4759 53.5431 52.5776L53.7249 53.2656L53.9068 53.9537C55.0313 53.6482 55.6984 52.4764 55.3971 51.3366L54.7185 51.5209ZM53.7249 53.2656L53.5431 52.5776C53.1683 52.6795 52.7829 52.454 52.6825 52.0739L52.0038 52.2583L51.3252 52.4426C51.6265 53.5826 52.7823 54.2592 53.9068 53.9537L53.7249 53.2656ZM40.4295 9.74248L41.1081 9.55813C41.0078 9.17814 41.2302 8.7875 41.605 8.68568L41.4231 7.99767L41.2413 7.30965C40.1169 7.6151 39.4496 8.78689 39.7509 9.92683L40.4295 9.74248ZM41.4231 7.99767L41.605 8.68568C41.9797 8.58389 42.365 8.80942 42.4655 9.18942L43.1441 9.00507L43.8228 8.82072C43.5215 7.68084 42.3658 7.00424 41.2413 7.30965L41.4231 7.99767ZM43.1441 9.00507L42.4655 9.18942C42.5658 9.56937 42.3435 9.95991 41.9686 10.0617L42.1506 10.7497L42.3324 11.4378C43.4568 11.1322 44.124 9.96065 43.8228 8.82072L43.1441 9.00507ZM42.1506 10.7497L41.9687 10.0617C41.5938 10.1636 41.2086 9.93805 41.1081 9.55813L40.4295 9.74248L39.7509 9.92683C40.0521 11.0668 41.2081 11.7432 42.3324 11.4378L42.1506 10.7497ZM39.627 20.3756L40.3057 20.1913C40.1549 19.6212 40.4887 19.0354 41.0508 18.8827L40.8689 18.1946L40.6872 17.5066C39.3752 17.863 38.5969 19.2301 38.9483 20.56L39.627 20.3756ZM40.8689 18.1946L41.0508 18.8827C41.613 18.73 42.191 19.0682 42.3416 19.6383L43.0202 19.4539L43.699 19.2696C43.3474 17.9397 41.999 17.1503 40.6872 17.5066L40.8689 18.1946ZM43.0202 19.4539L42.3416 19.6383C42.4922 20.2083 42.1586 20.794 41.5964 20.9468L41.7782 21.6348L41.9601 22.3229C43.2719 21.9664 44.0504 20.5994 43.699 19.2696L43.0202 19.4539ZM41.7782 21.6348L41.5964 20.9468C41.0342 21.0995 40.4563 20.7612 40.3057 20.1913L39.627 20.3756L38.9483 20.56C39.2999 21.8899 40.6482 22.6792 41.9601 22.3229L41.7782 21.6348ZM45.7232 44.024L46.4019 43.8396C46.2512 43.2697 46.5849 42.6838 47.1471 42.5311L46.9652 41.8431L46.7834 41.155C45.4715 41.5115 44.693 42.8785 45.0445 44.2083L45.7232 44.024ZM46.9652 41.8431L47.1471 42.5311C47.7093 42.3784 48.2872 42.7167 48.4379 43.2866L49.1165 43.1023L49.7951 42.9179C49.4437 41.5879 48.0953 40.7987 46.7834 41.155L46.9652 41.8431ZM49.1165 43.1023L48.4379 43.2866C48.5884 43.8566 48.2549 44.4424 47.6926 44.5951L47.8744 45.2832L48.0563 45.9712C49.3681 45.6148 50.1466 44.2478 49.7951 42.9179L49.1165 43.1023ZM47.8744 45.2832L47.6927 44.5951C47.1304 44.7478 46.5525 44.4097 46.4019 43.8396L45.7232 44.024L45.0446 44.2083C45.3961 45.5383 46.7445 46.3275 48.0563 45.9712L47.8744 45.2832ZM30.8694 43.3897L31.548 43.2054C31.3974 42.6355 31.7311 42.0495 32.2934 41.8968L32.1115 41.2087L31.9296 40.5207C30.6179 40.8771 29.8392 42.2441 30.1907 43.574L30.8694 43.3897ZM32.1115 41.2087L32.2934 41.8968C32.8556 41.7441 33.4334 42.0824 33.584 42.6523L34.2628 42.4679L34.9414 42.2836C34.5898 40.9536 33.2414 40.1644 31.9296 40.5207L32.1115 41.2087ZM34.2628 42.4679L33.584 42.6523C33.7347 43.2223 33.401 43.8081 32.8388 43.9608L33.0207 44.6489L33.2025 45.3369C34.5143 44.9805 35.2929 43.6134 34.9414 42.2836L34.2628 42.4679ZM33.0207 44.6489L32.8388 43.9608C32.2766 44.1135 31.6987 43.7753 31.548 43.2054L30.8694 43.3897L30.1907 43.574C30.5422 44.9039 31.8908 45.6932 33.2025 45.3369L33.0207 44.6489ZM26.9519 28.5672L27.6305 28.3829C27.4799 27.8129 27.8135 27.227 28.3757 27.0743L28.1939 26.3863L28.012 25.6982C26.7001 26.0546 25.9217 27.4217 26.2731 28.7515L26.9519 28.5672ZM28.1939 26.3863L28.3757 27.0743C28.9379 26.9216 29.5158 27.2599 29.6664 27.8298L30.3451 27.6455L31.0238 27.4611C30.6722 26.1312 29.3239 25.3419 28.012 25.6982L28.1939 26.3863ZM30.3451 27.6455L29.6664 27.8298C29.817 28.3998 29.4835 28.9856 28.9212 29.1383L29.103 29.8264L29.2849 30.5144C30.5968 30.158 31.3752 28.7911 31.0238 27.4611L30.3451 27.6455ZM29.103 29.8264L28.9212 29.1383C28.359 29.2911 27.7811 28.9529 27.6305 28.3829L26.9519 28.5672L26.2731 28.7515C26.6247 30.0815 27.9731 30.8707 29.2849 30.5144L29.103 29.8264ZM24.8222 50.9702L25.5009 50.7858C25.4005 50.4059 25.6228 50.0153 25.9976 49.9135L25.8158 49.2255L25.6339 48.5375C24.5095 48.8429 23.8423 50.0146 24.1436 51.1545L24.8222 50.9702ZM25.8158 49.2255L25.9976 49.9135C26.3725 49.8116 26.7578 50.0372 26.8582 50.4171L27.5369 50.2327L28.2155 50.0484C27.9142 48.9084 26.7583 48.2321 25.6339 48.5375L25.8158 49.2255ZM27.5369 50.2327L26.8582 50.4171C26.9586 50.7971 26.7361 51.1877 26.3614 51.2896L26.5432 51.9776L26.7251 52.6656C27.8494 52.3601 28.5168 51.1884 28.2155 50.0484L27.5369 50.2327ZM26.5432 51.9776L26.3614 51.2896C25.9866 51.3913 25.6013 51.1658 25.5009 50.7858L24.8222 50.9702L24.1436 51.1545C24.4449 52.2943 25.6006 52.971 26.7251 52.6656L26.5432 51.9776ZM17.8838 24.7197L18.5625 24.5353C18.462 24.1555 18.6845 23.7648 19.0593 23.663L18.8775 22.975L18.6957 22.287C17.5713 22.5924 16.9039 23.7641 17.2051 24.9041L17.8838 24.7197ZM18.8775 22.975L19.0593 23.663C19.4341 23.5612 19.8193 23.7868 19.9198 24.1667L20.5984 23.9824L21.277 23.7979C20.9758 22.658 19.8201 21.9816 18.6957 22.287L18.8775 22.975ZM20.5984 23.9824L19.9198 24.1666C20.0202 24.5467 19.7978 24.9372 19.423 25.0391L19.6049 25.7271L19.7867 26.4151C20.9112 26.1096 21.5783 24.9379 21.277 23.798L20.5984 23.9824ZM19.6049 25.7271L19.423 25.0391C19.0482 25.1409 18.663 24.9153 18.5625 24.5353L17.8838 24.7197L17.2051 24.9041C17.5064 26.0441 18.6622 26.7206 19.7867 26.4151L19.6049 25.7271Z" fill="white"/>
</g>
<path d="M88.1097 49.7215C85.5367 49.7215 83.3513 49.25 81.5533 48.3072C79.7553 47.3644 78.1433 45.9816 76.7173 44.1588L80.3443 40.4818C81.2432 41.8018 82.3128 42.8388 83.5527 43.5931C84.7927 44.3159 86.3737 44.6773 88.2957 44.6773C90.0937 44.6773 91.5197 44.3003 92.5736 43.546C93.6587 42.7918 94.2012 41.7546 94.2012 40.4347C94.2012 39.3347 93.9222 38.439 93.3641 37.7476C92.8062 37.0563 92.0622 36.4905 91.1322 36.0505C90.2331 35.5792 89.2256 35.1706 88.1097 34.8249C87.0247 34.4477 85.9242 34.0392 84.8082 33.5992C83.7233 33.1278 82.7158 32.5464 81.7857 31.8551C80.8868 31.1636 80.1583 30.2679 79.6003 29.168C79.0423 28.0681 78.7633 26.6695 78.7633 24.9724C78.7633 23.0239 79.2282 21.374 80.1583 20.0227C81.1192 18.6399 82.4058 17.5871 84.0177 16.8642C85.6297 16.1414 87.4277 15.7799 89.4116 15.7799C91.5507 15.7799 93.4571 16.2043 95.1311 17.0528C96.8361 17.9014 98.2157 18.9855 99.2696 20.3056L95.6426 23.9825C94.7127 22.914 93.7361 22.1282 92.7132 21.6255C91.7211 21.0912 90.5742 20.8241 89.2722 20.8241C87.6602 20.8241 86.3892 21.154 85.4592 21.8141C84.5602 22.474 84.1108 23.4011 84.1108 24.5953C84.1108 25.601 84.3898 26.4181 84.9477 27.0467C85.5057 27.6437 86.2342 28.1624 87.1332 28.6023C88.0632 29.0109 89.0707 29.4037 90.1557 29.7808C91.2717 30.158 92.3722 30.5822 93.4571 31.0537C94.5732 31.525 95.5806 32.1378 96.4797 32.8921C97.4096 33.615 98.1536 34.5578 98.7116 35.7206C99.2696 36.8833 99.5486 38.3448 99.5486 40.1047C99.5486 43.0588 98.5101 45.4002 96.4331 47.1287C94.3872 48.8572 91.6127 49.7215 88.1097 49.7215ZM113.257 49.7215C111.056 49.7215 109.056 49.2029 107.258 48.1658C105.492 47.1287 104.097 45.7145 103.073 43.9231C102.051 42.1317 101.539 40.1361 101.539 37.9362C101.539 35.7049 102.051 33.7092 103.073 31.9494C104.097 30.158 105.492 28.7438 107.258 27.7066C109.056 26.6695 111.056 26.151 113.257 26.151C114.992 26.151 116.604 26.4967 118.093 27.1881C119.612 27.8481 120.899 28.8066 121.952 30.0637L118.604 33.5049C117.953 32.7193 117.163 32.1378 116.233 31.7608C115.333 31.3522 114.342 31.148 113.257 31.148C111.986 31.148 110.855 31.4465 109.863 32.0436C108.902 32.6093 108.142 33.395 107.584 34.4006C107.057 35.4063 106.793 36.5848 106.793 37.9362C106.793 39.2561 107.057 40.4347 107.584 41.4717C108.142 42.4775 108.902 43.2789 109.863 43.8759C110.855 44.4416 111.986 44.7245 113.257 44.7245C114.342 44.7245 115.333 44.5359 116.233 44.1588C117.163 43.7503 117.953 43.1531 118.604 42.3674L121.952 45.8088C120.899 47.0658 119.612 48.04 118.093 48.7315C116.604 49.3914 114.992 49.7215 113.257 49.7215ZM124.756 49.25V26.6223H129.871V49.25H124.756ZM127.314 22.474C126.446 22.474 125.717 22.1754 125.128 21.5783C124.57 20.9812 124.292 20.2427 124.292 19.3627C124.292 18.4828 124.57 17.7442 125.128 17.1471C125.717 16.5499 126.446 16.2514 127.314 16.2514C128.212 16.2514 128.941 16.5499 129.499 17.1471C130.058 17.7442 130.337 18.4828 130.337 19.3627C130.337 20.2427 130.058 20.9812 129.499 21.5783C128.941 22.1754 128.212 22.474 127.314 22.474ZM149.977 49.25V36.192C149.977 34.6835 149.496 33.4421 148.535 32.4679C147.605 31.4936 146.396 31.0065 144.909 31.0065C143.916 31.0065 143.033 31.2265 142.258 31.6665C141.483 32.1064 140.879 32.7193 140.444 33.5049C140.01 34.2907 139.793 35.1864 139.793 36.192L137.794 35.0606C137.794 33.3321 138.166 31.8079 138.91 30.4879C139.653 29.1366 140.677 28.0837 141.979 27.3295C143.312 26.5438 144.8 26.151 146.443 26.151C148.117 26.151 149.605 26.591 150.907 27.4709C152.209 28.3194 153.231 29.4351 153.976 30.8179C154.72 32.1692 155.091 33.5836 155.091 35.0606V49.25H149.977ZM134.678 49.25V26.6223H139.793V49.25H134.678ZM169.59 49.7215C167.42 49.7215 165.451 49.2029 163.684 48.1658C161.917 47.0973 160.507 45.6673 159.452 43.8759C158.429 42.0846 157.918 40.0889 157.918 37.8891C157.918 35.6891 158.429 33.7092 159.452 31.9494C160.507 30.1894 161.917 28.7909 163.684 27.7538C165.451 26.6852 167.42 26.151 169.59 26.151C171.79 26.151 173.775 26.6695 175.541 27.7066C177.308 28.7438 178.703 30.158 179.727 31.9494C180.78 33.7092 181.308 35.6891 181.308 37.8891C181.308 40.0889 180.78 42.0846 179.727 43.8759C178.703 45.6673 177.308 47.0973 175.541 48.1658C173.775 49.2029 171.79 49.7215 169.59 49.7215ZM169.59 44.7245C170.861 44.7245 171.976 44.4416 172.937 43.8759C173.929 43.2789 174.689 42.4617 175.216 41.4246C175.774 40.3876 176.052 39.209 176.052 37.8891C176.052 36.5692 175.774 35.4063 175.216 34.4006C174.658 33.395 173.898 32.6093 172.937 32.0436C171.976 31.4465 170.861 31.148 169.59 31.148C168.35 31.148 167.233 31.4465 166.241 32.0436C165.28 32.6093 164.521 33.395 163.963 34.4006C163.436 35.4063 163.172 36.5692 163.172 37.8891C163.172 39.209 163.436 40.3876 163.963 41.4246C164.521 42.4617 165.28 43.2789 166.241 43.8759C167.233 44.4416 168.35 44.7245 169.59 44.7245ZM193.977 49.7215C191.962 49.7215 190.133 49.2029 188.49 48.1658C186.878 47.1287 185.592 45.7301 184.631 43.9702C183.7 42.1789 183.236 40.1832 183.236 37.9834C183.236 35.752 183.7 33.7564 184.631 31.9964C185.592 30.2051 186.878 28.7909 188.49 27.7538C190.133 26.6852 191.962 26.151 193.977 26.151C195.683 26.151 197.186 26.5281 198.488 27.2823C199.82 28.0052 200.875 29.0109 201.65 30.2994C202.425 31.5879 202.812 33.0493 202.812 34.6835V41.189C202.812 42.8232 202.425 44.2845 201.65 45.573C200.906 46.8616 199.867 47.8829 198.535 48.6372C197.202 49.36 195.683 49.7215 193.977 49.7215ZM194.814 44.8188C196.085 44.8188 197.186 44.5359 198.116 43.9702C199.077 43.3731 199.82 42.556 200.348 41.5189C200.875 40.4819 201.138 39.2875 201.138 37.9362C201.138 36.5848 200.875 35.3906 200.348 34.3535C199.82 33.3164 199.077 32.515 198.116 31.9494C197.186 31.3522 196.085 31.0537 194.814 31.0537C193.574 31.0537 192.474 31.3522 191.513 31.9494C190.583 32.515 189.839 33.3164 189.281 34.3535C188.753 35.3906 188.49 36.5848 188.49 37.9362C188.49 39.2875 188.753 40.4819 189.281 41.5189C189.839 42.556 190.583 43.3731 191.513 43.9702C192.474 44.5359 193.574 44.8188 194.814 44.8188ZM205.928 49.25H200.812V43.1688L201.697 37.6533L200.812 32.185V15.3086H205.928V49.25ZM221.043 49.7215C218.811 49.7215 216.797 49.2186 214.999 48.213C213.232 47.1758 211.822 45.7616 210.767 43.9702C209.744 42.1789 209.233 40.1676 209.233 37.9362C209.233 35.7049 209.744 33.7092 210.767 31.9494C211.791 30.158 213.169 28.7438 214.906 27.7066C216.672 26.6695 218.626 26.151 220.764 26.151C222.842 26.151 224.671 26.6381 226.252 27.6123C227.864 28.5866 229.119 29.9222 230.018 31.6193C230.948 33.3164 231.414 35.2491 231.414 37.4176C231.414 37.7948 231.382 38.1876 231.32 38.5962C231.289 38.9733 231.227 39.3976 231.134 39.869H212.813V35.6263H228.484L226.577 37.3234C226.515 35.9406 226.252 34.7778 225.786 33.8349C225.322 32.8921 224.655 32.1692 223.787 31.6665C222.95 31.1636 221.912 30.9122 220.672 30.9122C219.37 30.9122 218.238 31.195 217.277 31.7608C216.316 32.3264 215.572 33.1278 215.045 34.165C214.518 35.1706 214.255 36.3806 214.255 37.7948C214.255 39.209 214.534 40.4504 215.091 41.5189C215.649 42.5874 216.44 43.4202 217.463 44.0174C218.487 44.583 219.664 44.8659 220.998 44.8659C222.144 44.8659 223.199 44.6616 224.16 44.2531C225.151 43.8445 225.988 43.2474 226.671 42.4617L229.925 45.8088C228.84 47.0973 227.523 48.0715 225.973 48.7315C224.423 49.3914 222.78 49.7215 221.043 49.7215Z" fill="url(#paint2_linear_3006_34534)"/>
<path d="M244.188 49.7631L244.188 29.0605" stroke="#0C4547" stroke-width="1.41446"/>
<path d="M258.421 50.2021V34.5835C258.421 33.5728 258.641 32.6955 259.079 31.9518C259.518 31.189 260.119 30.5883 260.881 30.1496C261.663 29.711 262.569 29.4917 263.599 29.4917C264.381 29.4917 265.058 29.6252 265.63 29.8922C266.202 30.1592 266.727 30.5501 267.203 31.065L265.516 32.7241C265.268 32.4572 264.991 32.2569 264.686 32.1234C264.381 31.9709 264.009 31.8946 263.57 31.8946C262.75 31.8946 262.112 32.133 261.654 32.6097C261.215 33.0865 260.996 33.7444 260.996 34.5835V50.2021H258.421ZM255.075 38.9602V36.6145H265.315V38.9602H255.075ZM273.327 50.4882C271.992 50.4882 270.791 50.1735 269.723 49.5442C268.655 48.9149 267.806 48.0663 267.177 46.9983C266.547 45.9113 266.233 44.7003 266.233 43.3654C266.233 42.0496 266.547 40.8672 267.177 39.8183C267.806 38.7504 268.655 37.9018 269.723 37.2724C270.791 36.6431 271.992 36.3284 273.327 36.3284C274.643 36.3284 275.835 36.6431 276.903 37.2724C277.99 37.8827 278.848 38.7218 279.477 39.7897C280.106 40.8577 280.421 42.0496 280.421 43.3654C280.421 44.7003 280.106 45.9113 279.477 46.9983C278.848 48.0663 277.99 48.9149 276.903 49.5442C275.835 50.1735 274.643 50.4882 273.327 50.4882ZM273.327 47.9995C274.185 47.9995 274.948 47.7993 275.615 47.3988C276.283 46.9983 276.807 46.4548 277.189 45.7683C277.57 45.0627 277.761 44.2617 277.761 43.3654C277.761 42.4882 277.561 41.7063 277.16 41.0198C276.779 40.3332 276.254 39.7993 275.587 39.4179C274.938 39.0174 274.185 38.8171 273.327 38.8171C272.469 38.8171 271.706 39.0174 271.038 39.4179C270.371 39.7993 269.847 40.3332 269.465 41.0198C269.084 41.7063 268.893 42.4882 268.893 43.3654C268.893 44.2617 269.084 45.0627 269.465 45.7683C269.847 46.4548 270.371 46.9983 271.038 47.3988C271.706 47.7993 272.469 47.9995 273.327 47.9995ZM283.322 50.2021V36.6145H285.896V50.2021H283.322ZM285.896 42.45L284.924 42.021C284.924 40.2856 285.324 38.903 286.125 37.8731C286.926 36.8433 288.08 36.3284 289.587 36.3284C290.273 36.3284 290.893 36.4524 291.446 36.7003C291.999 36.9292 292.514 37.3201 292.991 37.8731L291.303 39.6181C291.017 39.313 290.702 39.0937 290.359 38.9602C290.016 38.8267 289.615 38.7599 289.157 38.7599C288.204 38.7599 287.422 39.065 286.812 39.6753C286.202 40.2856 285.896 41.2105 285.896 42.45ZM301.714 50.2021V30.3499H303.602L312.012 44.1664H310.725L319.135 30.3499H321.023V50.2021H318.334V35.0698L318.963 35.2414L312.327 46.1402H310.439L303.802 35.2414L304.403 35.0698V50.2021H301.714ZM331.031 50.4882C329.791 50.4882 328.666 50.1831 327.655 49.5728C326.645 48.9435 325.844 48.0949 325.253 47.0269C324.68 45.959 324.394 44.7576 324.394 43.4226C324.394 42.0877 324.68 40.8863 325.253 39.8183C325.844 38.7504 326.635 37.9018 327.627 37.2724C328.637 36.6431 329.772 36.3284 331.031 36.3284C332.061 36.3284 332.976 36.5478 333.777 36.9864C334.597 37.4059 335.255 37.9971 335.751 38.7599C336.247 39.5037 336.523 40.3714 336.58 41.363V45.4536C336.523 46.4262 336.247 47.2939 335.751 48.0567C335.274 48.8195 334.626 49.4203 333.806 49.8589C333.005 50.2784 332.08 50.4882 331.031 50.4882ZM331.46 48.0567C332.738 48.0567 333.767 47.6276 334.549 46.7695C335.331 45.8922 335.722 44.7766 335.722 43.4226C335.722 42.4882 335.541 41.6777 335.179 40.9912C334.835 40.2856 334.34 39.742 333.691 39.3606C333.043 38.9602 332.289 38.7599 331.431 38.7599C330.573 38.7599 329.81 38.9602 329.143 39.3606C328.494 39.7611 327.98 40.3142 327.598 41.0198C327.236 41.7063 327.055 42.4977 327.055 43.394C327.055 44.3094 327.236 45.1199 327.598 45.8255C327.98 46.512 328.504 47.0555 329.171 47.456C329.839 47.8565 330.602 48.0567 331.46 48.0567ZM335.551 50.2021V46.5406L336.037 43.2224L335.551 39.9328V36.6145H338.154V50.2021H335.551ZM351.513 50.2021V42.2784C351.513 41.2486 351.189 40.4 350.541 39.7325C349.892 39.065 349.053 38.7313 348.023 38.7313C347.337 38.7313 346.727 38.8839 346.193 39.189C345.659 39.4941 345.239 39.9137 344.934 40.4477C344.629 40.9816 344.476 41.5919 344.476 42.2784L343.418 41.6777C343.418 40.6479 343.647 39.7325 344.104 38.9316C344.562 38.1306 345.201 37.5013 346.021 37.0436C346.841 36.5668 347.766 36.3284 348.796 36.3284C349.826 36.3284 350.731 36.5859 351.513 37.1008C352.314 37.6157 352.944 38.2927 353.401 39.1318C353.859 39.9518 354.088 40.8291 354.088 41.7635V50.2021H351.513ZM341.902 50.2021V36.6145H344.476V50.2021H341.902ZM363.037 50.4882C361.931 50.4882 360.93 50.2403 360.034 49.7445C359.156 49.2296 358.47 48.524 357.974 47.6276C357.478 46.7313 357.23 45.692 357.23 44.5096V36.6145H359.805V44.3952C359.805 45.139 359.929 45.7874 360.177 46.3404C360.444 46.8744 360.825 47.2844 361.321 47.5704C361.817 47.8565 362.398 47.9995 363.066 47.9995C364.076 47.9995 364.868 47.6849 365.44 47.0555C366.012 46.4071 366.298 45.5204 366.298 44.3952V36.6145H368.873V44.5096C368.873 45.692 368.625 46.7313 368.129 47.6276C367.633 48.524 366.947 49.2296 366.069 49.7445C365.211 50.2403 364.2 50.4882 363.037 50.4882ZM374.268 50.2021V34.5835C374.268 33.5728 374.488 32.6955 374.926 31.9518C375.365 31.189 375.966 30.5883 376.728 30.1496C377.51 29.711 378.416 29.4917 379.446 29.4917C380.228 29.4917 380.905 29.6252 381.477 29.8922C382.049 30.1592 382.574 30.5501 383.05 31.065L381.363 32.7241C381.115 32.4572 380.838 32.2569 380.533 32.1234C380.228 31.9709 379.856 31.8946 379.417 31.8946C378.597 31.8946 377.958 32.133 377.501 32.6097C377.062 33.0865 376.843 33.7444 376.843 34.5835V50.2021H374.268ZM370.922 38.9602V36.6145H381.162V38.9602H370.922ZM388.745 50.4882C387.505 50.4882 386.38 50.1831 385.369 49.5728C384.359 48.9435 383.558 48.0949 382.966 47.0269C382.394 45.959 382.108 44.7576 382.108 43.4226C382.108 42.0877 382.394 40.8863 382.966 39.8183C383.558 38.7504 384.349 37.9018 385.341 37.2724C386.351 36.6431 387.486 36.3284 388.745 36.3284C389.775 36.3284 390.69 36.5478 391.491 36.9864C392.311 37.4059 392.969 37.9971 393.465 38.7599C393.961 39.5037 394.237 40.3714 394.294 41.363V45.4536C394.237 46.4262 393.961 47.2939 393.465 48.0567C392.988 48.8195 392.34 49.4203 391.52 49.8589C390.719 50.2784 389.794 50.4882 388.745 50.4882ZM389.174 48.0567C390.452 48.0567 391.481 47.6276 392.263 46.7695C393.045 45.8922 393.436 44.7766 393.436 43.4226C393.436 42.4882 393.255 41.6777 392.893 40.9912C392.549 40.2856 392.054 39.742 391.405 39.3606C390.757 38.9602 390.003 38.7599 389.145 38.7599C388.287 38.7599 387.524 38.9602 386.857 39.3606C386.208 39.7611 385.694 40.3142 385.312 41.0198C384.95 41.7063 384.769 42.4977 384.769 43.394C384.769 44.3094 384.95 45.1199 385.312 45.8255C385.694 46.512 386.218 47.0555 386.885 47.456C387.553 47.8565 388.316 48.0567 389.174 48.0567ZM393.264 50.2021V46.5406L393.751 43.2224L393.264 39.9328V36.6145H395.868V50.2021H393.264ZM405.823 50.4882C404.488 50.4882 403.277 50.1735 402.19 49.5442C401.122 48.9149 400.274 48.0663 399.644 46.9983C399.034 45.9113 398.729 44.7099 398.729 43.394C398.729 42.0591 399.034 40.8577 399.644 39.7897C400.274 38.7218 401.122 37.8827 402.19 37.2724C403.277 36.6431 404.488 36.3284 405.823 36.3284C406.872 36.3284 407.845 36.5287 408.741 36.9292C409.637 37.3106 410.41 37.8731 411.058 38.6169L409.342 40.3332C408.922 39.8374 408.407 39.4655 407.797 39.2176C407.206 38.9506 406.548 38.8171 405.823 38.8171C404.965 38.8171 404.202 39.0174 403.535 39.4179C402.867 39.7993 402.343 40.3332 401.961 41.0198C401.58 41.7063 401.389 42.4977 401.389 43.394C401.389 44.2903 401.58 45.0818 401.961 45.7683C402.343 46.4548 402.867 46.9983 403.535 47.3988C404.202 47.7993 404.965 47.9995 405.823 47.9995C406.548 47.9995 407.206 47.8756 407.797 47.6276C408.407 47.3607 408.932 46.9793 409.37 46.4834L411.058 48.1998C410.429 48.9244 409.656 49.487 408.741 49.8875C407.845 50.288 406.872 50.4882 405.823 50.4882ZM415.532 50.2021V30.922H418.106V50.2021H415.532ZM412.185 38.9602V36.6145H421.453V38.9602H412.185ZM429.439 50.4882C428.333 50.4882 427.332 50.2403 426.435 49.7445C425.558 49.2296 424.872 48.524 424.376 47.6276C423.88 46.7313 423.632 45.692 423.632 44.5096V36.6145H426.206V44.3952C426.206 45.139 426.33 45.7874 426.578 46.3404C426.845 46.8744 427.227 47.2844 427.723 47.5704C428.218 47.8565 428.8 47.9995 429.468 47.9995C430.478 47.9995 431.27 47.6849 431.842 47.0555C432.414 46.4071 432.7 45.5204 432.7 44.3952V36.6145H435.274V44.5096C435.274 45.692 435.027 46.7313 434.531 47.6276C434.035 48.524 433.348 49.2296 432.471 49.7445C431.613 50.2403 430.602 50.4882 429.439 50.4882ZM438.725 50.2021V36.6145H441.299V50.2021H438.725ZM441.299 42.45L440.327 42.021C440.327 40.2856 440.727 38.903 441.528 37.8731C442.329 36.8433 443.483 36.3284 444.99 36.3284C445.676 36.3284 446.296 36.4524 446.849 36.7003C447.402 36.9292 447.917 37.3201 448.394 37.8731L446.706 39.6181C446.42 39.313 446.105 39.0937 445.762 38.9602C445.419 38.8267 445.018 38.7599 444.561 38.7599C443.607 38.7599 442.825 39.065 442.215 39.6753C441.605 40.2856 441.299 41.2105 441.299 42.45ZM456.053 50.4882C454.699 50.4882 453.478 50.1831 452.391 49.5728C451.304 48.9435 450.446 48.0949 449.817 47.0269C449.187 45.959 448.873 44.748 448.873 43.394C448.873 42.0591 449.178 40.8577 449.788 39.7897C450.417 38.7218 451.256 37.8827 452.305 37.2724C453.373 36.6431 454.565 36.3284 455.881 36.3284C457.14 36.3284 458.246 36.6145 459.199 37.1866C460.172 37.7587 460.925 38.5501 461.459 39.5609C462.012 40.5716 462.289 41.7158 462.289 42.9935C462.289 43.1842 462.279 43.394 462.26 43.6229C462.241 43.8326 462.203 44.0806 462.146 44.3666H450.675V42.2212H460.772L459.829 43.0508C459.829 42.1354 459.666 41.363 459.342 40.7337C459.018 40.0853 458.56 39.5895 457.969 39.2462C457.378 38.8839 456.663 38.7027 455.824 38.7027C454.946 38.7027 454.174 38.8934 453.507 39.2748C452.839 39.6562 452.324 40.1902 451.962 40.8767C451.6 41.5633 451.418 42.3738 451.418 43.3082C451.418 44.2617 451.609 45.1008 451.991 45.8255C452.372 46.5311 452.915 47.0841 453.621 47.4846C454.327 47.866 455.137 48.0567 456.053 48.0567C456.815 48.0567 457.511 47.9232 458.141 47.6563C458.789 47.3893 459.342 46.9888 459.8 46.4548L461.459 48.1425C460.811 48.9054 460.01 49.487 459.056 49.8875C458.122 50.288 457.121 50.4882 456.053 50.4882ZM465.096 50.2021V36.6145H467.67V50.2021H465.096ZM467.67 42.45L466.698 42.021C466.698 40.2856 467.098 38.903 467.899 37.8731C468.7 36.8433 469.854 36.3284 471.36 36.3284C472.047 36.3284 472.667 36.4524 473.22 36.7003C473.773 36.9292 474.288 37.3201 474.764 37.8731L473.077 39.6181C472.791 39.313 472.476 39.0937 472.133 38.9602C471.789 38.8267 471.389 38.7599 470.931 38.7599C469.978 38.7599 469.196 39.065 468.586 39.6753C467.975 40.2856 467.67 41.2105 467.67 42.45ZM480.589 50.4882C479.826 50.4882 479.102 50.3929 478.415 50.2021C477.748 49.9924 477.128 49.7063 476.556 49.344C475.984 48.9626 475.488 48.5144 475.068 47.9995L476.727 46.3404C477.223 46.9506 477.795 47.4083 478.444 47.7135C479.092 47.9995 479.817 48.1425 480.618 48.1425C481.419 48.1425 482.039 48.0091 482.477 47.7421C482.916 47.456 483.135 47.0651 483.135 46.5692C483.135 46.0734 482.954 45.692 482.592 45.425C482.248 45.139 481.8 44.9101 481.247 44.7385C480.694 44.5478 480.103 44.3666 479.474 44.195C478.863 44.0043 478.282 43.7659 477.729 43.4798C477.176 43.1938 476.718 42.8028 476.356 42.307C476.012 41.8112 475.841 41.1533 475.841 40.3332C475.841 39.5132 476.041 38.8076 476.441 38.2164C476.842 37.6062 477.395 37.1389 478.101 36.8147C478.825 36.4905 479.693 36.3284 480.704 36.3284C481.772 36.3284 482.716 36.5192 483.536 36.9006C484.375 37.2629 485.061 37.8159 485.595 38.5597L483.936 40.2188C483.555 39.723 483.078 39.3416 482.506 39.0746C481.953 38.8076 481.323 38.6741 480.618 38.6741C479.874 38.6741 479.302 38.8076 478.901 39.0746C478.52 39.3225 478.329 39.6753 478.329 40.133C478.329 40.5907 478.501 40.9435 478.844 41.1914C479.188 41.4393 479.636 41.6491 480.189 41.8207C480.761 41.9924 481.352 42.1735 481.962 42.3642C482.573 42.5359 483.154 42.7742 483.707 43.0794C484.26 43.3845 484.708 43.7945 485.052 44.3094C485.414 44.8243 485.595 45.5013 485.595 46.3404C485.595 47.6181 485.137 48.6288 484.222 49.3726C483.326 50.1163 482.115 50.4882 480.589 50.4882Z" fill="url(#paint3_linear_3006_34534)"/>
<path d="M192.044 60.5431C191.759 60.5431 191.5 60.485 191.268 60.3688C191.04 60.2473 190.858 60.0809 190.721 59.8696C190.584 59.6583 190.507 59.4179 190.491 59.1485V58.0154C190.507 57.7407 190.584 57.5003 190.721 57.2943C190.863 57.083 191.048 56.9193 191.276 56.803C191.508 56.6815 191.764 56.6208 192.044 56.6208C192.387 56.6208 192.697 56.708 192.971 56.8823C193.251 57.0566 193.47 57.2917 193.629 57.5875C193.787 57.8833 193.867 58.2161 193.867 58.5859C193.867 58.9557 193.787 59.2885 193.629 59.5843C193.47 59.8801 193.251 60.1152 192.971 60.2895C192.697 60.4586 192.387 60.5431 192.044 60.5431ZM190.063 60.4639V54.8062H190.776V57.6192L190.642 58.5304L190.776 59.4496V60.4639H190.063ZM191.925 59.8696C192.163 59.8696 192.372 59.8141 192.551 59.7032C192.731 59.5922 192.873 59.4417 192.979 59.2515C193.085 59.0561 193.138 58.8316 193.138 58.578C193.138 58.3297 193.085 58.1078 192.979 57.9124C192.873 57.7169 192.731 57.5664 192.551 57.4607C192.372 57.3498 192.166 57.2943 191.933 57.2943C191.695 57.2943 191.487 57.3498 191.307 57.4607C191.128 57.5664 190.988 57.7169 190.887 57.9124C190.787 58.1078 190.737 58.3324 190.737 58.5859C190.737 58.8342 190.784 59.0561 190.879 59.2515C190.98 59.4417 191.12 59.5922 191.299 59.7032C191.484 59.8141 191.693 59.8696 191.925 59.8696ZM195.764 60.4956L194.132 56.7H194.924L196.137 59.6715H195.883L197.159 56.7H197.951L196.192 60.4956H195.764ZM194.687 62.0407L195.796 59.7666L196.192 60.4956L195.479 62.0407H194.687ZM201.903 60.5431C201.469 60.5431 201.1 60.4639 200.793 60.3054C200.487 60.1469 200.215 59.9171 199.977 59.616L200.484 59.1089C200.659 59.3519 200.859 59.5368 201.086 59.6636C201.314 59.7851 201.594 59.8458 201.926 59.8458C202.254 59.8458 202.515 59.7745 202.711 59.6319C202.912 59.4892 203.012 59.2938 203.012 59.0455C203.012 58.8395 202.964 58.6731 202.869 58.5463C202.774 58.4195 202.645 58.3165 202.481 58.2373C202.323 58.1527 202.148 58.0788 201.958 58.0154C201.768 57.9467 201.578 57.8754 201.388 57.8015C201.197 57.7222 201.023 57.6271 200.865 57.5162C200.706 57.4 200.577 57.2494 200.476 57.0645C200.381 56.8796 200.334 56.6472 200.334 56.3672C200.334 56.0556 200.408 55.7914 200.556 55.5749C200.709 55.353 200.915 55.1839 201.174 55.0677C201.438 54.9462 201.734 54.8855 202.061 54.8855C202.42 54.8855 202.743 54.9568 203.028 55.0994C203.313 55.2368 203.546 55.419 203.725 55.6462L203.218 56.1533C203.054 55.9631 202.877 55.8205 202.687 55.7254C202.502 55.6303 202.288 55.5828 202.045 55.5828C201.749 55.5828 201.514 55.6488 201.34 55.7809C201.166 55.9077 201.079 56.0873 201.079 56.3197C201.079 56.5046 201.126 56.6551 201.221 56.7714C201.322 56.8823 201.451 56.9774 201.609 57.0566C201.768 57.1358 201.942 57.2098 202.132 57.2785C202.328 57.3419 202.521 57.4132 202.711 57.4924C202.901 57.5717 203.075 57.672 203.234 57.7935C203.392 57.915 203.519 58.0735 203.614 58.269C203.715 58.4591 203.765 58.6995 203.765 58.99C203.765 59.476 203.596 59.8564 203.258 60.1311C202.925 60.4058 202.473 60.5431 201.903 60.5431ZM206.307 60.5431C205.937 60.5431 205.602 60.4559 205.301 60.2816C205.005 60.1073 204.77 59.8722 204.596 59.5764C204.427 59.2753 204.342 58.9425 204.342 58.578C204.342 58.2082 204.427 57.8754 204.596 57.5796C204.77 57.2838 205.005 57.0513 205.301 56.8823C205.602 56.708 205.937 56.6208 206.307 56.6208C206.598 56.6208 206.867 56.6763 207.115 56.7872C207.364 56.8929 207.578 57.0487 207.757 57.2547L207.282 57.7301C207.166 57.5928 207.023 57.4898 206.854 57.4211C206.69 57.3472 206.508 57.3102 206.307 57.3102C206.069 57.3102 205.858 57.3656 205.673 57.4766C205.488 57.5822 205.343 57.7301 205.237 57.9203C205.132 58.1105 205.079 58.3297 205.079 58.578C205.079 58.8263 205.132 59.0455 205.237 59.2357C205.343 59.4258 205.488 59.5764 205.673 59.6873C205.858 59.7983 206.069 59.8537 206.307 59.8537C206.508 59.8537 206.69 59.8194 206.854 59.7507C207.023 59.6768 207.168 59.5711 207.29 59.4338L207.757 59.9092C207.583 60.1099 207.369 60.2658 207.115 60.3767C206.867 60.4876 206.598 60.5431 206.307 60.5431ZM208.472 60.4639V56.7H209.186V60.4639H208.472ZM208.829 55.9473C208.697 55.9473 208.589 55.905 208.504 55.8205C208.42 55.7307 208.377 55.6198 208.377 55.4877C208.377 55.3609 208.42 55.2553 208.504 55.1707C208.589 55.0809 208.697 55.036 208.829 55.036C208.961 55.036 209.069 55.0809 209.154 55.1707C209.238 55.2553 209.281 55.3609 209.281 55.4877C209.281 55.6198 209.238 55.7307 209.154 55.8205C209.069 55.905 208.961 55.9473 208.829 55.9473ZM210.236 60.4639V56.7H210.95V60.4639H210.236ZM212.78 60.4639V58.1897C212.78 57.9097 212.693 57.6905 212.519 57.532C212.35 57.3683 212.136 57.2864 211.877 57.2864C211.702 57.2864 211.547 57.3234 211.409 57.3973C211.272 57.4713 211.161 57.5743 211.076 57.7064C210.992 57.8384 210.95 57.9969 210.95 58.1818L210.656 58.0392C210.656 57.7539 210.717 57.5056 210.839 57.2943C210.965 57.083 211.137 56.9193 211.354 56.803C211.57 56.6815 211.813 56.6208 212.083 56.6208C212.347 56.6208 212.585 56.6789 212.796 56.7951C213.012 56.9113 213.182 57.0751 213.303 57.2864C213.43 57.4977 213.493 57.7486 213.493 58.0392V60.4639H212.78ZM215.324 60.4639V58.1897C215.324 57.9097 215.236 57.6905 215.062 57.532C214.893 57.3683 214.682 57.2864 214.428 57.2864C214.254 57.2864 214.095 57.3234 213.953 57.3973C213.815 57.4713 213.704 57.5743 213.62 57.7064C213.535 57.8384 213.493 57.9969 213.493 58.1818L213.089 58.0392C213.105 57.7486 213.182 57.5003 213.319 57.2943C213.461 57.083 213.644 56.9193 213.866 56.803C214.087 56.6815 214.33 56.6208 214.595 56.6208C214.869 56.6208 215.115 56.6789 215.332 56.7951C215.548 56.9113 215.72 57.0751 215.847 57.2864C215.979 57.4977 216.045 57.7513 216.045 58.0471V60.4639H215.324ZM218.996 60.5431C218.711 60.5431 218.452 60.485 218.22 60.3688C217.992 60.2473 217.81 60.0809 217.673 59.8696C217.535 59.6583 217.459 59.4179 217.443 59.1485V58.0154C217.459 57.7407 217.535 57.5003 217.673 57.2943C217.815 57.083 218 56.9193 218.227 56.803C218.46 56.6815 218.716 56.6208 218.996 56.6208C219.339 56.6208 219.648 56.708 219.923 56.8823C220.203 57.0566 220.422 57.2917 220.581 57.5875C220.739 57.8833 220.819 58.2161 220.819 58.5859C220.819 58.9557 220.739 59.2885 220.581 59.5843C220.422 59.8801 220.203 60.1152 219.923 60.2895C219.648 60.4586 219.339 60.5431 218.996 60.5431ZM217.015 62.0407V56.7H217.728V57.6905L217.594 58.6018L217.728 59.5209V62.0407H217.015ZM218.877 59.8696C219.115 59.8696 219.324 59.8141 219.503 59.7032C219.683 59.5922 219.825 59.4417 219.931 59.2515C220.037 59.0561 220.09 58.8316 220.09 58.578C220.09 58.3297 220.037 58.1078 219.931 57.9124C219.825 57.7169 219.683 57.5664 219.503 57.4607C219.324 57.3498 219.118 57.2943 218.885 57.2943C218.647 57.2943 218.439 57.3498 218.259 57.4607C218.08 57.5664 217.94 57.7169 217.839 57.9124C217.739 58.1078 217.689 58.3324 217.689 58.5859C217.689 58.8342 217.736 59.0561 217.831 59.2515C217.932 59.4417 218.072 59.5922 218.251 59.7032C218.436 59.8141 218.645 59.8696 218.877 59.8696ZM221.627 60.4639V54.8062H222.34V60.4639H221.627ZM223.392 60.4639V56.7H224.105V60.4639H223.392ZM223.748 55.9473C223.616 55.9473 223.508 55.905 223.423 55.8205C223.339 55.7307 223.296 55.6198 223.296 55.4877C223.296 55.3609 223.339 55.2553 223.423 55.1707C223.508 55.0809 223.616 55.036 223.748 55.036C223.88 55.036 223.988 55.0809 224.073 55.1707C224.157 55.2553 224.2 55.3609 224.2 55.4877C224.2 55.6198 224.157 55.7307 224.073 55.8205C223.988 55.905 223.88 55.9473 223.748 55.9473ZM225.694 60.4639V56.1374C225.694 55.8575 225.755 55.6145 225.877 55.4085C225.998 55.1971 226.165 55.0307 226.376 54.9092C226.592 54.7877 226.843 54.727 227.129 54.727C227.345 54.727 227.533 54.764 227.691 54.8379C227.85 54.9119 227.995 55.0202 228.127 55.1628L227.66 55.6224C227.591 55.5484 227.514 55.493 227.43 55.456C227.345 55.4137 227.242 55.3926 227.121 55.3926C226.894 55.3926 226.717 55.4586 226.59 55.5907C226.468 55.7228 226.408 55.905 226.408 56.1374V60.4639H225.694ZM224.767 57.3498V56.7H227.604V57.3498H224.767ZM229.433 60.4956L227.801 56.7H228.593L229.805 59.6715H229.552L230.827 56.7H231.62L229.861 60.4956H229.433ZM228.355 62.0407L229.465 59.7666L229.861 60.4956L229.148 62.0407H228.355Z" fill="url(#paint4_linear_3006_34534)"/>
<rect x="231.65" y="11.2515" width="8.19522" height="8.41446" rx="4.09761" stroke="#182133" stroke-width="0.385762"/>
<path d="M233.859 16.959V14.2278H234.24V16.959H233.859ZM232.903 14.4953V14.1468H235.192V14.4953H232.903ZM235.646 16.959V14.1468H235.914L237.105 16.104H236.923L238.114 14.1468H238.381V16.959H238.001V14.8154L238.09 14.8397L237.15 16.3836H236.882L235.942 14.8397L236.027 14.8154V16.959H235.646Z" fill="#182133"/>
<defs>
<linearGradient id="paint0_linear_3006_34534" x1="39.9634" y1="59.3026" x2="39.9634" y2="5.39703" gradientUnits="userSpaceOnUse">
<stop stop-color="#016358"/>
<stop offset="1" stop-color="#182133"/>
</linearGradient>
<linearGradient id="paint1_linear_3006_34534" x1="48.8406" y1="54.5917" x2="36.5435" y2="9.3225" gradientUnits="userSpaceOnUse">
<stop stop-color="#016358"/>
<stop offset="1" stop-color="#182133"/>
</linearGradient>
<linearGradient id="paint2_linear_3006_34534" x1="75.4693" y1="32.7253" x2="232.715" y2="32.7253" gradientUnits="userSpaceOnUse">
<stop stop-color="#016358"/>
<stop offset="1" stop-color="#182133"/>
</linearGradient>
<linearGradient id="paint3_linear_3006_34534" x1="254.089" y1="39.7021" x2="487.089" y2="39.7021" gradientUnits="userSpaceOnUse">
<stop stop-color="#026257"/>
<stop offset="1" stop-color="#172334"/>
</linearGradient>
<linearGradient id="paint4_linear_3006_34534" x1="189.142" y1="57.4639" x2="232.142" y2="57.4639" gradientUnits="userSpaceOnUse">
<stop stop-color="#11343D"/>
<stop offset="1" stop-color="#172334"/>
</linearGradient>
</defs>
</svg>
