<svg width="479" height="70" viewBox="0 0 479 70" fill="none" xmlns="http://www.w3.org/2000/svg">
<path d="M14.71 33.4388L15.0614 29.1635L18.7764 18.8316L21.8892 15.0653L32.7834 7.68528L37.3018 6.51465L48.0454 6.82003L52.9152 8.65231L62.8054 16.5413L65.5164 20.8166L68.4283 31.4539V36.5435L63.8095 48.657L60.7471 52.1688L51.5095 58.1236L46.6398 59.8542L33.7875 59.2434L29.3695 57.3602L20.9854 50.5401L18.0737 46.3157L14.71 33.4388Z" fill="url(#paint0_linear_3006_34261)"/>
<path d="M17.8565 46.408L17.844 46.36L14.5821 33.9086L14.5581 33.8172L14.5767 33.7814L14.7862 29.0922L14.7879 29.055L14.8006 29.0197L18.483 18.8373L18.496 18.8012L18.5195 18.771L21.6816 14.6967L21.6942 14.7067L21.7459 14.6723L32.4109 7.60155L32.4919 7.54781L32.5328 7.55586L37.2933 6.2627L37.3284 6.26385L47.9377 6.59716L47.975 6.59837L48.0102 6.61107L53.0057 8.40952L53.0254 8.4073L53.0468 8.42431L53.0479 8.42458L53.0478 8.42495L53.1014 8.46726L62.9263 16.2173L63.0021 16.2771L63.007 16.3112L63.0094 16.3096L65.7112 20.6069L65.7309 20.6384L68.5768 31.4059L68.5771 31.4368L68.619 36.4995L68.6302 36.5264L68.5961 36.617L64.0034 48.778L63.9694 48.8682L63.9272 48.8887L60.7925 52.3434L60.7722 52.3657L60.7471 52.3821L51.6084 58.4201L51.5824 58.4373L51.553 58.4471L46.6784 60.0804L46.6617 60.0297L46.6042 60.027L33.9189 59.4539L33.8792 59.4521L33.877 59.4575L33.8618 59.4513L33.8254 59.4496L33.8036 59.4274L29.2583 57.5587L29.2257 57.5452L29.1983 57.523L20.8394 50.7041L20.8134 50.6829L20.794 50.6551L17.8683 46.4521L17.8681 46.4519L17.868 46.4514L17.8441 46.4171L17.8565 46.408ZM64.5953 26.7332L68.1316 35.3164L68.0997 31.4718L65.2885 20.8356L63.1719 17.469L64.497 26.775L64.5953 26.7332ZM49.03 44.0281L54.5965 52.8779L63.5912 48.5148L68.1158 36.5344L64.258 27.1709L54.2843 29.8802L49.0128 44.0393L49.03 44.0281ZM54.2595 29.3856L64.0091 26.7372L62.5569 16.5396L52.8842 8.90942L42.8395 9.98774L42.629 19.7941L54.2595 29.3856ZM51.3737 57.9972L60.4612 51.9932L62.7682 49.4509L54.6369 53.3949L47.6275 59.2525L51.3737 57.9972ZM42.5718 9.52943L42.5802 9.5285L51.9062 8.52758L47.8856 7.08007L37.3488 6.74888L33.6033 7.76635L42.5718 9.52943ZM48.5629 43.8763L53.8455 29.6876L42.3142 20.2219L29.4941 28.6924L33.368 43.3493L48.5629 43.8763ZM34.0334 58.9743L46.5336 59.5393L54.1938 53.138L48.6751 44.3647L33.3244 43.8324L26.9738 51.7433L34.0334 58.9743ZM29.2044 28.3059L42.1521 19.751L42.3618 9.98143L32.5912 8.06065L22.086 15.0254L19.7384 24.718L29.2044 28.3059ZM26.5875 51.4573L32.9287 43.5582L29.0151 28.7511L19.589 25.1783L15.0676 33.8758L18.2815 46.144L26.5875 51.4573ZM21.1648 50.3481L29.4703 57.1235L32.9516 58.5547L26.4836 51.9293L26.4782 51.9239L26.4622 51.9496L18.9224 47.1263L21.1648 50.3481ZM19.2101 24.8686L19.2239 24.8116L21.3947 15.8495L18.9183 19.04L15.2617 29.1513L15.0998 32.7753L19.2101 24.8686Z" fill="white"/>
<path opacity="0.16" d="M15.2358 29.1798L17.4944 35.1964L22.5138 31.4742L25.5467 23.4333L24.1422 17.3593L18.3463 19.8294L18.1611 19.383L24.1449 16.8329L32.1704 11.6287L32.1789 11.6197L37.1822 6.39746L37.3534 6.56618L37.5249 6.73487L32.7134 11.757L37.5806 15.3431L46.3085 15.5578L51.4304 12.4628L47.7496 7.0084L48.1438 6.73493L51.9315 12.3478L59.593 18.4598L59.5911 18.4624L65.5933 20.4858L65.518 20.7156L65.4426 20.9453L59.5632 18.9631L57.5721 24.7087L59.8432 33.3014L64.6132 37.2697L68.1241 31.2801L68.3294 31.4037L68.5346 31.5275L64.871 37.7777L61.5156 46.7789L60.7843 52.2023L60.3112 52.1366L61.0044 46.9942L54.9419 46.9394L47.5574 51.6821L45.2388 57.418L51.4321 57.985L51.3891 58.4673L44.9685 57.8794L34.9492 57.2318L34.951 57.2042L29.4403 57.6529L29.4022 57.1702L34.6517 56.7428L33.1304 50.9871L26.3796 45.6969L20.1602 45.1204L21.0214 50.1942L20.5507 50.2765L19.6551 44.9996L17.2559 35.9224L17.1594 35.6652L14.7896 29.3521L15.2358 29.1798ZM61.1049 46.5108L64.3866 37.7076L59.6667 33.7811L54.4812 38.9567L55.0584 46.4563L61.1049 46.5108ZM49.9678 22.5763L57.186 24.3623L59.1424 18.7164L51.7601 12.8272L46.6891 15.8915L49.9678 22.5763ZM47.4662 36.0872L54.2199 38.5381L59.3734 33.3946L57.113 24.8424L49.9025 23.0586L45.4346 28.7355L47.4662 36.0872ZM47.2686 51.2942L54.5897 46.5924L54.0034 38.9737L47.301 36.5415L41.0502 40.6819L40.71 47.9464L47.2686 51.2942ZM37.7161 28.1242L45.0609 28.4338L49.5253 22.7616L46.2287 16.0403L37.6504 15.8294L33.6828 22.0632L37.7161 28.1242ZM40.8028 40.2674L46.9924 36.1675L44.9883 28.9154L37.7706 28.6112L35.1545 35.5575L40.8028 40.2674ZM44.7382 57.3792L47.0283 51.7137L40.5016 48.3822L33.6428 51.0541L35.1507 56.7595L44.7382 57.3792ZM33.2663 21.8248L37.1925 15.6557L32.3494 12.0874L24.5789 17.1263L25.9923 23.2383L33.2663 21.8248ZM27.6911 37.2895L34.7089 35.3832L37.3333 28.4149L33.275 22.316L25.9419 23.7412L23.0111 31.5113L27.6911 37.2895ZM33.4371 50.6155L40.2306 47.9691L40.5712 40.7012L34.7735 35.8669L27.8173 37.7565L26.689 45.3274L33.4371 50.6155ZM26.2254 45.1964L27.3525 37.6345L22.7232 31.9188L17.6806 35.6582L20.0502 44.624L26.2254 45.1964Z" fill="white"/>
<path opacity="0.32" d="M58.9362 18.7894C58.852 18.4708 59.0385 18.1434 59.3528 18.0579C59.6671 17.9726 59.9901 18.1617 60.0743 18.4803C60.1586 18.7989 59.972 19.1263 59.6578 19.2117C59.3435 19.2971 59.0204 19.108 58.9362 18.7894ZM63.9822 37.884C63.898 37.5653 64.0845 37.2377 64.3988 37.1523C64.7131 37.067 65.0362 37.2562 65.1204 37.5748C65.2046 37.8933 65.0181 38.2209 64.7039 38.3062C64.3896 38.3916 64.0665 38.2026 63.9822 37.884ZM59.0238 33.6666C58.9396 33.348 59.126 33.0203 59.4403 32.935C59.7546 32.8496 60.0776 33.0388 60.1618 33.3575C60.246 33.676 60.0596 34.0035 59.7453 34.0889C59.431 34.1742 59.108 33.9851 59.0238 33.6666ZM56.6904 24.8402C56.6062 24.5217 56.7927 24.1941 57.107 24.1088C57.4212 24.0234 57.7443 24.2125 57.8285 24.531C57.9126 24.8496 57.7262 25.1773 57.4119 25.2626C57.0977 25.348 56.7746 25.1588 56.6904 24.8402ZM60.6866 46.8797C60.6025 46.5611 60.7891 46.2335 61.1034 46.1482C61.4177 46.0628 61.7406 46.2518 61.8248 46.5704C61.9091 46.889 61.7226 47.2165 61.4083 47.3019C61.094 47.3873 60.771 47.1983 60.6866 46.8797ZM51.2727 12.6469C51.1885 12.3283 51.3751 12.0008 51.6894 11.9154C52.0036 11.8301 52.3267 12.0191 52.4109 12.3377C52.4951 12.6563 52.3086 12.9838 51.9943 13.0692C51.68 13.1545 51.357 12.9654 51.2727 12.6469ZM53.5249 38.9322C53.4407 38.6136 53.6272 38.2861 53.9415 38.2007C54.2558 38.1153 54.5787 38.3044 54.6629 38.6231C54.7472 38.9417 54.5607 39.2692 54.2464 39.3546C53.9321 39.4399 53.6091 39.2508 53.5249 38.9322ZM49.3011 22.9517C49.2169 22.6331 49.4033 22.3055 49.7176 22.2202C50.0319 22.1348 50.3549 22.3239 50.4392 22.6426C50.5234 22.9612 50.3368 23.2886 50.0226 23.3739C49.7083 23.4594 49.3853 23.2703 49.3011 22.9517ZM54.2119 46.8458C54.1277 46.5272 54.3142 46.1997 54.6285 46.1144C54.9428 46.029 55.2659 46.218 55.35 46.5366C55.4342 46.8552 55.2477 47.1827 54.9334 47.2681C54.6191 47.3535 54.2961 47.1644 54.2119 46.8458ZM45.8127 15.9845C45.7285 15.6659 45.9151 15.3385 46.2292 15.2531C46.5435 15.1677 46.8667 15.3568 46.9509 15.6754C47.0351 15.994 46.8485 16.3215 46.5342 16.4069C46.22 16.4922 45.8969 16.3031 45.8127 15.9845ZM46.6371 36.4126C46.5529 36.094 46.7394 35.7664 47.0537 35.6811C47.3679 35.5957 47.6909 35.7848 47.7752 36.1034C47.8593 36.422 47.6729 36.7496 47.3586 36.8349C47.0443 36.9203 46.7214 36.7312 46.6371 36.4126ZM44.6085 28.7403C44.5243 28.4218 44.7108 28.0943 45.0251 28.0089C45.3394 27.9236 45.6624 28.1126 45.7466 28.4312C45.8309 28.7498 45.6443 29.0773 45.3301 29.1627C45.0158 29.248 44.6927 29.0589 44.6085 28.7403ZM46.7181 51.7252C46.6338 51.4066 46.8204 51.0791 47.1347 50.9937C47.449 50.9084 47.772 51.0975 47.8563 51.4161C47.9405 51.7347 47.7539 52.0621 47.4396 52.1475C47.1254 52.2329 46.8023 52.0438 46.7181 51.7252ZM36.9055 15.746C36.8213 15.4274 37.0078 15.0998 37.3221 15.0145C37.6364 14.9291 37.9594 15.1182 38.0437 15.4368C38.1279 15.7555 37.9413 16.0829 37.627 16.1682C37.3128 16.2536 36.9897 16.0646 36.9055 15.746ZM40.1916 40.6371C40.1074 40.3185 40.294 39.9909 40.6083 39.9056C40.9225 39.8202 41.2456 40.0093 41.3298 40.3278C41.414 40.6464 41.2274 40.974 40.9133 41.0593C40.599 41.1447 40.2758 40.9557 40.1916 40.6371ZM36.9888 28.5214C36.9046 28.2028 37.0911 27.8753 37.4054 27.7899C37.7197 27.7045 38.0428 27.8936 38.127 28.2122C38.2113 28.5308 38.0247 28.8584 37.7104 28.9439C37.3961 29.0291 37.073 28.84 36.9888 28.5214ZM44.3478 57.7485C44.2636 57.4299 44.45 57.1024 44.7643 57.017C45.0786 56.9317 45.4016 57.1208 45.4858 57.4394C45.57 57.758 45.3835 58.0856 45.0692 58.1709C44.7551 58.2563 44.432 58.0672 44.3478 57.7485ZM31.7966 11.878C31.7124 11.5594 31.899 11.2319 32.2133 11.1465C32.5276 11.0611 32.8506 11.2502 32.9348 11.5688C33.0189 11.8874 32.8325 12.2149 32.5182 12.3002C32.204 12.3857 31.8809 12.1966 31.7966 11.878ZM39.959 48.306C39.8747 47.9874 40.0612 47.6598 40.3755 47.5744C40.6898 47.489 41.013 47.6781 41.0972 47.9968C41.1814 48.3154 40.9947 48.6429 40.6805 48.7283C40.3662 48.8136 40.0432 48.6245 39.959 48.306ZM32.8268 22.2334C32.7426 21.9148 32.9291 21.5874 33.2434 21.5019C33.5577 21.4165 33.8806 21.6056 33.9648 21.9243C34.0491 22.2429 33.8626 22.5703 33.5483 22.6558C33.234 22.7411 32.911 22.552 32.8268 22.2334ZM34.2661 35.7546C34.1819 35.436 34.3683 35.1086 34.6826 35.0231C34.9969 34.9378 35.32 35.1269 35.4042 35.4455C35.4883 35.7641 35.3018 36.0915 34.9875 36.177C34.6732 36.2623 34.3503 36.0732 34.2661 35.7546ZM34.4023 57.0498C34.3181 56.7311 34.5045 56.4035 34.8188 56.3181C35.1331 56.2328 35.4562 56.422 35.5404 56.7406C35.6246 57.0591 35.438 57.3866 35.1238 57.472C34.8096 57.5574 34.4865 57.3683 34.4023 57.0498ZM32.8165 51.0494C32.7322 50.7308 32.9187 50.4033 33.233 50.3179C33.5472 50.2326 33.8703 50.4217 33.9545 50.7403C34.0387 51.0589 33.8522 51.3865 33.5379 51.4718C33.2236 51.5572 32.9006 51.3681 32.8165 51.0494ZM23.6661 17.1158C23.5818 16.7972 23.7684 16.4697 24.0827 16.3843C24.397 16.299 24.7201 16.4881 24.8043 16.8066C24.8885 17.1252 24.7019 17.4527 24.3877 17.5381C24.0734 17.6234 23.7503 17.4344 23.6661 17.1158ZM25.2764 23.6659C25.1923 23.3473 25.3787 23.0198 25.693 22.9344C26.0073 22.8491 26.3303 23.0382 26.4146 23.3568C26.4988 23.6754 26.3122 24.0029 25.998 24.0883C25.6837 24.1736 25.3607 23.9845 25.2764 23.6659ZM27.0374 37.7182C26.9532 37.3997 27.1397 37.0722 27.454 36.9868C27.7683 36.9014 28.0912 37.0906 28.1754 37.4091C28.2597 37.7277 28.0732 38.0553 27.7589 38.1407C27.4447 38.226 27.1216 38.0368 27.0374 37.7182ZM25.8103 45.5343C25.7261 45.2157 25.9127 44.8882 26.227 44.8028C26.5412 44.7174 26.8642 44.9065 26.9484 45.2251C27.0326 45.5438 26.8462 45.8712 26.5319 45.9566C26.2176 46.042 25.8945 45.8529 25.8103 45.5343ZM22.1651 31.7453C22.0809 31.4268 22.2674 31.0993 22.5817 31.0139C22.896 30.9286 23.2191 31.1176 23.3033 31.4362C23.3876 31.7548 23.2009 32.0824 22.8866 32.1678C22.5724 32.2531 22.2494 32.0639 22.1651 31.7453ZM16.8014 35.6756C16.7173 35.357 16.9038 35.0295 17.218 34.9442C17.5323 34.8588 17.8553 35.0479 17.9396 35.3664C18.0238 35.685 17.8373 36.0127 17.523 36.098C17.2087 36.1834 16.8857 35.9942 16.8014 35.6756ZM19.3018 45.1369C19.2176 44.8183 19.4042 44.4908 19.7185 44.4054C20.0328 44.3201 20.3558 44.5092 20.4399 44.8278C20.5241 45.1464 20.3377 45.4738 20.0234 45.5592C19.7092 45.6446 19.3861 45.4555 19.3018 45.1369Z" fill="white"/>
<path d="M62.8112 27.134C62.6064 26.3591 63.0599 25.5627 63.8243 25.3549C64.5888 25.1473 65.3744 25.6071 65.5793 26.382C65.7841 27.1571 65.3304 27.9537 64.5661 28.1613C63.8017 28.3689 63.016 27.9089 62.8112 27.134ZM52.2537 30.3778C51.9977 29.4092 52.5647 28.4135 53.5202 28.1539C54.4757 27.8944 55.4579 28.4692 55.7138 29.4379C55.9699 30.4066 55.4028 31.4023 54.4473 31.6617C53.4919 31.9213 52.5097 31.3464 52.2537 30.3778ZM53.0282 53.2883C52.8235 52.5134 53.2771 51.7169 54.0415 51.5092C54.8058 51.3016 55.5915 51.7614 55.7964 52.5364C56.0011 53.3113 55.5476 54.1079 54.7832 54.3155C54.0188 54.5232 53.233 54.0633 53.0282 53.2883ZM41.2258 9.93451C41.021 9.15956 41.4746 8.36296 42.239 8.15531C43.0034 7.9477 43.7891 8.40764 43.9939 9.18256C44.1987 9.95747 43.7451 10.754 42.9808 10.9616C42.2163 11.1693 41.4305 10.7094 41.2258 9.93451ZM40.4074 20.7772C40.1515 19.8086 40.7184 18.8128 41.6739 18.5532C42.6294 18.2937 43.6116 18.8686 43.8676 19.8374C44.1236 20.806 43.5565 21.8017 42.6011 22.0612C41.6456 22.3208 40.6635 21.7459 40.4074 20.7772ZM46.6238 44.8917C46.3678 43.923 46.9349 42.9273 47.8903 42.6679C48.8458 42.4083 49.8279 42.9831 50.084 43.9518C50.3399 44.9204 49.773 45.9161 48.8174 46.1757C47.862 46.4352 46.8799 45.8604 46.6238 44.8917ZM31.4773 44.2449C31.2212 43.2762 31.7883 42.2805 32.7438 42.0209C33.6993 41.7615 34.6815 42.3362 34.9375 43.305C35.1935 44.2736 34.6264 45.2693 33.6709 45.5289C32.7155 45.7884 31.7333 45.2136 31.4773 44.2449ZM27.4825 29.1302C27.2265 28.1616 27.7935 27.1659 28.749 26.9064C29.7044 26.6468 30.6866 27.2217 30.9427 28.1903C31.1986 29.159 30.6316 30.1547 29.6761 30.4143C28.7206 30.6737 27.7385 30.099 27.4825 29.1302ZM25.3109 51.9748C25.1061 51.1998 25.5597 50.4033 26.324 50.1957C27.0885 49.988 27.8741 50.4479 28.079 51.2228C28.2838 51.9977 27.8301 52.7943 27.0658 53.002C26.3014 53.2096 25.5157 52.7497 25.3109 51.9748ZM18.2357 25.2069C18.0309 24.432 18.4846 23.6355 19.249 23.4278C20.0134 23.2202 20.799 23.68 21.0038 24.455C21.2087 25.2299 20.755 26.0265 19.9907 26.2341C19.2263 26.4419 18.4406 25.9819 18.2357 25.2069Z" fill="url(#paint1_linear_3006_34261)"/>
<mask id="mask0_3006_34261" style="mask-type:luminance" maskUnits="userSpaceOnUse" x="18" y="8" width="48" height="47">
<path d="M62.8117 27.134C62.6069 26.3591 63.0604 25.5627 63.8248 25.3549C64.5893 25.1473 65.3749 25.6071 65.5798 26.382C65.7846 27.1571 65.3309 27.9537 64.5666 28.1613C63.8022 28.3689 63.0164 27.9089 62.8117 27.134ZM52.2542 30.3778C51.9982 29.4092 52.5652 28.4135 53.5207 28.1539C54.4762 27.8944 55.4583 28.4692 55.7143 29.4379C55.9703 30.4066 55.4033 31.4023 54.4478 31.6617C53.4924 31.9213 52.5102 31.3464 52.2542 30.3778ZM53.0287 53.2883C52.8239 52.5134 53.2776 51.7169 54.042 51.5092C54.8063 51.3016 55.592 51.7614 55.7969 52.5364C56.0016 53.3113 55.5481 54.1079 54.7837 54.3155C54.0193 54.5232 53.2335 54.0633 53.0287 53.2883ZM41.2262 9.93451C41.0215 9.15956 41.4751 8.36296 42.2395 8.15531C43.0038 7.9477 43.7896 8.40764 43.9944 9.18256C44.1992 9.95747 43.7456 10.754 42.9813 10.9616C42.2168 11.1693 41.431 10.7094 41.2262 9.93451ZM40.4079 20.7772C40.152 19.8086 40.7189 18.8128 41.6744 18.5532C42.6299 18.2937 43.6121 18.8686 43.868 19.8374C44.1241 20.806 43.557 21.8017 42.6016 22.0612C41.6461 22.3208 40.6639 21.7459 40.4079 20.7772ZM46.6243 44.8917C46.3683 43.923 46.9354 42.9273 47.8908 42.6679C48.8463 42.4083 49.8284 42.9831 50.0845 43.9518C50.3404 44.9204 49.7735 45.9161 48.8179 46.1757C47.8625 46.4352 46.8804 45.8604 46.6243 44.8917ZM31.4777 44.2449C31.2217 43.2762 31.7888 42.2805 32.7443 42.0209C33.6998 41.7615 34.6819 42.3362 34.938 43.305C35.1939 44.2736 34.6269 45.2693 33.6714 45.5289C32.716 45.7884 31.7338 45.2136 31.4777 44.2449ZM27.483 29.1302C27.2269 28.1616 27.794 27.1659 28.7495 26.9064C29.7049 26.6468 30.6871 27.2217 30.9431 28.1903C31.1991 29.159 30.6321 30.1547 29.6766 30.4143C28.7211 30.6737 27.7389 30.099 27.483 29.1302ZM25.3114 51.9748C25.1066 51.1998 25.5602 50.4033 26.3245 50.1957C27.089 49.988 27.8746 50.4479 28.0795 51.2228C28.2843 51.9977 27.8306 52.7943 27.0663 53.002C26.3019 53.2096 25.5162 52.7497 25.3114 51.9748ZM18.2362 25.2069C18.0314 24.432 18.4851 23.6355 19.2495 23.4278C20.0139 23.2202 20.7995 23.68 21.0043 24.455C21.2092 25.2299 20.7555 26.0265 19.9912 26.2341C19.2268 26.4419 18.4411 25.9819 18.2362 25.2069Z" fill="white"/>
</mask>
<g mask="url(#mask0_3006_34261)">
<path d="M46.6242 44.8916L45.932 45.0796H45.9321L46.6242 44.8916ZM21.0041 24.455L21.6961 24.267V24.2669L21.0041 24.455ZM62.8115 27.134L63.5035 26.946C63.401 26.5585 63.6279 26.1603 64.0101 26.0564L63.8246 25.3549L63.6392 24.6533C62.4926 24.9648 61.8123 26.1595 62.1195 27.322L62.8115 27.134ZM63.8246 25.3549L64.0101 26.0564C64.3923 25.9527 64.7852 26.1826 64.8876 26.57L65.5796 26.382L66.2716 26.194C65.9644 25.0315 64.7857 24.3419 63.6392 24.6533L63.8246 25.3549ZM65.5796 26.382L64.8876 26.57C64.9899 26.9574 64.7631 27.3558 64.3809 27.4597L64.5664 28.1612L64.7518 28.8628C65.8984 28.5513 66.5788 27.3565 66.2716 26.194L65.5796 26.382ZM64.5664 28.1612L64.3809 27.4597C63.9988 27.5634 63.6059 27.3335 63.5035 26.946L62.8115 27.134L62.1195 27.322C62.4267 28.4843 63.6052 29.1742 64.7518 28.8628L64.5664 28.1612ZM52.254 30.3778L52.9461 30.1898C52.7925 29.6086 53.1326 29.0112 53.706 28.8555L53.5205 28.1538L53.3351 27.4523C51.9974 27.8157 51.2036 29.2096 51.562 30.5658L52.254 30.3778ZM53.5205 28.1538L53.706 28.8555C54.2793 28.6998 54.8685 29.0446 55.0221 29.6258L55.7141 29.4379L56.4062 29.2499C56.0477 27.8937 54.6727 27.0889 53.3351 27.4523L53.5205 28.1538ZM55.7141 29.4379L55.0221 29.6258C55.1757 30.207 54.8355 30.8044 54.2622 30.9601L54.4476 31.6617L54.6331 32.3634C55.9708 31.9999 56.7646 30.6059 56.4062 29.2499L55.7141 29.4379ZM54.4476 31.6617L54.2622 30.9601C53.6889 31.1159 53.0997 30.7709 52.9461 30.1898L52.254 30.3778L51.562 30.5658C51.9205 31.9218 53.2953 32.7267 54.6331 32.3634L54.4476 31.6617ZM53.0285 53.2882L53.7205 53.1002C53.6182 52.7129 53.8449 52.3145 54.2272 52.2108L54.0418 51.5091L53.8563 50.8076C52.7098 51.119 52.0292 52.3137 52.3365 53.4762L53.0285 53.2882ZM54.0418 51.5091L54.2272 52.2108C54.6094 52.1069 55.0022 52.3368 55.1047 52.7243L55.7967 52.5363L56.4887 52.3483C56.1815 51.1859 55.003 50.4961 53.8563 50.8076L54.0418 51.5091ZM55.7967 52.5363L55.1047 52.7243C55.207 53.1118 54.9802 53.5101 54.5981 53.6139L54.7835 54.3154L54.969 55.0171C56.1156 54.7055 56.7959 53.5107 56.4887 52.3483L55.7967 52.5363ZM54.7835 54.3154L54.5981 53.6139C54.2159 53.7177 53.823 53.4878 53.7205 53.1002L53.0285 53.2882L52.3365 53.4762C52.6437 54.6387 53.8223 55.3285 54.969 55.0171L54.7835 54.3154ZM41.2261 9.93445L41.9181 9.74647C41.8157 9.35899 42.0426 8.96065 42.4247 8.85683L42.2393 8.15525L42.0539 7.45367C40.9073 7.76514 40.2268 8.96002 40.534 10.1224L41.2261 9.93445ZM42.2393 8.15525L42.4247 8.85683C42.8068 8.75303 43.1997 8.983 43.3022 9.37049L43.9942 9.1825L44.6862 8.99453C44.379 7.83218 43.2005 7.14225 42.0539 7.45367L42.2393 8.15525ZM43.9942 9.1825L43.3022 9.37049C43.4045 9.75793 43.1778 10.1562 42.7955 10.26L42.9811 10.9616L43.1665 11.6632C44.313 11.3516 44.9934 10.1569 44.6862 8.99453L43.9942 9.1825ZM42.9811 10.9616L42.7956 10.26C42.4133 10.3638 42.0205 10.1339 41.9181 9.74647L41.2261 9.93445L40.534 10.1224C40.8413 11.2849 42.02 11.9746 43.1665 11.6632L42.9811 10.9616ZM40.4077 20.7772L41.0998 20.5892C40.9461 20.0079 41.2865 19.4105 41.8596 19.2548L41.6742 18.5531L41.4888 17.8516C40.151 18.215 39.3573 19.6091 39.7157 20.9652L40.4077 20.7772ZM41.6742 18.5531L41.8596 19.2548C42.4329 19.0991 43.0222 19.444 43.1758 20.0253L43.8679 19.8373L44.56 19.6493C44.2015 18.2932 42.8265 17.4883 41.4888 17.8516L41.6742 18.5531ZM43.8679 19.8373L43.1758 20.0253C43.3295 20.6066 42.9892 21.2038 42.4159 21.3596L42.6014 22.0611L42.7868 22.7628C44.1245 22.3993 44.9184 21.0054 44.56 19.6493L43.8679 19.8373ZM42.6014 22.0611L42.4159 21.3596C41.8427 21.5153 41.2534 21.1704 41.0998 20.5892L40.4077 20.7772L39.7157 20.9652C40.0742 22.3213 41.4491 23.1261 42.7868 22.7628L42.6014 22.0611ZM46.6242 44.8916L47.3162 44.7036C47.1625 44.1224 47.5028 43.5251 48.0761 43.3693L47.8906 42.6678L47.7052 41.9661C46.3674 42.3296 45.5736 43.7235 45.932 45.0796L46.6242 44.8916ZM47.8906 42.6678L48.0761 43.3693C48.6493 43.2136 49.2387 43.5586 49.3923 44.1397L50.0843 43.9517L50.7763 43.7637C50.4179 42.4075 49.0429 41.6028 47.7052 41.9661L47.8906 42.6678ZM50.0843 43.9517L49.3923 44.1397C49.5458 44.7209 49.2057 45.3183 48.6323 45.474L48.8177 46.1757L49.0032 46.8772C50.3409 46.5138 51.1347 45.1198 50.7763 43.7637L50.0843 43.9517ZM48.8177 46.1757L48.6324 45.474C48.059 45.6297 47.4698 45.2849 47.3162 44.7036L46.6242 44.8916L45.9321 45.0796C46.2905 46.4358 47.6655 47.2405 49.0032 46.8772L48.8177 46.1757ZM31.4775 44.2448L32.1696 44.0569C32.0159 43.4757 32.3562 42.8783 32.9296 42.7225L32.7441 42.0209L32.5587 41.3193C31.2211 41.6828 30.427 43.0766 30.7854 44.4328L31.4775 44.2448ZM32.7441 42.0209L32.9296 42.7225C33.5028 42.5668 34.0921 42.9117 34.2457 43.4929L34.9378 43.3049L35.6298 43.1169C35.2713 41.7607 33.8963 40.956 32.5587 41.3193L32.7441 42.0209ZM34.9378 43.3049L34.2457 43.4929C34.3993 44.0741 34.0591 44.6715 33.4858 44.8272L33.6712 45.5288L33.8567 46.2304C35.1943 45.867 35.9882 44.473 35.6298 43.1169L34.9378 43.3049ZM33.6712 45.5288L33.4858 44.8272C32.9125 44.9829 32.3232 44.6381 32.1696 44.0569L31.4775 44.2448L30.7854 44.4328C31.1439 45.7889 32.519 46.5937 33.8567 46.2304L33.6712 45.5288ZM27.4828 29.1302L28.1748 28.9423C28.0212 28.361 28.3615 27.7636 28.9347 27.6079L28.7493 26.9063L28.5638 26.2047C27.2261 26.5681 26.4323 27.9621 26.7907 29.3182L27.4828 29.1302ZM28.7493 26.9063L28.9347 27.6079C29.508 27.4522 30.0972 27.7971 30.2508 28.3783L30.943 28.1903L31.635 28.0023C31.2765 26.6462 29.9016 25.8413 28.5638 26.2047L28.7493 26.9063ZM30.943 28.1903L30.2508 28.3783C30.4044 28.9595 30.0643 29.5568 29.4909 29.7125L29.6764 30.4142L29.8618 31.1158C31.1995 30.7523 31.9934 29.3585 31.635 28.0023L30.943 28.1903ZM29.6764 30.4142L29.4909 29.7125C28.9177 29.8684 28.3284 29.5234 28.1748 28.9423L27.4828 29.1302L26.7907 29.3182C27.1492 30.6743 28.5242 31.4791 29.8618 31.1158L29.6764 30.4142ZM25.3112 51.9747L26.0032 51.7868C25.9009 51.3993 26.1276 51.0011 26.5098 50.8972L26.3243 50.1956L26.1389 49.4941C24.9923 49.8056 24.312 51.0003 24.6192 52.1626L25.3112 51.9747ZM26.3243 50.1956L26.5098 50.8972C26.892 50.7933 27.2849 51.0233 27.3873 51.4108L28.0793 51.2228L28.7713 51.0348C28.4641 49.8723 27.2854 49.1826 26.1389 49.4941L26.3243 50.1956ZM28.0793 51.2228L27.3873 51.4108C27.4897 51.7982 27.2628 52.1966 26.8806 52.3004L27.0661 53.002L27.2515 53.7035C28.3981 53.3921 29.0786 52.1972 28.7713 51.0348L28.0793 51.2228ZM27.0661 53.002L26.8806 52.3004C26.4985 52.4042 26.1056 52.1742 26.0032 51.7868L25.3112 51.9747L24.6192 52.1626C24.9264 53.325 26.1049 54.015 27.2515 53.7035L27.0661 53.002ZM18.236 25.2069L18.9281 25.0189C18.8257 24.6315 19.0525 24.2332 19.4347 24.1293L19.2493 23.4278L19.0639 22.7262C17.9174 23.0377 17.2367 24.2324 17.544 25.3949L18.236 25.2069ZM19.2493 23.4278L19.4347 24.1293C19.8168 24.0256 20.2097 24.2555 20.3121 24.643L21.0041 24.455L21.6961 24.2669C21.3889 23.1045 20.2104 22.4148 19.0639 22.7262L19.2493 23.4278ZM21.0041 24.455L20.3121 24.6429C20.4146 25.0304 20.1877 25.4287 19.8055 25.5325L19.991 26.2341L20.1764 26.9356C21.3231 26.6242 22.0033 25.4293 21.6961 24.267L21.0041 24.455ZM19.991 26.2341L19.8055 25.5325C19.4234 25.6364 19.0305 25.4063 18.9281 25.0189L18.236 25.2069L17.544 25.3949C17.8512 26.5573 19.0298 27.2472 20.1764 26.9356L19.991 26.2341Z" fill="white"/>
</g>
<path d="M89.8465 50.7026C87.2228 50.7026 84.9942 50.2219 83.1608 49.2605C81.3274 48.299 79.6836 46.889 78.2295 45.0302L81.928 41.2808C82.8447 42.6268 83.9353 43.6843 85.1997 44.4535C86.4641 45.1905 88.0762 45.559 90.0361 45.559C91.8696 45.559 93.3237 45.1745 94.3984 44.4053C95.5049 43.6363 96.058 42.5787 96.058 41.2327C96.058 40.1111 95.7735 39.1978 95.2045 38.4927C94.6356 37.7877 93.8769 37.2108 92.9286 36.7621C92.0118 36.2815 90.9844 35.8649 89.8465 35.5123C88.7401 35.1278 87.6179 34.7112 86.48 34.2625C85.3736 33.7818 84.3462 33.189 83.3978 32.484C82.4812 31.7789 81.7383 30.8656 81.1693 29.744C80.6004 28.6224 80.3158 27.1962 80.3158 25.4657C80.3158 23.4788 80.7899 21.7964 81.7383 20.4184C82.7182 19.0083 84.0301 17.9347 85.6739 17.1976C87.3176 16.4606 89.1511 16.092 91.1741 16.092C93.3553 16.092 95.2993 16.5247 97.0063 17.3899C98.7449 18.2552 100.152 19.3607 101.226 20.7068L97.5279 24.4562C96.5796 23.3666 95.5838 22.5654 94.5407 22.0527C93.5291 21.5079 92.3595 21.2355 91.0319 21.2355C89.3881 21.2355 88.0921 21.572 87.1437 22.245C86.227 22.918 85.7687 23.8633 85.7687 25.0811C85.7687 26.1067 86.0532 26.9398 86.6222 27.5808C87.1912 28.1896 87.934 28.7185 88.8507 29.1671C89.7991 29.5837 90.8265 29.9843 91.9328 30.3689C93.0708 30.7534 94.193 31.1861 95.2993 31.6668C96.4374 32.1474 97.4647 32.7723 98.3814 33.5415C99.3297 34.2786 100.088 35.24 100.657 36.4257C101.226 37.6114 101.511 39.1016 101.511 40.8962C101.511 43.9086 100.452 46.2961 98.334 48.0587C96.2477 49.8213 93.4185 50.7026 89.8465 50.7026ZM115.49 50.7026C113.245 50.7026 111.206 50.1738 109.372 49.1162C107.571 48.0587 106.148 46.6166 105.105 44.7899C104.062 42.9632 103.541 40.9283 103.541 38.685C103.541 36.4097 104.062 34.3747 105.105 32.5801C106.148 30.7534 107.571 29.3113 109.372 28.2537C111.206 27.1962 113.245 26.6675 115.49 26.6675C117.259 26.6675 118.903 27.02 120.421 27.725C121.97 28.398 123.282 29.3754 124.356 30.6573L120.942 34.1664C120.278 33.3653 119.472 32.7723 118.524 32.3878C117.607 31.9712 116.595 31.7629 115.49 31.7629C114.193 31.7629 113.04 32.0673 112.028 32.6763C111.048 33.253 110.274 34.0543 109.705 35.0797C109.167 36.1052 108.899 37.307 108.899 38.685C108.899 40.0309 109.167 41.2327 109.705 42.2902C110.274 43.3158 111.048 44.133 112.028 44.7418C113.04 45.3187 114.193 45.6071 115.49 45.6071C116.595 45.6071 117.607 45.4148 118.524 45.0302C119.472 44.6137 120.278 44.0048 120.942 43.2036L124.356 46.7128C123.282 47.9946 121.97 48.988 120.421 49.6931C118.903 50.366 117.259 50.7026 115.49 50.7026ZM127.216 50.2219V27.1481H132.431V50.2219H127.216ZM129.824 22.918C128.939 22.918 128.196 22.6135 127.595 22.0046C127.026 21.3958 126.742 20.6427 126.742 19.7453C126.742 18.8481 127.026 18.095 127.595 17.486C128.196 16.8771 128.939 16.5727 129.824 16.5727C130.74 16.5727 131.483 16.8771 132.052 17.486C132.621 18.095 132.906 18.8481 132.906 19.7453C132.906 20.6427 132.621 21.3958 132.052 22.0046C131.483 22.6135 130.74 22.918 129.824 22.918ZM152.933 50.2219V36.9064C152.933 35.3682 152.443 34.1023 151.463 33.1089C150.515 32.1154 149.282 31.6187 147.765 31.6187C146.753 31.6187 145.852 31.843 145.062 32.2917C144.271 32.7403 143.656 33.3653 143.212 34.1664C142.77 34.9676 142.549 35.881 142.549 36.9064L140.511 35.7528C140.511 33.9902 140.89 32.4359 141.648 31.0899C142.406 29.7119 143.45 28.6383 144.778 27.8693C146.137 27.068 147.654 26.6675 149.33 26.6675C151.036 26.6675 152.554 27.1162 153.881 28.0134C155.209 28.8786 156.252 30.0163 157.011 31.4264C157.769 32.8044 158.149 34.2466 158.149 35.7528V50.2219H152.933ZM137.333 50.2219V27.1481H142.549V50.2219H137.333ZM172.933 50.7026C170.72 50.7026 168.712 50.1738 166.91 49.1162C165.109 48.0267 163.671 46.5685 162.595 44.7418C161.552 42.9152 161.031 40.8802 161.031 38.637C161.031 36.3936 161.552 34.3747 162.595 32.5801C163.671 30.7855 165.109 29.3594 166.91 28.3019C168.712 27.2122 170.72 26.6675 172.933 26.6675C175.176 26.6675 177.2 27.1962 179.001 28.2537C180.804 29.3113 182.226 30.7534 183.27 32.5801C184.344 34.3747 184.882 36.3936 184.882 38.637C184.882 40.8802 184.344 42.9152 183.27 44.7418C182.226 46.5685 180.804 48.0267 179.001 49.1162C177.2 50.1738 175.176 50.7026 172.933 50.7026ZM172.933 45.6071C174.229 45.6071 175.366 45.3187 176.346 44.7418C177.358 44.133 178.132 43.2997 178.67 42.2422C179.239 41.1847 179.523 39.9829 179.523 38.637C179.523 37.291 179.239 36.1052 178.67 35.0797C178.101 34.0543 177.326 33.253 176.346 32.6763C175.366 32.0673 174.229 31.7629 172.933 31.7629C171.668 31.7629 170.53 32.0673 169.518 32.6763C168.539 33.253 167.764 34.0543 167.195 35.0797C166.658 36.1052 166.389 37.291 166.389 38.637C166.389 39.9829 166.658 41.1847 167.195 42.2422C167.764 43.2997 168.539 44.133 169.518 44.7418C170.53 45.3187 171.668 45.6071 172.933 45.6071ZM197.801 50.7026C195.746 50.7026 193.881 50.1738 192.206 49.1162C190.562 48.0587 189.25 46.6326 188.27 44.8379C187.322 43.0114 186.848 40.9763 186.848 38.7331C186.848 36.4577 187.322 34.4228 188.27 32.6282C189.25 30.8015 190.562 29.3594 192.206 28.3019C193.881 27.2122 195.746 26.6675 197.801 26.6675C199.54 26.6675 201.073 27.0521 202.4 27.8211C203.759 28.5583 204.835 29.5837 205.625 30.8976C206.416 32.2115 206.81 33.7017 206.81 35.3682V42.0019C206.81 43.6683 206.416 45.1584 205.625 46.4723C204.866 47.7863 203.807 48.8278 202.448 49.597C201.089 50.334 199.54 50.7026 197.801 50.7026ZM198.655 45.7033C199.951 45.7033 201.073 45.4148 202.021 44.8379C203.001 44.2291 203.759 43.3959 204.297 42.3383C204.835 41.2808 205.103 40.063 205.103 38.685C205.103 37.307 204.835 36.0892 204.297 35.0317C203.759 33.9741 203.001 33.1569 202.021 32.5801C201.073 31.9712 199.951 31.6668 198.655 31.6668C197.39 31.6668 196.268 31.9712 195.288 32.5801C194.34 33.1569 193.581 33.9741 193.012 35.0317C192.474 36.0892 192.206 37.307 192.206 38.685C192.206 40.063 192.474 41.2808 193.012 42.3383C193.581 43.3959 194.34 44.2291 195.288 44.8379C196.268 45.4148 197.39 45.7033 198.655 45.7033ZM209.987 50.2219H204.771V44.0208L205.672 38.3965L204.771 32.8204V15.6113H209.987V50.2219ZM225.401 50.7026C223.125 50.7026 221.07 50.1898 219.237 49.1643C217.436 48.1067 215.997 46.6646 214.922 44.8379C213.879 43.0114 213.357 40.9603 213.357 38.685C213.357 36.4097 213.879 34.3747 214.922 32.5801C215.966 30.7534 217.371 29.3113 219.142 28.2537C220.943 27.1962 222.936 26.6675 225.116 26.6675C227.235 26.6675 229.1 27.1642 230.712 28.1576C232.356 29.1511 233.635 30.513 234.552 32.2436C235.501 33.9741 235.975 35.945 235.975 38.1562C235.975 38.5408 235.943 38.9414 235.88 39.358C235.848 39.7426 235.785 40.1752 235.691 40.6559H217.009V36.3295H232.988L231.043 38.0601C230.98 36.65 230.712 35.4643 230.237 34.5028C229.764 33.5415 229.084 32.8044 228.198 32.2917C227.345 31.7789 226.286 31.5225 225.022 31.5225C223.694 31.5225 222.54 31.811 221.56 32.3878C220.581 32.9646 219.821 33.7818 219.285 34.8394C218.747 35.8649 218.478 37.0987 218.478 38.5408C218.478 39.9829 218.763 41.2488 219.331 42.3383C219.901 43.4279 220.707 44.2771 221.749 44.8861C222.793 45.4628 223.994 45.7513 225.354 45.7513C226.523 45.7513 227.598 45.543 228.578 45.1264C229.59 44.7098 230.443 44.1009 231.139 43.2997L234.458 46.7128C233.351 48.0267 232.008 49.0201 230.427 49.6931C228.847 50.366 227.172 50.7026 225.401 50.7026Z" fill="url(#paint2_linear_3006_34261)"/>
<path d="M249.001 50.7443L249.001 29.6338" stroke="#0C4547" stroke-width="1.44235"/>
<path d="M195.906 61.5788C195.616 61.5788 195.352 61.5196 195.115 61.4011C194.883 61.2772 194.697 61.1075 194.557 60.892C194.417 60.6766 194.339 60.4315 194.323 60.1568V59.0013C194.339 58.7212 194.417 58.4761 194.557 58.266C194.703 58.0506 194.891 57.8836 195.123 57.7651C195.36 57.6412 195.621 57.5792 195.906 57.5792C196.257 57.5792 196.572 57.6681 196.852 57.8459C197.137 58.0236 197.361 58.2633 197.522 58.565C197.684 58.8666 197.765 59.206 197.765 59.5831C197.765 59.9601 197.684 60.2995 197.522 60.6012C197.361 60.9028 197.137 61.1425 196.852 61.3203C196.572 61.4927 196.257 61.5788 195.906 61.5788ZM193.886 61.498V55.7289H194.614V58.5973L194.476 59.5265L194.614 60.4638V61.498H193.886ZM195.785 60.892C196.028 60.892 196.24 60.8355 196.424 60.7224C196.607 60.6092 196.752 60.4557 196.86 60.2618C196.968 60.0625 197.022 59.8336 197.022 59.575C197.022 59.3218 196.968 59.0956 196.86 58.8963C196.752 58.697 196.607 58.5434 196.424 58.4357C196.24 58.3226 196.03 58.266 195.793 58.266C195.551 58.266 195.338 58.3226 195.155 58.4357C194.972 58.5434 194.829 58.697 194.727 58.8963C194.624 59.0956 194.573 59.3245 194.573 59.5831C194.573 59.8362 194.622 60.0625 194.719 60.2618C194.821 60.4557 194.964 60.6092 195.147 60.7224C195.335 60.8355 195.548 60.892 195.785 60.892ZM199.7 61.5304L198.035 57.66H198.843L200.08 60.69H199.821L201.122 57.66H201.93L200.136 61.5304H199.7ZM198.601 63.106L199.732 60.787L200.136 61.5304L199.409 63.106H198.601ZM205.959 61.5788C205.518 61.5788 205.141 61.498 204.828 61.3364C204.516 61.1748 204.238 60.9405 203.996 60.6335L204.513 60.1164C204.691 60.3641 204.895 60.5527 205.127 60.682C205.359 60.8059 205.644 60.8678 205.984 60.8678C206.318 60.8678 206.584 60.7951 206.784 60.6496C206.988 60.5042 207.091 60.3049 207.091 60.0517C207.091 59.8416 207.042 59.672 206.945 59.5427C206.848 59.4134 206.716 59.3083 206.549 59.2275C206.388 59.1414 206.21 59.0659 206.016 59.0013C205.822 58.9313 205.628 58.8586 205.434 58.7831C205.24 58.7023 205.062 58.6054 204.901 58.4923C204.739 58.3738 204.607 58.2202 204.505 58.0317C204.408 57.8432 204.359 57.6061 204.359 57.3207C204.359 57.0028 204.435 56.7335 204.586 56.5126C204.742 56.2864 204.952 56.114 205.216 55.9955C205.485 55.8716 205.787 55.8097 206.121 55.8097C206.487 55.8097 206.816 55.8824 207.107 56.0278C207.398 56.1679 207.635 56.3537 207.818 56.5854L207.301 57.1025C207.134 56.9086 206.953 56.7631 206.759 56.6662C206.571 56.5692 206.353 56.5207 206.105 56.5207C205.803 56.5207 205.563 56.5881 205.386 56.7227C205.208 56.852 205.119 57.0352 205.119 57.2722C205.119 57.4607 205.168 57.6142 205.264 57.7327C205.367 57.8459 205.499 57.9428 205.66 58.0236C205.822 58.1044 206 58.1798 206.194 58.2499C206.393 58.3145 206.59 58.3872 206.784 58.468C206.977 58.5488 207.155 58.6512 207.317 58.7751C207.478 58.899 207.608 59.0606 207.705 59.2599C207.807 59.4538 207.858 59.6989 207.858 59.9952C207.858 60.4907 207.686 60.8786 207.341 61.1587C207.002 61.4388 206.541 61.5788 205.959 61.5788ZM210.451 61.5788C210.074 61.5788 209.732 61.49 209.424 61.3122C209.123 61.1344 208.883 60.8947 208.705 60.5931C208.533 60.286 208.447 59.9467 208.447 59.575C208.447 59.1979 208.533 58.8586 208.705 58.5569C208.883 58.2552 209.123 58.0182 209.424 57.8459C209.732 57.6681 210.074 57.5792 210.451 57.5792C210.747 57.5792 211.022 57.6358 211.275 57.7489C211.528 57.8566 211.746 58.0155 211.929 58.2256L211.445 58.7104C211.326 58.5704 211.181 58.4653 211.008 58.3953C210.841 58.3199 210.655 58.2822 210.451 58.2822C210.208 58.2822 209.993 58.3387 209.804 58.4519C209.616 58.5596 209.468 58.7104 209.36 58.9043C209.252 59.0983 209.198 59.3218 209.198 59.575C209.198 59.8282 209.252 60.0517 209.36 60.2456C209.468 60.4396 209.616 60.5931 209.804 60.7062C209.993 60.8193 210.208 60.8759 210.451 60.8759C210.655 60.8759 210.841 60.8409 211.008 60.7708C211.181 60.6954 211.329 60.5877 211.453 60.4476L211.929 60.9324C211.752 61.1371 211.533 61.296 211.275 61.4092C211.022 61.5223 210.747 61.5788 210.451 61.5788ZM212.659 61.498V57.66H213.386V61.498H212.659ZM213.022 56.8924C212.888 56.8924 212.777 56.8493 212.691 56.7631C212.605 56.6716 212.562 56.5584 212.562 56.4238C212.562 56.2945 212.605 56.1867 212.691 56.1006C212.777 56.009 212.888 55.9632 213.022 55.9632C213.157 55.9632 213.267 56.009 213.353 56.1006C213.44 56.1867 213.483 56.2945 213.483 56.4238C213.483 56.5584 213.44 56.6716 213.353 56.7631C213.267 56.8493 213.157 56.8924 213.022 56.8924ZM214.457 61.498V57.66H215.185V61.498H214.457ZM217.051 61.498V59.1791C217.051 58.8936 216.962 58.67 216.785 58.5084C216.612 58.3414 216.394 58.2579 216.13 58.2579C215.952 58.2579 215.793 58.2956 215.653 58.3711C215.513 58.4465 215.4 58.5515 215.314 58.6862C215.228 58.8209 215.185 58.9825 215.185 59.171L214.886 59.0255C214.886 58.7347 214.948 58.4815 215.072 58.266C215.201 58.0506 215.376 57.8836 215.597 57.7651C215.818 57.6412 216.065 57.5792 216.34 57.5792C216.609 57.5792 216.852 57.6385 217.067 57.757C217.288 57.8755 217.461 58.0425 217.584 58.2579C217.714 58.4734 217.778 58.7293 217.778 59.0255V61.498H217.051ZM219.645 61.498V59.1791C219.645 58.8936 219.556 58.67 219.378 58.5084C219.206 58.3414 218.99 58.2579 218.732 58.2579C218.554 58.2579 218.392 58.2956 218.247 58.3711C218.107 58.4465 217.994 58.5515 217.908 58.6862C217.821 58.8209 217.778 58.9825 217.778 59.171L217.366 59.0255C217.382 58.7293 217.461 58.4761 217.601 58.266C217.746 58.0506 217.932 57.8836 218.158 57.7651C218.384 57.6412 218.632 57.5792 218.902 57.5792C219.182 57.5792 219.432 57.6385 219.653 57.757C219.874 57.8755 220.049 58.0425 220.178 58.2579C220.313 58.4734 220.38 58.732 220.38 59.0336V61.498H219.645ZM223.39 61.5788C223.099 61.5788 222.835 61.5196 222.598 61.4011C222.366 61.2772 222.18 61.1075 222.04 60.892C221.9 60.6766 221.822 60.4315 221.806 60.1568V59.0013C221.822 58.7212 221.9 58.4761 222.04 58.266C222.186 58.0506 222.374 57.8836 222.606 57.7651C222.843 57.6412 223.104 57.5792 223.39 57.5792C223.74 57.5792 224.055 57.6681 224.335 57.8459C224.621 58.0236 224.844 58.2633 225.006 58.565C225.167 58.8666 225.248 59.206 225.248 59.5831C225.248 59.9601 225.167 60.2995 225.006 60.6012C224.844 60.9028 224.621 61.1425 224.335 61.3203C224.055 61.4927 223.74 61.5788 223.39 61.5788ZM221.37 63.106V57.66H222.097V58.67L221.96 59.5992L222.097 60.5365V63.106H221.37ZM223.269 60.892C223.511 60.892 223.724 60.8355 223.907 60.7224C224.09 60.6092 224.235 60.4557 224.343 60.2618C224.451 60.0625 224.505 59.8336 224.505 59.575C224.505 59.3218 224.451 59.0956 224.343 58.8963C224.235 58.697 224.09 58.5434 223.907 58.4357C223.724 58.3226 223.514 58.266 223.277 58.266C223.034 58.266 222.821 58.3226 222.638 58.4357C222.455 58.5434 222.312 58.697 222.21 58.8963C222.108 59.0956 222.057 59.3245 222.057 59.5831C222.057 59.8362 222.105 60.0625 222.202 60.2618C222.304 60.4557 222.447 60.6092 222.63 60.7224C222.819 60.8355 223.032 60.892 223.269 60.892ZM226.073 61.498V55.7289H226.8V61.498H226.073ZM227.872 61.498V57.66H228.599V61.498H227.872ZM228.235 56.8924C228.101 56.8924 227.99 56.8493 227.904 56.7631C227.818 56.6716 227.775 56.5584 227.775 56.4238C227.775 56.2945 227.818 56.1867 227.904 56.1006C227.99 56.009 228.101 55.9632 228.235 55.9632C228.37 55.9632 228.481 56.009 228.567 56.1006C228.653 56.1867 228.696 56.2945 228.696 56.4238C228.696 56.5584 228.653 56.6716 228.567 56.7631C228.481 56.8493 228.37 56.8924 228.235 56.8924ZM230.22 61.498V57.0863C230.22 56.8008 230.282 56.553 230.406 56.343C230.53 56.1275 230.7 55.9578 230.915 55.8339C231.136 55.71 231.392 55.6481 231.683 55.6481C231.904 55.6481 232.095 55.6858 232.256 55.7612C232.418 55.8366 232.566 55.947 232.701 56.0925L232.224 56.5611C232.154 56.4857 232.076 56.4292 231.99 56.3914C231.904 56.3484 231.798 56.3268 231.675 56.3268C231.443 56.3268 231.263 56.3941 231.133 56.5288C231.009 56.6635 230.947 56.8493 230.947 57.0863V61.498H230.22ZM229.275 58.3226V57.66H232.167V58.3226H229.275ZM234.032 61.5304L232.368 57.66H233.176L234.412 60.69H234.153L235.454 57.66H236.262L234.469 61.5304H234.032ZM232.933 63.106L234.065 60.787L234.469 61.5304L233.741 63.106H232.933Z" fill="url(#paint3_linear_3006_34261)"/>
<path d="M263.007 50.5215V34.5949C263.007 33.5643 263.23 32.6697 263.678 31.9113C264.125 31.1335 264.738 30.5209 265.515 30.0737C266.313 29.6264 267.236 29.4028 268.287 29.4028C269.084 29.4028 269.774 29.5389 270.358 29.8111C270.941 30.0834 271.476 30.482 271.962 31.0071L270.241 32.6989C269.988 32.4267 269.706 32.2225 269.395 32.0864C269.084 31.9308 268.705 31.853 268.257 31.853C267.421 31.853 266.77 32.0961 266.303 32.5822C265.856 33.0684 265.632 33.7393 265.632 34.5949V50.5215H263.007ZM259.594 39.0579V36.666H270.037V39.0579H259.594ZM278.206 50.8132C276.845 50.8132 275.62 50.4923 274.531 49.8506C273.442 49.2089 272.577 48.3435 271.935 47.2545C271.293 46.1461 270.972 44.9112 270.972 43.55C270.972 42.2082 271.293 41.0025 271.935 39.933C272.577 38.844 273.442 37.9786 274.531 37.3369C275.62 36.6951 276.845 36.3743 278.206 36.3743C279.548 36.3743 280.763 36.6951 281.852 37.3369C282.961 37.9591 283.836 38.8148 284.478 39.9038C285.119 40.9928 285.44 42.2082 285.44 43.55C285.44 44.9112 285.119 46.1461 284.478 47.2545C283.836 48.3435 282.961 49.2089 281.852 49.8506C280.763 50.4923 279.548 50.8132 278.206 50.8132ZM278.206 48.2754C279.081 48.2754 279.859 48.0712 280.54 47.6629C281.22 47.2545 281.755 46.7003 282.144 46.0002C282.533 45.2807 282.728 44.4639 282.728 43.55C282.728 42.6554 282.523 41.8581 282.115 41.1581C281.726 40.458 281.191 39.9135 280.511 39.5246C279.849 39.1162 279.081 38.912 278.206 38.912C277.331 38.912 276.553 39.1162 275.873 39.5246C275.192 39.9135 274.657 40.458 274.268 41.1581C273.879 41.8581 273.685 42.6554 273.685 43.55C273.685 44.4639 273.879 45.2807 274.268 46.0002C274.657 46.7003 275.192 47.2545 275.873 47.6629C276.553 48.0712 277.331 48.2754 278.206 48.2754ZM288.398 50.5215V36.666H291.023V50.5215H288.398ZM291.023 42.6165L290.032 42.179C290.032 40.4094 290.44 38.9995 291.257 37.9494C292.074 36.8993 293.25 36.3743 294.786 36.3743C295.486 36.3743 296.118 36.5007 296.682 36.7535C297.246 36.9868 297.771 37.3855 298.258 37.9494L296.537 39.7288C296.245 39.4176 295.924 39.194 295.574 39.0579C295.224 38.9217 294.816 38.8537 294.349 38.8537C293.376 38.8537 292.579 39.1648 291.957 39.7871C291.335 40.4094 291.023 41.3525 291.023 42.6165ZM308.991 41.7123V39.4079H314.474C315.661 39.4079 316.575 39.1065 317.216 38.5036C317.858 37.9008 318.179 37.0841 318.179 36.0534C318.179 35.0811 317.858 34.2741 317.216 33.6323C316.594 32.9906 315.69 32.6697 314.504 32.6697H308.991V30.2778H314.591C315.875 30.2778 316.993 30.5306 317.946 31.0362C318.898 31.5224 319.628 32.1933 320.133 33.0489C320.658 33.9046 320.921 34.8866 320.921 35.9951C320.921 37.1424 320.658 38.1439 320.133 38.9995C319.628 39.8552 318.898 40.5261 317.946 41.0122C316.993 41.4789 315.875 41.7123 314.591 41.7123H308.991ZM307.153 50.5215V30.2778H309.895V50.5215H307.153ZM318.821 50.5215L311.47 41.4498L314.066 40.5455L322.292 50.5215H318.821ZM330.622 50.8132C329.242 50.8132 327.997 50.502 326.889 49.8798C325.78 49.238 324.905 48.3727 324.263 47.2837C323.622 46.1947 323.301 44.9598 323.301 43.5791C323.301 42.2179 323.612 40.9928 324.234 39.9038C324.876 38.8148 325.731 37.9591 326.801 37.3369C327.89 36.6951 329.105 36.3743 330.447 36.3743C331.731 36.3743 332.859 36.666 333.831 37.2494C334.823 37.8327 335.591 38.6398 336.135 39.6704C336.699 40.7011 336.981 41.8679 336.981 43.1708C336.981 43.3652 336.971 43.5791 336.952 43.8125C336.933 44.0264 336.894 44.2792 336.835 44.5709H325.138V42.3832H335.435L334.473 43.2291C334.473 42.2957 334.307 41.5081 333.977 40.8664C333.646 40.2052 333.179 39.6996 332.577 39.3496C331.974 38.9801 331.245 38.7953 330.389 38.7953C329.494 38.7953 328.707 38.9898 328.026 39.3787C327.346 39.7677 326.82 40.3122 326.451 41.0122C326.082 41.7123 325.897 42.5388 325.897 43.4916C325.897 44.4639 326.091 45.3196 326.48 46.0585C326.869 46.7781 327.423 47.342 328.143 47.7504C328.862 48.1393 329.689 48.3338 330.622 48.3338C331.4 48.3338 332.11 48.1976 332.752 47.9254C333.413 47.6531 333.977 47.2448 334.443 46.7003L336.135 48.4213C335.474 49.1991 334.657 49.7922 333.685 50.2006C332.732 50.609 331.711 50.8132 330.622 50.8132ZM344.248 50.8132C343.47 50.8132 342.731 50.7159 342.031 50.5215C341.351 50.3076 340.719 50.0159 340.135 49.6464C339.552 49.2575 339.046 48.8005 338.619 48.2754L340.31 46.5836C340.816 47.2059 341.399 47.6726 342.061 47.9837C342.722 48.2754 343.461 48.4213 344.277 48.4213C345.094 48.4213 345.726 48.2852 346.173 48.0129C346.621 47.7212 346.844 47.3226 346.844 46.817C346.844 46.3114 346.66 45.9224 346.29 45.6502C345.94 45.3585 345.483 45.1251 344.919 44.9501C344.355 44.7556 343.752 44.5709 343.111 44.3959C342.488 44.2014 341.895 43.9583 341.331 43.6666C340.767 43.375 340.301 42.9763 339.931 42.4707C339.581 41.9651 339.406 41.2942 339.406 40.458C339.406 39.6218 339.61 38.9023 340.019 38.2995C340.427 37.6772 340.991 37.2007 341.711 36.8702C342.449 36.5396 343.334 36.3743 344.365 36.3743C345.454 36.3743 346.417 36.5687 347.253 36.9577C348.108 37.3271 348.808 37.8911 349.353 38.6495L347.661 40.3413C347.272 39.8357 346.786 39.4468 346.203 39.1745C345.639 38.9023 344.997 38.7662 344.277 38.7662C343.519 38.7662 342.936 38.9023 342.527 39.1745C342.138 39.4273 341.944 39.7871 341.944 40.2538C341.944 40.7205 342.119 41.0803 342.469 41.3331C342.819 41.5859 343.276 41.7998 343.84 41.9748C344.423 42.1498 345.026 42.3346 345.648 42.529C346.271 42.7041 346.864 42.9471 347.428 43.2583C347.992 43.5694 348.449 43.9875 348.799 44.5126C349.168 45.0376 349.353 45.728 349.353 46.5836C349.353 47.8865 348.886 48.9172 347.953 49.6756C347.039 50.434 345.804 50.8132 344.248 50.8132ZM358.709 50.8132C357.329 50.8132 356.084 50.502 354.976 49.8798C353.867 49.238 352.992 48.3727 352.35 47.2837C351.709 46.1947 351.388 44.9598 351.388 43.5791C351.388 42.2179 351.699 40.9928 352.321 39.9038C352.963 38.8148 353.819 37.9591 354.888 37.3369C355.977 36.6951 357.192 36.3743 358.534 36.3743C359.818 36.3743 360.946 36.666 361.918 37.2494C362.91 37.8327 363.678 38.6398 364.222 39.6704C364.786 40.7011 365.068 41.8679 365.068 43.1708C365.068 43.3652 365.059 43.5791 365.039 43.8125C365.02 44.0264 364.981 44.2792 364.922 44.5709H353.225V42.3832H363.522L362.56 43.2291C362.56 42.2957 362.394 41.5081 362.064 40.8664C361.733 40.2052 361.266 39.6996 360.664 39.3496C360.061 38.9801 359.332 38.7953 358.476 38.7953C357.581 38.7953 356.794 38.9898 356.113 39.3787C355.433 39.7677 354.908 40.3122 354.538 41.0122C354.169 41.7123 353.984 42.5388 353.984 43.4916C353.984 44.4639 354.178 45.3196 354.567 46.0585C354.956 46.7781 355.51 47.342 356.23 47.7504C356.949 48.1393 357.776 48.3338 358.709 48.3338C359.487 48.3338 360.197 48.1976 360.839 47.9254C361.5 47.6531 362.064 47.2448 362.531 46.7003L364.222 48.4213C363.561 49.1991 362.744 49.7922 361.772 50.2006C360.819 50.609 359.798 50.8132 358.709 50.8132ZM373.823 50.8132C372.559 50.8132 371.412 50.502 370.381 49.8798C369.35 49.238 368.534 48.3727 367.931 47.2837C367.347 46.1947 367.056 44.9696 367.056 43.6083C367.056 42.2471 367.347 41.0219 367.931 39.933C368.534 38.844 369.341 37.9786 370.352 37.3369C371.382 36.6951 372.54 36.3743 373.823 36.3743C374.873 36.3743 375.807 36.5979 376.623 37.0452C377.459 37.473 378.13 38.0758 378.636 38.8537C379.142 39.6121 379.424 40.4969 379.482 41.5081V45.6793C379.424 46.6711 379.142 47.5559 378.636 48.3338C378.15 49.1116 377.489 49.7242 376.652 50.1715C375.836 50.5993 374.893 50.8132 373.823 50.8132ZM374.261 48.3338C375.563 48.3338 376.614 47.8962 377.411 47.0211C378.208 46.1266 378.607 44.989 378.607 43.6083C378.607 42.6554 378.422 41.829 378.053 41.1289C377.703 40.4094 377.197 39.8552 376.536 39.4662C375.875 39.0579 375.106 38.8537 374.231 38.8537C373.356 38.8537 372.578 39.0579 371.898 39.4662C371.237 39.8746 370.712 40.4386 370.323 41.1581C369.953 41.8581 369.768 42.6652 369.768 43.5791C369.768 44.5126 369.953 45.339 370.323 46.0585C370.712 46.7586 371.246 47.3128 371.927 47.7212C372.608 48.1296 373.385 48.3338 374.261 48.3338ZM378.432 50.5215V46.7878L378.928 43.4041L378.432 40.0496V36.666H381.086V50.5215H378.432ZM384.908 50.5215V36.666H387.534V50.5215H384.908ZM387.534 42.6165L386.542 42.179C386.542 40.4094 386.95 38.9995 387.767 37.9494C388.584 36.8993 389.76 36.3743 391.296 36.3743C391.996 36.3743 392.628 36.5007 393.192 36.7535C393.756 36.9868 394.281 37.3855 394.768 37.9494L393.047 39.7288C392.755 39.4176 392.434 39.194 392.084 39.0579C391.734 38.9217 391.326 38.8537 390.859 38.8537C389.887 38.8537 389.089 39.1648 388.467 39.7871C387.845 40.4094 387.534 41.3525 387.534 42.6165ZM402.49 50.8132C401.129 50.8132 399.894 50.4923 398.785 49.8506C397.696 49.2089 396.831 48.3435 396.189 47.2545C395.567 46.1461 395.256 44.9209 395.256 43.5791C395.256 42.2179 395.567 40.9928 396.189 39.9038C396.831 38.8148 397.696 37.9591 398.785 37.3369C399.894 36.6951 401.129 36.3743 402.49 36.3743C403.56 36.3743 404.551 36.5785 405.465 36.9868C406.379 37.3758 407.167 37.9494 407.828 38.7078L406.078 40.458C405.65 39.9524 405.125 39.5732 404.503 39.3204C403.9 39.0481 403.229 38.912 402.49 38.912C401.615 38.912 400.837 39.1162 400.156 39.5246C399.476 39.9135 398.941 40.458 398.552 41.1581C398.163 41.8581 397.969 42.6652 397.969 43.5791C397.969 44.4931 398.163 45.3001 398.552 46.0002C398.941 46.7003 399.476 47.2545 400.156 47.6629C400.837 48.0712 401.615 48.2754 402.49 48.2754C403.229 48.2754 403.9 48.149 404.503 47.8962C405.125 47.624 405.66 47.2351 406.107 46.7294L407.828 48.4796C407.186 49.2186 406.399 49.7922 405.465 50.2006C404.551 50.609 403.56 50.8132 402.49 50.8132ZM420.233 50.5215V42.4415C420.233 41.3914 419.902 40.5261 419.241 39.8454C418.58 39.1648 417.724 38.8245 416.674 38.8245C415.974 38.8245 415.352 38.9801 414.807 39.2912C414.263 39.6024 413.835 40.0302 413.524 40.5747C413.212 41.1192 413.057 41.7415 413.057 42.4415L411.978 41.829C411.978 40.7789 412.211 39.8454 412.678 39.0287C413.144 38.2119 413.796 37.5702 414.632 37.1035C415.468 36.6174 416.411 36.3743 417.461 36.3743C418.512 36.3743 419.435 36.6076 420.233 37.0743C421.049 37.5411 421.691 38.1925 422.158 39.0287C422.624 39.8649 422.858 40.8275 422.858 41.9165V50.5215H420.233ZM410.432 50.5215V29.6945H413.057V50.5215H410.432ZM432.829 50.8132C431.449 50.8132 430.204 50.502 429.096 49.8798C427.987 49.238 427.112 48.3727 426.471 47.2837C425.829 46.1947 425.508 44.9598 425.508 43.5791C425.508 42.2179 425.819 40.9928 426.441 39.9038C427.083 38.8148 427.939 37.9591 429.008 37.3369C430.097 36.6951 431.313 36.3743 432.654 36.3743C433.938 36.3743 435.066 36.666 436.038 37.2494C437.03 37.8327 437.798 38.6398 438.343 39.6704C438.906 40.7011 439.188 41.8679 439.188 43.1708C439.188 43.3652 439.179 43.5791 439.159 43.8125C439.14 44.0264 439.101 44.2792 439.043 44.5709H427.346V42.3832H437.642L436.68 43.2291C436.68 42.2957 436.515 41.5081 436.184 40.8664C435.853 40.2052 435.387 39.6996 434.784 39.3496C434.181 38.9801 433.452 38.7953 432.596 38.7953C431.702 38.7953 430.914 38.9898 430.233 39.3787C429.553 39.7677 429.028 40.3122 428.658 41.0122C428.289 41.7123 428.104 42.5388 428.104 43.4916C428.104 44.4639 428.298 45.3196 428.687 46.0585C429.076 46.7781 429.631 47.342 430.35 47.7504C431.07 48.1393 431.896 48.3338 432.829 48.3338C433.607 48.3338 434.317 48.1976 434.959 47.9254C435.62 47.6531 436.184 47.2448 436.651 46.7003L438.343 48.4213C437.681 49.1991 436.865 49.7922 435.892 50.2006C434.939 50.609 433.918 50.8132 432.829 50.8132ZM442.051 50.5215V36.666H444.676V50.5215H442.051ZM444.676 42.6165L443.684 42.179C443.684 40.4094 444.093 38.9995 444.91 37.9494C445.726 36.8993 446.903 36.3743 448.439 36.3743C449.139 36.3743 449.771 36.5007 450.335 36.7535C450.899 36.9868 451.424 37.3855 451.91 37.9494L450.189 39.7288C449.898 39.4176 449.577 39.194 449.227 39.0579C448.877 38.9217 448.468 38.8537 448.002 38.8537C447.029 38.8537 446.232 39.1648 445.61 39.7871C444.987 40.4094 444.676 41.3525 444.676 42.6165ZM457.85 50.8132C457.072 50.8132 456.333 50.7159 455.633 50.5215C454.952 50.3076 454.32 50.0159 453.737 49.6464C453.154 49.2575 452.648 48.8005 452.22 48.2754L453.912 46.5836C454.418 47.2059 455.001 47.6726 455.662 47.9837C456.323 48.2754 457.062 48.4213 457.879 48.4213C458.696 48.4213 459.328 48.2852 459.775 48.0129C460.222 47.7212 460.446 47.3226 460.446 46.817C460.446 46.3114 460.261 45.9224 459.892 45.6502C459.542 45.3585 459.085 45.1251 458.521 44.9501C457.957 44.7556 457.354 44.5709 456.712 44.3959C456.09 44.2014 455.497 43.9583 454.933 43.6666C454.369 43.375 453.902 42.9763 453.533 42.4707C453.183 41.9651 453.008 41.2942 453.008 40.458C453.008 39.6218 453.212 38.9023 453.62 38.2995C454.029 37.6772 454.593 37.2007 455.312 36.8702C456.051 36.5396 456.936 36.3743 457.967 36.3743C459.056 36.3743 460.018 36.5687 460.854 36.9577C461.71 37.3271 462.41 37.8911 462.955 38.6495L461.263 40.3413C460.874 39.8357 460.388 39.4468 459.804 39.1745C459.24 38.9023 458.599 38.7662 457.879 38.7662C457.121 38.7662 456.537 38.9023 456.129 39.1745C455.74 39.4273 455.545 39.7871 455.545 40.2538C455.545 40.7205 455.72 41.0803 456.071 41.3331C456.421 41.5859 456.878 41.7998 457.441 41.9748C458.025 42.1498 458.628 42.3346 459.25 42.529C459.872 42.7041 460.465 42.9471 461.029 43.2583C461.593 43.5694 462.05 43.9875 462.4 44.5126C462.77 45.0376 462.955 45.728 462.955 46.5836C462.955 47.8865 462.488 48.9172 461.554 49.6756C460.64 50.434 459.406 50.8132 457.85 50.8132Z" fill="url(#paint4_linear_3006_34261)"/>
<rect x="236.217" y="11.4731" width="8.35668" height="8.44235" rx="4.17834" stroke="#182133" stroke-width="0.393367"/>
<path d="M238.47 17.1943V14.4093H238.858V17.1943H238.47ZM237.495 14.682V14.3267H239.83V14.682H237.495ZM240.292 17.1943V14.3267H240.565L241.78 16.3225H241.594L242.809 14.3267H243.081V17.1943H242.693V15.0085L242.784 15.0333L241.825 16.6076H241.553L240.594 15.0333L240.681 15.0085V17.1943H240.292Z" fill="#182133"/>
<defs>
<linearGradient id="paint0_linear_3006_34261" x1="40.7511" y1="60.4717" x2="40.7511" y2="5.50346" gradientUnits="userSpaceOnUse">
<stop stop-color="#016358"/>
<stop offset="1" stop-color="#182133"/>
</linearGradient>
<linearGradient id="paint1_linear_3006_34261" x1="49.8033" y1="55.6682" x2="37.2638" y2="9.50682" gradientUnits="userSpaceOnUse">
<stop stop-color="#016358"/>
<stop offset="1" stop-color="#182133"/>
</linearGradient>
<linearGradient id="paint2_linear_3006_34261" x1="76.9569" y1="33.3713" x2="237.303" y2="33.3713" gradientUnits="userSpaceOnUse">
<stop stop-color="#016358"/>
<stop offset="1" stop-color="#182133"/>
</linearGradient>
<linearGradient id="paint3_linear_3006_34261" x1="192.871" y1="58.498" x2="236.871" y2="58.498" gradientUnits="userSpaceOnUse">
<stop stop-color="#11343D"/>
<stop offset="1" stop-color="#172334"/>
</linearGradient>
<linearGradient id="paint4_linear_3006_34261" x1="259.098" y1="40.0215" x2="464.098" y2="40.0215" gradientUnits="userSpaceOnUse">
<stop stop-color="#026257"/>
<stop offset="1" stop-color="#172334"/>
</linearGradient>
</defs>
</svg>
