<svg width="413" height="411" viewBox="0 0 413 411" fill="none" xmlns="http://www.w3.org/2000/svg">
<path d="M1.16016 207.26L3.84038 174.655L32.1728 95.8589L55.9121 67.1349L138.996 10.8516L173.456 1.92383L255.392 4.2528L292.531 18.2266L367.959 78.3917L388.634 110.997L410.841 192.122V230.938L375.616 323.321L352.261 350.104L281.81 395.518L244.672 408.716L146.654 404.058L112.961 389.696L49.0197 337.683L26.8132 305.465L1.16016 207.26Z" fill="url(#paint0_linear_3015_9013)"/>
<path d="M25.1551 306.167L25.0599 305.801L0.183094 210.84L0 210.143L0.141679 209.87L1.73986 174.108L1.7523 173.825L1.84922 173.556L29.9331 95.8996L30.0326 95.6241L30.2115 95.394L54.3269 64.3215L54.423 64.3979L54.8174 64.1358L136.154 10.2107L136.772 9.80086L137.083 9.86225L173.389 0L173.657 0.00881767L254.568 2.5508L254.853 2.56003L255.121 2.65688L293.22 16.3727L293.369 16.3558L293.533 16.4855L293.541 16.4876L293.54 16.4903L293.949 16.813L368.878 75.9184L369.456 76.3745L369.494 76.6349L369.512 76.6223L390.118 109.396L390.268 109.636L411.972 191.754L411.974 191.99L412.293 230.6L412.379 230.805L412.119 231.496L377.093 324.242L376.833 324.929L376.512 325.086L352.605 351.433L352.45 351.603L352.259 351.728L282.562 397.777L282.364 397.908L282.14 397.983L244.964 410.439L244.837 410.053L244.398 410.032L147.654 405.661L147.352 405.647L147.335 405.688L147.219 405.641L146.942 405.628L146.775 405.459L112.11 391.207L111.862 391.105L111.653 390.935L47.9043 338.931L47.7055 338.769L47.558 338.557L25.2454 306.503L25.2438 306.501L25.243 306.498L25.0607 306.236L25.1551 306.167ZM381.607 156.118L408.577 221.577L408.333 192.256L386.894 111.139L370.751 85.4643L380.857 156.436L381.607 156.118ZM262.899 288.017L305.351 355.509L373.949 322.234L408.456 230.866L379.035 159.456L302.97 180.118L262.768 288.102L262.899 288.017ZM302.781 176.346L377.137 156.148L366.061 78.3761L292.292 20.1851L215.687 28.4089L214.081 103.197L302.781 176.346ZM280.773 394.552L350.078 348.762L367.673 329.374L305.66 359.452L252.203 404.125L280.773 394.552ZM213.646 24.9136L213.709 24.9066L284.834 17.2731L254.171 6.23365L173.813 3.70789L145.247 11.4675L213.646 24.9136ZM259.336 286.859L299.624 178.649L211.681 106.459L113.909 171.059L143.453 282.84L259.336 286.859ZM148.527 402.003L243.86 406.312L302.28 357.493L260.192 290.584L143.121 286.524L94.6876 346.856L148.527 402.003ZM111.699 168.112L210.445 102.868L212.044 28.3608L137.529 13.712L57.4114 66.8287L39.5074 140.749L111.699 168.112ZM91.7415 344.675L140.103 284.433L110.256 171.507L38.3682 144.259L3.8857 210.59L28.3963 304.154L91.7415 344.675ZM50.3857 336.216L113.728 387.888L140.277 398.803L90.9494 348.275L90.908 348.233L90.7862 348.43L33.2845 311.645L50.3857 336.216ZM35.4783 141.897L35.5836 141.463L52.1388 73.1131L33.253 97.446L5.36625 174.559L4.13093 202.197L35.4783 141.897Z" fill="white"/>
<path opacity="0.16" d="M5.17158 174.776L22.3963 220.661L60.6766 192.274L83.8069 130.95L73.0959 84.6272L28.8934 103.465L27.4808 100.061L73.1166 80.6131L134.323 40.9229L134.387 40.8548L172.545 1.02734L173.851 2.31404L175.158 3.60057L138.464 41.9014L175.583 69.2513L242.146 70.8883L281.208 47.2845L253.136 5.68662L256.143 3.60107L285.03 46.4076L343.46 93.0206L343.445 93.0399L389.221 108.471L388.647 110.224L388.072 111.976L343.232 96.8591L328.048 140.678L345.368 206.209L381.746 236.474L408.522 190.794L410.088 191.736L411.653 192.68L383.712 240.348L358.122 308.995L352.546 350.356L348.938 349.856L354.224 310.637L307.989 310.219L251.671 346.389L233.988 390.134L281.221 394.458L280.893 398.136L231.927 393.652L155.515 388.714L155.528 388.504L113.501 391.925L113.211 388.244L153.246 384.984L141.644 341.088L90.1591 300.743L42.727 296.347L49.2954 335.042L45.7055 335.669L38.8753 295.425L20.5777 226.198L19.842 224.237L1.76807 176.09L5.17158 174.776ZM354.991 306.95L380.018 239.813L344.022 209.868L304.475 249.339L308.877 306.534L354.991 306.95ZM270.054 124.415L325.103 138.035L340.024 94.9777L283.722 50.0639L245.049 73.4333L270.054 124.415ZM250.976 227.455L302.482 246.146L341.785 206.92L324.546 141.697L269.556 128.093L235.482 171.387L250.976 227.455ZM249.469 343.431L305.303 307.573L300.831 249.469L249.716 230.92L202.044 262.497L199.449 317.899L249.469 343.431ZM176.616 166.726L232.632 169.087L266.679 125.828L241.537 74.5681L176.116 72.9596L145.857 120.502L176.616 166.726ZM200.157 259.335L247.362 228.068L232.077 172.76L177.032 170.44L157.081 223.415L200.157 259.335ZM230.17 389.838L247.636 346.63L197.86 321.222L145.551 341.6L157.052 385.112L230.17 389.838ZM142.681 118.683L172.624 71.6351L135.688 44.4212L76.4265 82.8507L87.2054 129.464L142.681 118.683ZM100.162 236.624L153.682 222.086L173.697 168.942L142.747 122.429L86.821 133.299L64.4695 192.557L100.162 236.624ZM143.983 338.254L195.794 318.072L198.391 262.644L154.175 225.775L101.124 240.186L92.5186 297.925L143.983 338.254ZM88.9834 296.926L97.5792 239.256L62.274 195.665L23.8163 224.183L41.8885 292.56L88.9834 296.926Z" fill="white"/>
<path opacity="0.32" d="M338.453 95.5331C337.811 93.1031 339.233 90.606 341.63 89.9542C344.027 89.3033 346.49 90.7454 347.132 93.1754C347.775 95.6053 346.352 98.1024 343.956 98.7534C341.559 99.4051 339.095 97.963 338.453 95.5331ZM376.936 241.157C376.294 238.728 377.716 236.229 380.113 235.578C382.51 234.927 384.974 236.37 385.616 238.8C386.258 241.229 384.836 243.727 382.44 244.378C380.043 245.029 377.579 243.587 376.936 241.157ZM339.12 208.994C338.478 206.564 339.9 204.065 342.297 203.414C344.694 202.763 347.158 204.206 347.8 206.636C348.442 209.065 347.02 211.563 344.623 212.214C342.226 212.865 339.762 211.423 339.12 208.994ZM321.325 141.679C320.683 139.25 322.105 136.752 324.502 136.101C326.898 135.45 329.362 136.892 330.004 139.321C330.646 141.751 329.225 144.25 326.828 144.901C324.431 145.552 321.967 144.109 321.325 141.679ZM351.802 309.763C351.16 307.333 352.584 304.835 354.98 304.184C357.377 303.534 359.841 304.975 360.483 307.405C361.126 309.835 359.703 312.332 357.306 312.984C354.909 313.635 352.445 312.193 351.802 309.763ZM280.007 48.6874C279.365 46.2575 280.788 43.7595 283.185 43.1086C285.581 42.4576 288.045 43.899 288.687 46.3289C289.33 48.7588 287.907 51.2568 285.51 51.9077C283.113 52.5587 280.65 51.1165 280.007 48.6874ZM297.183 249.152C296.541 246.722 297.963 244.224 300.36 243.573C302.757 242.922 305.22 244.364 305.862 246.794C306.505 249.224 305.083 251.722 302.686 252.373C300.289 253.024 297.825 251.582 297.183 249.152ZM264.971 127.277C264.329 124.847 265.75 122.349 268.147 121.698C270.544 121.047 273.007 122.489 273.65 124.919C274.292 127.349 272.87 129.846 270.473 130.497C268.076 131.149 265.613 129.707 264.971 127.277ZM302.422 309.505C301.78 307.075 303.203 304.578 305.6 303.927C307.997 303.276 310.461 304.717 311.103 307.147C311.745 309.577 310.322 312.074 307.925 312.726C305.529 313.377 303.065 311.935 302.422 309.505ZM238.366 74.1416C237.724 71.7117 239.147 69.2146 241.543 68.5636C243.94 67.9118 246.405 69.354 247.047 71.7839C247.689 74.2139 246.265 76.7118 243.869 77.3628C241.473 78.0137 239.009 76.5715 238.366 74.1416ZM244.653 229.936C244.011 227.506 245.434 225.008 247.83 224.357C250.227 223.706 252.69 225.148 253.333 227.578C253.975 230.008 252.553 232.506 250.156 233.157C247.759 233.808 245.296 232.366 244.653 229.936ZM229.182 171.424C228.54 168.995 229.963 166.497 232.36 165.846C234.757 165.195 237.22 166.636 237.862 169.066C238.505 171.496 237.082 173.994 234.685 174.645C232.288 175.296 229.825 173.854 229.182 171.424ZM245.271 346.718C244.628 344.288 246.052 341.79 248.449 341.139C250.845 340.488 253.309 341.93 253.951 344.36C254.594 346.79 253.171 349.287 250.774 349.938C248.377 350.59 245.913 349.148 245.271 346.718ZM170.435 72.3223C169.793 69.8924 171.216 67.3944 173.613 66.7435C176.01 66.0925 178.473 67.5347 179.116 69.9646C179.758 72.3946 178.335 74.8917 175.938 75.5426C173.542 76.1936 171.078 74.7522 170.435 72.3223ZM195.497 262.154C194.855 259.724 196.278 257.226 198.675 256.575C201.071 255.924 203.535 257.367 204.177 259.796C204.819 262.226 203.397 264.723 201.001 265.374C198.604 266.025 196.139 264.584 195.497 262.154ZM171.071 169.754C170.429 167.324 171.851 164.827 174.248 164.175C176.645 163.524 179.109 164.966 179.751 167.396C180.394 169.826 178.971 172.324 176.574 172.976C174.177 173.626 171.713 172.184 171.071 169.754ZM227.194 392.655C226.552 390.225 227.974 387.727 230.37 387.076C232.767 386.425 235.231 387.867 235.873 390.297C236.516 392.727 235.093 395.225 232.696 395.876C230.3 396.527 227.836 395.085 227.194 392.655ZM131.472 42.823C130.83 40.3931 132.254 37.8959 134.651 37.2442C137.047 36.5932 139.511 38.0354 140.153 40.4653C140.795 42.8952 139.373 45.3924 136.976 46.0433C134.579 46.6951 132.115 45.2529 131.472 42.823ZM193.723 320.641C193.08 318.211 194.503 315.713 196.9 315.062C199.296 314.411 201.761 315.853 202.403 318.283C203.045 320.713 201.622 323.211 199.225 323.862C196.828 324.513 194.365 323.07 193.723 320.641ZM139.329 121.799C138.687 119.369 140.11 116.872 142.506 116.22C144.903 115.569 147.366 117.011 148.009 119.441C148.652 121.871 147.229 124.368 144.832 125.02C142.435 125.671 139.971 124.229 139.329 121.799ZM150.306 224.918C149.664 222.488 151.086 219.991 153.483 219.339C155.879 218.688 158.343 220.131 158.985 222.56C159.628 224.99 158.205 227.488 155.808 228.139C153.411 228.79 150.948 227.348 150.306 224.918ZM151.345 387.325C150.703 384.895 152.125 382.397 154.521 381.746C156.918 381.095 159.382 382.538 160.024 384.968C160.667 387.397 159.244 389.895 156.847 390.546C154.451 391.197 151.987 389.754 151.345 387.325ZM139.25 341.564C138.607 339.134 140.03 336.636 142.427 335.985C144.824 335.334 147.288 336.776 147.93 339.206C148.572 341.636 147.149 344.134 144.753 344.785C142.356 345.436 139.893 343.994 139.25 341.564ZM69.4652 82.7694C68.8223 80.3395 70.2457 77.8415 72.6426 77.1906C75.0394 76.5396 77.5034 77.9818 78.1455 80.4109C78.7876 82.8408 77.3651 85.3388 74.9682 85.9897C72.5713 86.6407 70.1073 85.1993 69.4652 82.7694ZM81.7462 132.724C81.1049 130.294 82.5267 127.796 84.9235 127.145C87.3204 126.494 89.7836 127.936 90.4265 130.366C91.0686 132.796 89.646 135.294 87.2492 135.945C84.8523 136.596 82.3891 135.154 81.7462 132.724ZM95.1763 239.893C94.5342 237.464 95.9568 234.966 98.3536 234.315C100.751 233.664 103.214 235.107 103.856 237.536C104.499 239.966 103.076 242.464 100.679 243.115C98.2824 243.766 95.8184 242.323 95.1763 239.893ZM85.8183 299.503C85.1762 297.073 86.5988 294.576 88.9957 293.924C91.3925 293.273 93.8557 294.715 94.4978 297.145C95.1399 299.575 93.7181 302.072 91.3213 302.724C88.9244 303.375 86.4604 301.933 85.8183 299.503ZM58.0178 194.341C57.3757 191.912 58.7982 189.414 61.1951 188.763C63.5919 188.112 66.0559 189.554 66.698 191.984C67.3409 194.413 65.9176 196.912 63.5207 197.563C61.1238 198.214 58.6607 196.771 58.0178 194.341ZM17.1119 224.315C16.4706 221.886 17.8923 219.388 20.2892 218.737C22.6861 218.086 25.1492 219.528 25.7921 221.957C26.4342 224.387 25.0117 226.886 22.6148 227.537C20.2179 228.188 17.7548 226.745 17.1119 224.315ZM36.1808 296.472C35.5387 294.042 36.9621 291.544 39.3589 290.893C41.7558 290.242 44.219 291.685 44.8611 294.114C45.5032 296.544 44.0814 299.042 41.6846 299.692C39.2877 300.344 36.8237 298.902 36.1808 296.472Z" fill="white"/>
<path d="M368.004 159.18C366.442 153.27 369.901 147.196 375.73 145.612C381.56 144.028 387.552 147.535 389.115 153.445C390.676 159.355 387.217 165.431 381.387 167.014C375.558 168.597 369.565 165.09 368.004 159.18ZM287.487 183.919C285.535 176.531 289.859 168.937 297.146 166.958C304.433 164.979 311.924 169.362 313.875 176.751C315.828 184.138 311.503 191.732 304.217 193.71C296.93 195.69 289.439 191.306 287.487 183.919ZM293.394 358.645C291.832 352.735 295.292 346.661 301.121 345.077C306.951 343.493 312.943 347 314.505 352.911C316.067 358.82 312.608 364.896 306.778 366.479C300.948 368.063 294.956 364.556 293.394 358.645ZM203.382 28.0078C201.821 22.0976 205.281 16.0223 211.11 14.4387C216.939 12.8553 222.932 16.3631 224.494 22.273C226.055 28.1829 222.596 34.2573 216.767 35.8411C210.937 37.4248 204.944 33.9177 203.382 28.0078ZM197.141 110.7C195.189 103.313 199.513 95.7179 206.8 93.7381C214.088 91.7593 221.578 96.1437 223.53 103.532C225.483 110.919 221.158 118.513 213.871 120.492C206.585 122.471 199.094 118.087 197.141 110.7ZM244.551 294.608C242.598 287.221 246.923 279.627 254.21 277.648C261.496 275.669 268.987 280.052 270.94 287.44C272.892 294.828 268.568 302.421 261.28 304.401C253.993 306.38 246.504 301.996 244.551 294.608ZM129.036 289.675C127.083 282.288 131.408 274.694 138.695 272.715C145.982 270.736 153.472 275.119 155.425 282.507C157.377 289.895 153.052 297.489 145.766 299.468C138.479 301.447 130.988 297.064 129.036 289.675ZM98.5696 174.404C96.6168 167.017 100.942 159.423 108.228 157.444C115.515 155.464 123.006 159.849 124.958 167.236C126.91 174.623 122.586 182.217 115.299 184.197C108.012 186.175 100.522 181.792 98.5696 174.404ZM82.0078 348.628C80.446 342.717 83.9051 336.643 89.7344 335.06C95.5646 333.475 101.556 336.983 103.119 342.893C104.681 348.803 101.221 354.878 95.3915 356.462C89.5621 358.045 83.5695 354.538 82.0078 348.628ZM28.0487 144.483C26.487 138.573 29.9469 132.499 35.7771 130.914C41.6064 129.331 47.5982 132.838 49.1599 138.749C50.7225 144.658 47.2627 150.734 41.4333 152.317C35.6039 153.901 29.6113 150.393 28.0487 144.483Z" fill="url(#paint1_linear_3015_9013)"/>
<mask id="mask0_3015_9013" style="mask-type:luminance" maskUnits="userSpaceOnUse" x="27" y="14" width="363" height="353">
<path d="M368.005 159.18C366.443 153.27 369.902 147.196 375.731 145.612C381.561 144.028 387.553 147.535 389.116 153.445C390.677 159.355 387.218 165.431 381.388 167.014C375.559 168.597 369.566 165.09 368.005 159.18ZM287.488 183.919C285.536 176.531 289.86 168.937 297.147 166.958C304.434 164.979 311.924 169.362 313.876 176.751C315.829 184.138 311.504 191.732 304.218 193.71C296.931 195.69 289.44 191.306 287.488 183.919ZM293.395 358.645C291.833 352.735 295.293 346.661 301.122 345.077C306.952 343.493 312.944 347 314.506 352.911C316.068 358.82 312.609 364.896 306.779 366.479C300.949 368.063 294.957 364.556 293.395 358.645ZM203.383 28.0078C201.822 22.0976 205.282 16.0223 211.111 14.4387C216.94 12.8553 222.933 16.3631 224.495 22.273C226.056 28.1829 222.597 34.2573 216.768 35.8411C210.938 37.4248 204.945 33.9177 203.383 28.0078ZM197.142 110.7C195.19 103.313 199.514 95.7179 206.801 93.7381C214.089 91.7593 221.579 96.1437 223.531 103.532C225.484 110.919 221.159 118.513 213.872 120.492C206.586 122.471 199.095 118.087 197.142 110.7ZM244.552 294.608C242.599 287.221 246.924 279.627 254.211 277.648C261.497 275.669 268.988 280.052 270.941 287.44C272.893 294.828 268.569 302.421 261.281 304.401C253.994 306.38 246.505 301.996 244.552 294.608ZM129.036 289.675C127.084 282.288 131.409 274.694 138.696 272.715C145.983 270.736 153.473 275.119 155.426 282.507C157.378 289.895 153.053 297.489 145.767 299.468C138.48 301.447 130.989 297.064 129.036 289.675ZM98.5706 174.404C96.6178 167.017 100.943 159.423 108.229 157.444C115.516 155.464 123.007 159.849 124.959 167.236C126.911 174.623 122.587 182.217 115.3 184.197C108.013 186.175 100.523 181.792 98.5706 174.404ZM82.0088 348.628C80.447 342.717 83.906 336.643 89.7354 335.06C95.5656 333.475 101.557 336.983 103.12 342.893C104.682 348.803 101.222 354.878 95.3925 356.462C89.5631 358.045 83.5705 354.538 82.0088 348.628ZM28.0497 144.483C26.488 138.573 29.9478 132.499 35.778 130.914C41.6074 129.331 47.5992 132.838 49.1609 138.749C50.7235 144.658 47.2636 150.734 41.4343 152.317C35.6049 153.901 29.6123 150.393 28.0497 144.483Z" fill="white"/>
</mask>
<g mask="url(#mask0_3015_9013)">
<path d="M244.552 294.61L239.273 296.044H239.274L244.552 294.61ZM49.1608 138.75L54.4384 137.316V137.316L49.1608 138.75ZM368.004 159.182L373.282 157.748C372.501 154.793 374.231 151.756 377.145 150.964L375.731 145.613L374.317 140.263C365.573 142.638 360.384 151.75 362.727 160.615L368.004 159.182ZM375.731 145.613L377.145 150.964C380.061 150.172 383.057 151.926 383.838 154.88L389.116 153.446L394.393 152.013C392.05 143.147 383.061 137.888 374.317 140.263L375.731 145.613ZM389.116 153.446L383.838 154.88C384.618 157.835 382.888 160.873 379.974 161.665L381.388 167.016L382.802 172.366C391.546 169.991 396.736 160.878 394.393 152.013L389.116 153.446ZM381.388 167.016L379.974 161.665C377.059 162.456 374.063 160.704 373.282 157.748L368.004 159.182L362.727 160.615C365.07 169.48 374.057 174.741 382.802 172.366L381.388 167.016ZM287.488 183.92L292.766 182.486C291.594 178.054 294.189 173.498 298.561 172.311L297.147 166.959L295.733 161.609C285.531 164.381 279.477 175.011 282.21 185.354L287.488 183.92ZM297.147 166.959L298.561 172.311C302.933 171.123 307.427 173.753 308.599 178.185L313.876 176.752L319.155 175.318C316.421 164.975 305.934 158.838 295.733 161.609L297.147 166.959ZM313.876 176.752L308.599 178.185C309.77 182.618 307.175 187.174 302.803 188.362L304.218 193.712L305.632 199.063C315.834 196.292 321.888 185.66 319.155 175.318L313.876 176.752ZM304.218 193.712L302.803 188.362C298.431 189.549 293.937 186.919 292.766 182.486L287.488 183.92L282.21 185.354C284.944 195.696 295.43 201.834 305.632 199.063L304.218 193.712ZM293.395 358.647L298.672 357.213C297.892 354.259 299.621 351.221 302.537 350.43L301.122 345.078L299.708 339.728C290.964 342.103 285.773 351.215 288.117 360.08L293.395 358.647ZM301.122 345.078L302.537 350.43C305.451 349.637 308.447 351.39 309.228 354.346L314.506 352.912L319.784 351.479C317.441 342.613 308.453 337.353 299.708 339.728L301.122 345.078ZM314.506 352.912L309.228 354.346C310.009 357.301 308.279 360.339 305.365 361.13L306.779 366.481L308.194 371.832C316.939 369.456 322.127 360.343 319.784 351.479L314.506 352.912ZM306.779 366.481L305.365 361.13C302.45 361.922 299.454 360.169 298.672 357.213L293.395 358.647L288.117 360.08C290.46 368.946 299.449 374.207 308.194 371.832L306.779 366.481ZM203.383 28.0094L208.661 26.5757C207.88 23.6207 209.61 20.5827 212.525 19.7909L211.111 14.4403L209.696 9.08972C200.952 11.4651 195.763 20.5779 198.106 29.4431L203.383 28.0094ZM211.111 14.4403L212.525 19.7909C215.439 18.9993 218.436 20.7531 219.217 23.7084L224.494 22.2747L229.772 20.8411C227.429 11.9764 218.441 6.71464 209.696 9.08972L211.111 14.4403ZM224.494 22.2747L219.217 23.7084C219.997 26.6632 218.268 29.7003 215.353 30.4922L216.768 35.8427L218.182 41.1935C226.926 38.8173 232.115 29.7061 229.772 20.8411L224.494 22.2747ZM216.768 35.8427L215.354 30.4922C212.438 31.2841 209.442 29.5303 208.661 26.5757L203.383 28.0094L198.106 29.4431C200.449 38.3083 209.438 43.5688 218.182 41.1935L216.768 35.8427ZM197.142 110.701L202.421 109.268C201.248 104.834 203.844 100.279 208.215 99.091L206.801 93.7398L205.387 88.3894C195.184 91.1612 189.131 101.793 191.865 112.135L197.142 110.701ZM206.801 93.7398L208.215 99.091C212.587 97.9033 217.082 100.534 218.253 104.967L223.531 103.533L228.809 102.1C226.075 91.7575 215.589 85.6185 205.387 88.3894L206.801 93.7398ZM223.531 103.533L218.253 104.967C219.425 109.4 216.83 113.955 212.458 115.143L213.872 120.493L215.286 125.845C225.488 123.073 231.543 112.442 228.809 102.1L223.531 103.533ZM213.872 120.493L212.458 115.143C208.086 116.331 203.592 113.7 202.421 109.268L197.142 110.701L191.865 112.135C194.599 122.477 205.084 128.616 215.286 125.845L213.872 120.493ZM244.552 294.61L249.829 293.176C248.658 288.744 251.253 284.188 255.625 283L254.211 277.65L252.796 272.299C242.594 275.071 236.54 285.702 239.273 296.044L244.552 294.61ZM254.211 277.65L255.625 283C259.997 281.813 264.491 284.443 265.663 288.876L270.941 287.442L276.218 286.008C273.485 275.665 262.999 269.528 252.796 272.299L254.211 277.65ZM270.941 287.442L265.663 288.876C266.834 293.308 264.24 297.864 259.867 299.052L261.281 304.403L262.695 309.753C272.898 306.981 278.951 296.35 276.218 286.008L270.941 287.442ZM261.281 304.403L259.868 299.052C255.495 300.239 251.001 297.609 249.829 293.176L244.552 294.61L239.274 296.044C242.007 306.387 252.494 312.524 262.695 309.753L261.281 304.403ZM129.036 289.677L134.314 288.244C133.142 283.812 135.737 279.255 140.11 278.068L138.696 272.716L137.282 267.366C127.08 270.138 121.025 280.768 123.758 291.111L129.036 289.677ZM138.696 272.716L140.11 278.068C144.482 276.88 148.976 279.511 150.148 283.943L155.426 282.509L160.704 281.075C157.969 270.732 147.483 264.595 137.282 267.366L138.696 272.716ZM155.426 282.509L150.148 283.943C151.319 288.375 148.724 292.931 144.352 294.119L145.766 299.47L147.181 304.82C157.382 302.048 163.437 291.417 160.704 281.075L155.426 282.509ZM145.766 299.47L144.352 294.119C139.98 295.306 135.485 292.676 134.314 288.244L129.036 289.677L123.758 291.111C126.492 301.453 136.979 307.591 147.181 304.82L145.766 299.47ZM98.5705 174.405L103.848 172.972C102.677 168.539 105.271 163.983 109.643 162.796L108.229 157.445L106.815 152.094C96.6127 154.866 90.5588 165.497 93.292 175.839L98.5705 174.405ZM108.229 157.445L109.643 162.796C114.015 161.608 118.509 164.239 119.681 168.671L124.959 167.237L130.237 165.804C127.503 155.461 117.017 149.323 106.815 152.094L108.229 157.445ZM124.959 167.237L119.681 168.671C120.852 173.103 118.258 177.659 113.885 178.847L115.3 184.198L116.714 189.549C126.916 186.777 132.97 176.147 130.237 165.804L124.959 167.237ZM115.3 184.198L113.885 178.847C109.513 180.035 105.02 177.405 103.848 172.972L98.5705 174.405L93.292 175.839C96.0261 186.182 106.513 192.319 116.714 189.549L115.3 184.198ZM82.0086 348.63L87.2862 347.196C86.5057 344.241 88.2348 341.204 91.1495 340.412L89.7353 335.061L88.321 329.711C79.5769 332.086 74.388 341.198 76.731 350.062L82.0086 348.63ZM89.7353 335.061L91.1495 340.412C94.065 339.62 97.0609 341.373 97.8422 344.328L103.12 342.894L108.397 341.461C106.054 332.595 97.0651 327.336 88.321 329.711L89.7353 335.061ZM103.12 342.894L97.8422 344.328C98.6227 347.283 96.8927 350.321 93.978 351.113L95.3923 356.464L96.8066 361.814C105.551 359.439 110.74 350.326 108.397 341.461L103.12 342.894ZM95.3923 356.464L93.978 351.113C91.0634 351.904 88.0675 350.151 87.2862 347.196L82.0086 348.63L76.731 350.062C79.074 358.927 88.0617 364.189 96.8066 361.814L95.3923 356.464ZM28.0496 144.484L33.328 143.051C32.5467 140.097 34.2766 137.059 37.1913 136.266L35.7779 130.916L34.3636 125.566C25.6195 127.941 20.429 137.053 22.772 145.918L28.0496 144.484ZM35.7779 130.916L37.1913 136.266C40.106 135.475 43.1019 137.229 43.8832 140.184L49.1608 138.75L54.4384 137.316C52.0953 128.451 43.1077 123.19 34.3636 125.566L35.7779 130.916ZM49.1608 138.75L43.8832 140.183C44.6645 143.139 42.9345 146.176 40.0198 146.968L41.4341 152.318L42.8484 157.669C51.5933 155.294 56.7814 146.181 54.4384 137.316L49.1608 138.75ZM41.4341 152.318L40.0198 146.968C37.1052 147.76 34.1093 146.006 33.328 143.051L28.0496 144.484L22.772 145.918C25.115 154.784 34.1035 160.045 42.8484 157.669L41.4341 152.318Z" fill="white"/>
</g>
<defs>
<linearGradient id="paint0_linear_3015_9013" x1="199.762" y1="413.425" x2="199.762" y2="-5.78795" gradientUnits="userSpaceOnUse">
<stop stop-color="#016358"/>
<stop offset="1" stop-color="#182133"/>
</linearGradient>
<linearGradient id="paint1_linear_3015_9013" x1="268.799" y1="376.796" x2="173.167" y2="24.746" gradientUnits="userSpaceOnUse">
<stop stop-color="#016358"/>
<stop offset="1" stop-color="#182133"/>
</linearGradient>
</defs>
</svg>
