<svg width="1623" height="560" viewBox="0 0 1623 560" fill="none" xmlns="http://www.w3.org/2000/svg">
<path d="M112.187 282.022L114.867 249.417L143.199 170.621L166.938 141.897L250.023 85.6133L284.482 76.6855L366.418 79.0145L403.558 92.9883L478.985 153.153L499.66 185.759L521.868 266.884V305.7L486.643 398.082L463.287 424.865L392.837 470.28L355.698 483.478L257.681 478.819L223.987 464.457L160.046 412.444L137.84 380.227L112.187 282.022Z" fill="url(#paint0_linear_3015_8987)"/>
<path d="M136.182 380.929L136.086 380.563L111.209 285.602L111.026 284.905L111.168 284.632L112.766 248.87L112.779 248.586L112.876 248.317L140.96 170.661L141.059 170.386L141.238 170.156L165.353 139.083L165.449 139.16L165.844 138.898L247.18 84.9725L247.798 84.5626L248.11 84.624L284.416 74.7617L284.683 74.7705L365.594 77.3125L365.879 77.3218L366.148 77.4186L404.246 91.1344L404.396 91.1175L404.559 91.2472L404.567 91.2493L404.567 91.2521L404.976 91.5748L479.904 150.68L480.483 151.136L480.52 151.397L480.538 151.384L501.144 184.157L501.294 184.398L522.998 266.515L523 266.751L523.32 305.362L523.405 305.566L523.145 306.258L488.119 399.003L487.86 399.691L487.538 399.847L463.632 426.194L463.477 426.365L463.285 426.49L393.589 472.539L393.391 472.67L393.166 472.744L355.99 485.201L355.864 484.814L355.424 484.793L258.68 480.422L258.378 480.409L258.361 480.45L258.245 480.403L257.968 480.389L257.801 480.221L223.137 465.969L222.888 465.866L222.679 465.697L158.931 413.693L158.732 413.531L158.584 413.319L136.272 381.265L136.27 381.263L136.269 381.26L136.087 380.998L136.182 380.929ZM492.634 230.88L519.603 296.339L519.36 267.018L497.92 185.901L481.778 160.226L491.884 231.198L492.634 230.88ZM373.925 362.779L416.378 430.271L484.976 396.996L519.482 305.628L490.061 234.217L413.997 254.88L373.794 362.863L373.925 362.779ZM413.808 251.108L488.163 230.91L477.087 153.138L403.319 94.9468L326.713 103.171L325.108 177.959L413.808 251.108ZM391.799 469.313L461.105 423.523L478.699 404.135L416.686 434.214L363.229 478.887L391.799 469.313ZM324.672 99.6753L324.736 99.6683L395.861 92.0348L365.198 80.9954L284.839 78.4696L256.274 86.2293L324.672 99.6753ZM370.362 361.62L410.65 253.411L322.708 181.221L224.935 245.821L254.479 357.601L370.362 361.62ZM259.554 476.765L354.887 481.074L413.306 432.255L371.218 365.345L254.147 361.286L205.714 421.618L259.554 476.765ZM222.726 242.874L321.471 177.629L323.07 103.123L248.555 88.4737L168.438 141.59L150.534 215.51L222.726 242.874ZM202.768 419.437L251.129 359.195L221.282 246.269L149.395 219.021L114.912 285.352L139.423 378.915L202.768 419.437ZM161.412 410.977L224.754 462.65L251.303 473.565L201.976 423.036L201.934 422.995L201.813 423.192L144.311 386.407L161.412 410.977ZM146.505 216.659L146.61 216.224L163.165 147.875L144.279 172.208L116.393 249.321L115.157 276.959L146.505 216.659Z" fill="white"/>
<path opacity="0.16" d="M116.198 249.538L133.423 295.423L171.703 267.036L194.833 205.712L184.122 159.389L139.92 178.227L138.507 174.823L184.143 155.375L245.349 115.685L245.414 115.617L283.571 75.7891L284.877 77.0758L286.184 78.3623L249.49 116.663L286.61 144.013L353.173 145.65L392.234 122.046L364.163 80.4483L367.169 78.3628L396.056 121.169L454.487 167.782L454.472 167.802L500.248 183.233L499.673 184.986L499.098 186.738L454.259 171.621L439.074 215.439L456.395 280.971L492.773 311.235L519.549 265.556L521.114 266.498L522.679 267.442L494.739 315.109L469.149 383.757L463.572 425.118L459.964 424.617L465.251 385.398L419.015 384.981L362.697 421.151L345.014 464.896L392.248 469.22L391.919 472.898L342.953 468.414L266.541 463.475L266.555 463.265L224.528 466.687L224.237 463.006L264.272 459.746L252.671 415.85L201.185 375.505L153.753 371.109L160.322 409.803L156.732 410.431L149.902 370.187L131.604 300.96L130.868 298.998L112.794 250.852L116.198 249.538ZM466.017 381.712L491.045 314.575L455.048 284.63L415.501 324.101L419.903 381.296L466.017 381.712ZM381.08 199.177L436.129 212.797L451.05 169.739L394.749 124.826L356.075 148.195L381.08 199.177ZM362.002 302.217L413.509 320.908L452.811 281.682L435.573 216.459L380.582 202.855L346.508 246.149L362.002 302.217ZM360.495 418.193L416.329 382.334L411.857 324.231L360.742 305.682L313.07 337.258L310.476 392.66L360.495 418.193ZM287.643 241.487L343.658 243.848L377.706 200.589L352.564 149.33L287.142 147.721L256.883 195.263L287.643 241.487ZM311.184 334.097L358.388 302.829L343.104 247.521L288.059 245.202L268.107 298.177L311.184 334.097ZM341.197 464.6L358.662 421.392L308.886 395.984L256.578 416.362L268.078 459.874L341.197 464.6ZM253.707 193.445L283.65 146.397L246.714 119.183L187.453 157.612L198.232 204.225L253.707 193.445ZM211.188 311.386L264.709 296.847L284.724 243.704L253.773 197.191L197.847 208.061L175.496 267.319L211.188 311.386ZM255.009 413.016L306.82 392.833L309.417 337.405L265.202 300.536L212.15 314.948L203.545 372.687L255.009 413.016ZM200.01 371.688L208.606 314.017L173.3 270.426L134.843 298.945L152.915 367.322L200.01 371.688Z" fill="white"/>
<path opacity="0.32" d="M449.479 170.295C448.837 167.865 450.259 165.368 452.656 164.716C455.053 164.065 457.516 165.507 458.158 167.937C458.801 170.367 457.379 172.864 454.982 173.515C452.585 174.167 450.121 172.725 449.479 170.295ZM487.962 315.919C487.32 313.489 488.743 310.99 491.14 310.34C493.537 309.689 496 311.132 496.643 313.561C497.285 315.991 495.862 318.489 493.466 319.139C491.069 319.79 488.605 318.349 487.962 315.919ZM450.147 283.756C449.505 281.326 450.926 278.827 453.323 278.176C455.72 277.525 458.184 278.968 458.826 281.398C459.468 283.827 458.047 286.325 455.65 286.976C453.253 287.627 450.789 286.185 450.147 283.756ZM432.351 216.441C431.709 214.012 433.132 211.514 435.529 210.863C437.925 210.212 440.389 211.654 441.031 214.083C441.673 216.513 440.251 219.012 437.854 219.663C435.457 220.314 432.993 218.871 432.351 216.441ZM462.829 384.525C462.187 382.095 463.61 379.597 466.007 378.946C468.404 378.295 470.867 379.737 471.509 382.166C472.152 384.596 470.729 387.094 468.332 387.745C465.936 388.396 463.472 386.955 462.829 384.525ZM391.034 123.449C390.391 121.019 391.814 118.521 394.211 117.87C396.608 117.219 399.072 118.661 399.714 121.091C400.356 123.521 398.933 126.018 396.537 126.669C394.14 127.32 391.676 125.878 391.034 123.449ZM408.209 323.914C407.567 321.484 408.99 318.986 411.387 318.335C413.784 317.684 416.247 319.126 416.889 321.556C417.532 323.986 416.109 326.484 413.712 327.135C411.315 327.786 408.851 326.344 408.209 323.914ZM375.997 202.038C375.355 199.608 376.777 197.111 379.173 196.46C381.57 195.809 384.034 197.251 384.676 199.681C385.319 202.111 383.896 204.608 381.499 205.259C379.102 205.91 376.639 204.468 375.997 202.038ZM413.449 384.266C412.807 381.837 414.229 379.339 416.626 378.688C419.023 378.037 421.487 379.479 422.129 381.909C422.771 384.339 421.349 386.836 418.952 387.487C416.555 388.138 414.091 386.696 413.449 384.266ZM349.393 148.903C348.751 146.473 350.173 143.976 352.569 143.325C354.966 142.674 357.431 144.116 358.073 146.546C358.715 148.976 357.292 151.474 354.895 152.124C352.499 152.775 350.035 151.333 349.393 148.903ZM355.68 304.698C355.037 302.268 356.46 299.77 358.857 299.119C361.254 298.468 363.717 299.91 364.36 302.34C365.001 304.77 363.579 307.268 361.182 307.919C358.786 308.57 356.322 307.128 355.68 304.698ZM340.209 246.185C339.567 243.756 340.989 241.258 343.386 240.607C345.783 239.956 348.246 241.398 348.888 243.828C349.531 246.258 348.109 248.756 345.712 249.406C343.315 250.057 340.851 248.615 340.209 246.185ZM356.298 421.48C355.655 419.05 357.078 416.552 359.475 415.901C361.872 415.25 364.335 416.692 364.978 419.122C365.62 421.552 364.197 424.049 361.801 424.7C359.404 425.352 356.94 423.91 356.298 421.48ZM281.462 147.084C280.82 144.654 282.242 142.156 284.639 141.505C287.036 140.854 289.499 142.296 290.142 144.726C290.784 147.156 289.362 149.653 286.965 150.304C284.568 150.955 282.104 149.514 281.462 147.084ZM306.523 336.916C305.881 334.486 307.305 331.988 309.701 331.337C312.098 330.686 314.561 332.128 315.204 334.557C315.846 336.987 314.423 339.485 312.027 340.136C309.63 340.787 307.165 339.346 306.523 336.916ZM282.097 244.516C281.455 242.086 282.878 239.588 285.275 238.937C287.671 238.286 290.135 239.728 290.778 242.158C291.42 244.588 289.997 247.086 287.6 247.738C285.203 248.388 282.739 246.945 282.097 244.516ZM338.22 467.416C337.578 464.986 339 462.489 341.397 461.838C343.794 461.187 346.258 462.629 346.9 465.059C347.542 467.489 346.119 469.987 343.722 470.638C341.326 471.289 338.862 469.846 338.22 467.416ZM242.499 117.585C241.857 115.155 243.28 112.658 245.677 112.006C248.074 111.355 250.537 112.797 251.179 115.227C251.821 117.657 250.399 120.154 248.003 120.805C245.606 121.457 243.142 120.015 242.499 117.585ZM304.749 395.403C304.107 392.973 305.529 390.474 307.926 389.823C310.323 389.172 312.788 390.615 313.43 393.044C314.072 395.474 312.648 397.972 310.252 398.623C307.855 399.274 305.392 397.832 304.749 395.403ZM250.355 196.56C249.713 194.13 251.136 191.633 253.533 190.982C255.93 190.331 258.393 191.773 259.035 194.203C259.678 196.633 258.255 199.13 255.858 199.781C253.462 200.432 250.998 198.99 250.355 196.56ZM261.332 299.68C260.69 297.25 262.112 294.753 264.509 294.101C266.906 293.45 269.37 294.892 270.012 297.322C270.654 299.752 269.231 302.249 266.834 302.901C264.438 303.552 261.974 302.11 261.332 299.68ZM262.371 462.087C261.729 459.657 263.151 457.158 265.548 456.507C267.945 455.856 270.409 457.299 271.051 459.729C271.693 462.158 270.27 464.656 267.873 465.307C265.477 465.958 263.013 464.516 262.371 462.087ZM250.277 416.326C249.634 413.896 251.056 411.398 253.453 410.747C255.85 410.096 258.314 411.538 258.956 413.968C259.598 416.398 258.176 418.896 255.779 419.547C253.382 420.198 250.919 418.756 250.277 416.326ZM180.492 157.531C179.849 155.101 181.272 152.603 183.669 151.952C186.066 151.301 188.53 152.744 189.172 155.173C189.814 157.603 188.391 160.1 185.995 160.751C183.598 161.402 181.134 159.961 180.492 157.531ZM192.773 207.485C192.131 205.055 193.553 202.557 195.95 201.907C198.347 201.256 200.81 202.698 201.453 205.128C202.095 207.558 200.672 210.056 198.276 210.707C195.879 211.357 193.416 209.915 192.773 207.485ZM206.203 314.655C205.561 312.226 206.983 309.728 209.38 309.077C211.777 308.426 214.24 309.868 214.882 312.297C215.525 314.727 214.103 317.226 211.706 317.877C209.309 318.528 206.845 317.085 206.203 314.655ZM196.845 374.264C196.203 371.834 197.625 369.337 200.022 368.686C202.419 368.035 204.882 369.477 205.524 371.907C206.166 374.337 204.745 376.834 202.348 377.486C199.951 378.136 197.487 376.694 196.845 374.264ZM169.044 269.103C168.402 266.674 169.825 264.176 172.221 263.525C174.618 262.874 177.082 264.315 177.724 266.745C178.367 269.175 176.944 271.674 174.547 272.325C172.15 272.976 169.687 271.533 169.044 269.103ZM128.138 299.077C127.497 296.648 128.919 294.15 131.316 293.499C133.712 292.848 136.176 294.29 136.819 296.719C137.461 299.149 136.038 301.648 133.641 302.299C131.244 302.95 128.781 301.507 128.138 299.077ZM147.207 371.234C146.565 368.804 147.988 366.306 150.385 365.655C152.782 365.004 155.245 366.446 155.887 368.876C156.53 371.306 155.108 373.803 152.711 374.454C150.314 375.106 147.85 373.664 147.207 371.234Z" fill="white"/>
<path d="M479.03 233.942C477.468 228.032 480.927 221.957 486.757 220.373C492.587 218.79 498.578 222.297 500.141 228.207C501.703 234.117 498.243 240.192 492.414 241.776C486.584 243.359 480.592 239.851 479.03 233.942ZM398.513 258.68C396.561 251.293 400.885 243.699 408.173 241.719C415.459 239.741 422.95 244.124 424.902 251.512C426.855 258.899 422.53 266.493 415.243 268.472C407.956 270.452 400.466 266.067 398.513 258.68ZM404.42 433.407C402.859 427.497 406.318 421.422 412.148 419.838C417.977 418.255 423.969 421.762 425.532 427.672C427.093 433.582 423.634 439.657 417.805 441.241C411.975 442.825 405.982 439.317 404.42 433.407ZM314.409 102.769C312.847 96.8594 316.307 90.784 322.136 89.2004C327.966 87.6171 333.958 91.1248 335.52 97.0347C337.082 102.945 333.623 109.019 327.793 110.603C321.963 112.186 315.971 108.679 314.409 102.769ZM308.168 185.461C306.216 178.074 310.54 170.48 317.826 168.5C325.114 166.521 332.604 170.905 334.556 178.293C336.509 185.681 332.184 193.275 324.898 195.253C317.611 197.233 310.12 192.849 308.168 185.461ZM355.577 369.37C353.625 361.983 357.949 354.389 365.236 352.41C372.523 350.43 380.013 354.814 381.966 362.202C383.918 369.589 379.594 377.183 372.307 379.163C365.02 381.142 357.53 376.758 355.577 369.37ZM240.062 364.437C238.109 357.05 242.434 349.456 249.721 347.476C257.008 345.497 264.499 349.881 266.451 357.269C268.403 364.656 264.079 372.25 256.792 374.23C249.505 376.209 242.015 371.825 240.062 364.437ZM209.596 249.165C207.643 241.778 211.968 234.184 219.255 232.205C226.541 230.226 234.032 234.61 235.985 241.997C237.937 249.385 233.613 256.979 226.325 258.958C219.038 260.937 211.548 256.554 209.596 249.165ZM193.034 423.39C191.472 417.479 194.931 411.405 200.761 409.821C206.591 408.237 212.583 411.745 214.145 417.655C215.707 423.564 212.247 429.64 206.418 431.224C200.588 432.807 194.596 429.299 193.034 423.39ZM139.075 219.244C137.513 213.335 140.973 207.26 146.803 205.676C152.633 204.093 158.625 207.6 160.186 213.51C161.749 219.42 158.289 225.495 152.46 227.079C146.63 228.663 140.638 225.155 139.075 219.244Z" fill="url(#paint1_linear_3015_8987)"/>
<mask id="mask0_3015_8987" style="mask-type:luminance" maskUnits="userSpaceOnUse" x="138" y="88" width="363" height="354">
<path d="M479.031 233.942C477.469 228.032 480.928 221.957 486.758 220.373C492.588 218.79 498.579 222.297 500.142 228.207C501.704 234.117 498.244 240.192 492.415 241.776C486.585 243.359 480.593 239.851 479.031 233.942ZM398.514 258.68C396.562 251.293 400.886 243.699 408.174 241.719C415.46 239.741 422.951 244.124 424.903 251.512C426.856 258.899 422.531 266.493 415.244 268.472C407.957 270.452 400.467 266.067 398.514 258.68ZM404.421 433.407C402.86 427.497 406.319 421.422 412.149 419.838C417.978 418.255 423.97 421.762 425.532 427.672C427.094 433.582 423.635 439.657 417.806 441.241C411.976 442.825 405.983 439.317 404.421 433.407ZM314.41 102.769C312.848 96.8594 316.308 90.784 322.137 89.2004C327.967 87.6171 333.959 91.1248 335.521 97.0347C337.083 102.945 333.624 109.019 327.794 110.603C321.964 112.186 315.972 108.679 314.41 102.769ZM308.169 185.461C306.217 178.074 310.541 170.48 317.827 168.5C325.115 166.521 332.605 170.905 334.557 178.293C336.51 185.681 332.185 193.275 324.899 195.253C317.612 197.233 310.121 192.849 308.169 185.461ZM355.578 369.37C353.626 361.983 357.95 354.389 365.237 352.41C372.524 350.43 380.014 354.814 381.967 362.202C383.919 369.589 379.595 377.183 372.308 379.163C365.021 381.142 357.531 376.758 355.578 369.37ZM240.063 364.437C238.11 357.05 242.435 349.456 249.722 347.476C257.009 345.497 264.5 349.881 266.452 357.269C268.404 364.656 264.08 372.25 256.793 374.23C249.506 376.209 242.016 371.825 240.063 364.437ZM209.597 249.165C207.644 241.778 211.969 234.184 219.256 232.205C226.542 230.226 234.033 234.61 235.986 241.997C237.938 249.385 233.614 256.979 226.326 258.958C219.039 260.937 211.549 256.554 209.597 249.165ZM193.035 423.39C191.473 417.479 194.932 411.405 200.762 409.821C206.592 408.237 212.584 411.745 214.146 417.655C215.708 423.564 212.248 429.64 206.419 431.224C200.589 432.807 194.597 429.299 193.035 423.39ZM139.076 219.244C137.514 213.335 140.974 207.26 146.804 205.676C152.634 204.093 158.626 207.6 160.187 213.51C161.75 219.42 158.29 225.495 152.461 227.079C146.631 228.663 140.639 225.155 139.076 219.244Z" fill="white"/>
</mask>
<g mask="url(#mask0_3015_8987)">
<path d="M355.578 369.372L350.3 370.806H350.301L355.578 369.372ZM160.187 213.512L165.465 212.078V212.077L160.187 213.512ZM479.031 233.943L484.308 232.51C483.527 229.555 485.257 226.517 488.172 225.725L486.757 220.375L485.343 215.025C476.599 217.4 471.41 226.512 473.753 235.377L479.031 233.943ZM486.757 220.375L488.172 225.725C491.087 224.934 494.083 226.688 494.864 229.642L500.142 228.208L505.42 226.774C503.077 217.909 494.087 212.649 485.343 215.025L486.757 220.375ZM500.142 228.208L494.864 229.642C495.645 232.597 493.915 235.635 491 236.427L492.414 241.777L493.829 247.128C502.573 244.752 507.763 235.64 505.42 226.774L500.142 228.208ZM492.414 241.777L491 236.427C488.085 237.218 485.09 235.465 484.308 232.51L479.031 233.943L473.753 235.377C476.096 244.242 485.084 249.503 493.829 247.128L492.414 241.777ZM398.514 258.682L403.792 257.248C402.621 252.816 405.215 248.26 409.588 247.072L408.173 241.721L406.759 236.371C396.557 239.142 390.503 249.773 393.236 260.116L398.514 258.682ZM408.173 241.721L409.588 247.072C413.96 245.885 418.454 248.514 419.625 252.947L424.903 251.514L430.181 250.08C427.447 239.737 416.961 233.6 406.759 236.371L408.173 241.721ZM424.903 251.514L419.625 252.947C420.797 257.38 418.202 261.936 413.83 263.123L415.244 268.474L416.658 273.825C426.86 271.053 432.914 260.422 430.181 250.08L424.903 251.514ZM415.244 268.474L413.83 263.123C409.458 264.311 404.964 261.68 403.792 257.248L398.514 258.682L393.236 260.116C395.97 270.458 406.456 276.596 416.658 273.825L415.244 268.474ZM404.421 433.408L409.699 431.975C408.918 429.02 410.647 425.982 413.563 425.191L412.149 419.84L410.734 414.49C401.99 416.865 396.8 425.977 399.144 434.842L404.421 433.408ZM412.149 419.84L413.563 425.191C416.478 424.399 419.473 426.152 420.255 429.108L425.532 427.674L430.81 426.24C428.467 417.375 419.479 412.114 410.734 414.49L412.149 419.84ZM425.532 427.674L420.255 429.108C421.035 432.063 419.305 435.101 416.391 435.892L417.806 441.242L419.22 446.594C427.965 444.217 433.153 435.105 430.81 426.24L425.532 427.674ZM417.806 441.242L416.391 435.892C413.477 436.684 410.48 434.93 409.699 431.975L404.421 433.408L399.144 434.842C401.487 443.708 410.475 448.969 419.22 446.594L417.806 441.242ZM314.41 102.771L319.687 101.337C318.907 98.3824 320.637 95.3444 323.551 94.5526L322.137 89.2021L320.723 83.8514C311.979 86.2269 306.789 95.3396 309.132 104.205L314.41 102.771ZM322.137 89.2021L323.551 94.5526C326.465 93.761 329.462 95.5148 330.243 98.4701L335.521 97.0364L340.798 95.6028C338.455 86.7381 329.468 81.4764 320.723 83.8514L322.137 89.2021ZM335.521 97.0364L330.243 98.4701C331.024 101.425 329.295 104.462 326.379 105.254L327.794 110.604L329.208 115.955C337.953 113.579 343.141 104.468 340.798 95.6028L335.521 97.0364ZM327.794 110.604L326.38 105.254C323.464 106.046 320.469 104.292 319.687 101.337L314.41 102.771L309.132 104.205C311.475 113.07 320.464 118.331 329.208 115.955L327.794 110.604ZM308.169 185.463L313.447 184.029C312.275 179.596 314.87 175.04 319.241 173.853L317.827 168.502L316.414 163.151C306.211 165.923 300.158 176.555 302.891 186.897L308.169 185.463ZM317.827 168.502L319.241 173.853C323.614 172.665 328.108 175.296 329.28 179.729L334.557 178.295L339.836 176.861C337.102 166.519 326.615 160.38 316.414 163.151L317.827 168.502ZM334.557 178.295L329.28 179.729C330.451 184.162 327.856 188.717 323.484 189.905L324.899 195.255L326.313 200.606C336.514 197.835 342.569 187.203 339.836 176.861L334.557 178.295ZM324.899 195.255L323.484 189.905C319.112 191.092 314.618 188.462 313.447 184.029L308.169 185.463L302.891 186.897C305.625 197.239 316.111 203.377 326.313 200.606L324.899 195.255ZM355.578 369.372L360.856 367.938C359.684 363.506 362.279 358.95 366.651 357.762L365.237 352.412L363.823 347.061C353.62 349.832 347.567 360.463 350.3 370.806L355.578 369.372ZM365.237 352.412L366.651 357.762C371.023 356.575 375.518 359.205 376.689 363.638L381.967 362.204L387.245 360.77C384.511 350.427 374.025 344.29 363.823 347.061L365.237 352.412ZM381.967 362.204L376.689 363.638C377.86 368.07 375.266 372.626 370.893 373.813L372.307 379.165L373.722 384.515C383.924 381.743 389.978 371.112 387.245 360.77L381.967 362.204ZM372.307 379.165L370.894 373.813C366.521 375.001 362.027 372.371 360.856 367.938L355.578 369.372L350.301 370.806C353.034 381.148 363.52 387.286 373.722 384.515L372.307 379.165ZM240.063 364.439L245.34 363.006C244.169 358.574 246.764 354.017 251.137 352.829L249.722 347.478L248.308 342.128C238.107 344.899 232.051 355.53 234.784 365.873L240.063 364.439ZM249.722 347.478L251.137 352.829C255.509 351.642 260.002 354.272 261.174 358.705L266.452 357.271L271.73 355.837C268.996 345.494 258.509 339.357 248.308 342.128L249.722 347.478ZM266.452 357.271L261.174 358.705C262.345 363.137 259.751 367.693 255.378 368.88L256.793 374.232L258.207 379.582C268.408 376.81 274.463 366.179 271.73 355.837L266.452 357.271ZM256.793 374.232L255.378 368.88C251.006 370.068 246.512 367.438 245.34 363.006L240.063 364.439L234.784 365.873C237.518 376.215 248.006 382.353 258.207 379.582L256.793 374.232ZM209.597 249.167L214.874 247.734C213.703 243.301 216.298 238.745 220.67 237.558L219.256 232.207L217.841 226.856C207.639 229.628 201.585 240.259 204.318 250.601L209.597 249.167ZM219.256 232.207L220.67 237.558C225.042 236.37 229.536 239.001 230.707 243.433L235.986 241.999L241.263 240.565C238.529 230.223 228.044 224.085 217.841 226.856L219.256 232.207ZM235.986 241.999L230.707 243.433C231.879 247.865 229.285 252.421 224.912 253.609L226.326 258.96L227.74 264.31C237.943 261.538 243.996 250.908 241.263 240.565L235.986 241.999ZM226.326 258.96L224.912 253.609C220.54 254.797 216.046 252.166 214.874 247.734L209.597 249.167L204.318 250.601C207.052 260.944 217.539 267.081 227.74 264.31L226.326 258.96ZM193.035 423.391L198.313 421.957C197.532 419.003 199.261 415.965 202.176 415.173L200.762 409.823L199.347 404.473C190.603 406.848 185.414 415.96 187.757 424.824L193.035 423.391ZM200.762 409.823L202.176 415.173C205.091 414.381 208.087 416.135 208.869 419.09L214.146 417.656L219.424 416.222C217.081 407.357 208.091 402.097 199.347 404.473L200.762 409.823ZM214.146 417.656L208.869 419.09C209.649 422.045 207.919 425.083 205.004 425.875L206.419 431.225L207.833 436.576C216.577 434.2 221.767 425.088 219.424 416.222L214.146 417.656ZM206.419 431.225L205.004 425.875C202.09 426.666 199.094 424.912 198.313 421.957L193.035 423.391L187.757 424.824C190.1 433.689 199.088 438.951 207.833 436.576L206.419 431.225ZM139.076 219.246L144.354 217.812C143.573 214.858 145.303 211.82 148.218 211.028L146.804 205.678L145.39 200.327C136.646 202.703 131.455 211.814 133.798 220.68L139.076 219.246ZM146.804 205.678L148.218 211.028C151.132 210.237 154.128 211.991 154.91 214.946L160.187 213.512L165.465 212.077C163.122 203.213 154.134 197.952 145.39 200.327L146.804 205.678ZM160.187 213.512L154.91 214.945C155.691 217.901 153.961 220.938 151.046 221.73L152.46 227.08L153.875 232.431C162.62 230.055 167.808 220.943 165.465 212.078L160.187 213.512ZM152.46 227.08L151.046 221.73C148.132 222.522 145.136 220.767 144.354 217.812L139.076 219.246L133.798 220.68C136.141 229.545 145.13 234.807 153.875 232.431L152.46 227.08Z" fill="white"/>
</g>
<path d="M666.237 283.296C651.051 283.296 638.153 280.511 627.541 274.941C616.93 269.371 607.416 261.202 599 250.434L620.406 228.712C625.712 236.51 632.024 242.636 639.342 247.093C646.66 251.362 655.991 253.497 667.334 253.497C677.946 253.497 686.362 251.27 692.582 246.814C698.986 242.358 702.188 236.231 702.188 228.434C702.188 221.936 700.541 216.644 697.248 212.56C693.955 208.476 689.564 205.133 684.075 202.534C678.769 199.75 672.823 197.336 666.237 195.293C659.833 193.065 653.338 190.652 646.752 188.053C640.349 185.268 634.402 181.833 628.913 177.749C623.608 173.664 619.308 168.373 616.015 161.875C612.722 155.377 611.075 147.115 611.075 137.09C611.075 125.579 613.819 115.832 619.308 107.849C624.98 99.6799 632.573 93.4602 642.087 89.1898C651.6 84.92 662.212 82.7844 673.921 82.7844C686.545 82.7844 697.797 85.2913 707.676 90.3038C717.739 95.3169 725.881 101.722 732.101 109.52L710.695 131.241C705.207 124.929 699.443 120.287 693.406 117.317C687.551 114.161 680.782 112.583 673.098 112.583C663.584 112.583 656.083 114.532 650.594 118.431C645.288 122.33 642.635 127.807 642.635 134.862C642.635 140.803 644.282 145.63 647.575 149.343C650.868 152.871 655.168 155.934 660.473 158.533C665.962 160.947 671.909 163.267 678.312 165.496C684.898 167.724 691.393 170.23 697.797 173.015C704.384 175.799 710.329 179.42 715.635 183.876C721.124 188.146 725.515 193.716 728.808 200.585C732.101 207.454 733.748 216.087 733.748 226.484C733.748 243.936 727.619 257.768 715.361 267.979C703.286 278.19 686.911 283.296 666.237 283.296ZM814.653 283.296C801.663 283.296 789.861 280.233 779.248 274.105C768.822 267.979 760.589 259.624 754.551 249.042C748.514 238.459 745.495 226.67 745.495 213.674C745.495 200.492 748.514 188.702 754.551 178.306C760.589 167.724 768.822 159.369 779.248 153.242C789.861 147.115 801.663 144.052 814.653 144.052C824.896 144.052 834.409 146.094 843.193 150.179C852.159 154.078 859.754 159.74 865.973 167.167L846.211 187.496C842.369 182.855 837.704 179.42 832.215 177.192C826.908 174.778 821.054 173.572 814.653 173.572C807.152 173.572 800.475 175.335 794.621 178.863C788.949 182.205 784.466 186.846 781.172 192.787C778.059 198.728 776.506 205.69 776.506 213.674C776.506 221.471 778.059 228.434 781.172 234.56C784.466 240.502 788.949 245.236 794.621 248.763C800.475 252.105 807.152 253.776 814.653 253.776C821.054 253.776 826.908 252.662 832.215 250.434C837.704 248.021 842.369 244.493 846.211 239.851L865.973 260.181C859.754 267.608 852.159 273.363 843.193 277.448C834.409 281.346 824.896 283.296 814.653 283.296ZM882.522 280.511V146.837H912.709V280.511H882.522ZM897.618 122.33C892.494 122.33 888.193 120.566 884.716 117.039C881.421 113.511 879.78 109.148 879.78 103.95C879.78 98.7515 881.421 94.3886 884.716 90.8608C888.193 87.3331 892.494 85.5695 897.618 85.5695C902.919 85.5695 907.219 87.3331 910.514 90.8608C913.809 94.3886 915.456 98.7515 915.456 103.95C915.456 109.148 913.809 113.511 910.514 117.039C907.219 120.566 902.919 122.33 897.618 122.33ZM1031.37 280.511V203.37C1031.37 194.458 1028.53 187.125 1022.86 181.369C1017.37 175.614 1010.24 172.736 1001.46 172.736C995.598 172.736 990.386 174.036 985.815 176.635C981.237 179.234 977.672 182.855 975.107 187.496C972.548 192.138 971.265 197.429 971.265 203.37L959.47 196.686C959.47 186.475 961.664 177.47 966.053 169.673C970.442 161.69 976.484 155.47 984.167 151.014C992.033 146.373 1000.82 144.052 1010.51 144.052C1020.39 144.052 1029.17 146.651 1036.86 151.85C1044.54 156.862 1050.58 163.453 1054.97 171.622C1059.36 179.605 1061.56 187.96 1061.56 196.686V280.511H1031.37ZM941.078 280.511V146.837H971.265V280.511H941.078ZM1147.12 283.296C1134.32 283.296 1122.7 280.233 1112.26 274.105C1101.84 267.793 1093.52 259.346 1087.29 248.763C1081.25 238.181 1078.24 226.391 1078.24 213.395C1078.24 200.399 1081.25 188.702 1087.29 178.306C1093.52 167.909 1101.84 159.647 1112.26 153.521C1122.7 147.208 1134.32 144.052 1147.12 144.052C1160.11 144.052 1171.82 147.115 1182.25 153.242C1192.68 159.369 1200.91 167.724 1206.95 178.306C1213.17 188.702 1216.28 200.399 1216.28 213.395C1216.28 226.391 1213.17 238.181 1206.95 248.763C1200.91 259.346 1192.68 267.793 1182.25 274.105C1171.82 280.233 1160.11 283.296 1147.12 283.296ZM1147.12 253.776C1154.62 253.776 1161.21 252.105 1166.88 248.763C1172.73 245.236 1177.22 240.408 1180.33 234.282C1183.62 228.155 1185.26 221.193 1185.26 213.395C1185.26 205.598 1183.62 198.728 1180.33 192.787C1177.03 186.846 1172.55 182.205 1166.88 178.863C1161.21 175.335 1154.62 173.572 1147.12 173.572C1139.8 173.572 1133.22 175.335 1127.36 178.863C1121.69 182.205 1117.21 186.846 1113.91 192.787C1110.81 198.728 1109.25 205.598 1109.25 213.395C1109.25 221.193 1110.81 228.155 1113.91 234.282C1117.21 240.408 1121.69 245.236 1127.36 248.763C1133.22 252.105 1139.8 253.776 1147.12 253.776ZM1291.05 283.296C1279.16 283.296 1268.37 280.233 1258.67 274.105C1249.16 267.979 1241.56 259.717 1235.89 249.32C1230.4 238.738 1227.66 226.948 1227.66 213.952C1227.66 200.77 1230.4 188.981 1235.89 178.584C1241.56 168.002 1249.16 159.647 1258.67 153.521C1268.37 147.208 1279.16 144.052 1291.05 144.052C1301.12 144.052 1309.99 146.28 1317.67 150.736C1325.54 155.006 1331.77 160.947 1336.34 168.559C1340.91 176.171 1343.2 184.804 1343.2 194.458V232.89C1343.2 242.544 1340.91 251.177 1336.34 258.789C1331.95 266.401 1325.82 272.434 1317.95 276.891C1310.09 281.16 1301.12 283.296 1291.05 283.296ZM1296 254.333C1303.5 254.333 1309.99 252.662 1315.48 249.32C1321.15 245.793 1325.54 240.965 1328.65 234.839C1331.77 228.712 1333.32 221.657 1333.32 213.674C1333.32 205.69 1331.77 198.636 1328.65 192.509C1325.54 186.382 1321.15 181.648 1315.48 178.306C1309.99 174.778 1303.5 173.015 1296 173.015C1288.68 173.015 1282.18 174.778 1276.51 178.306C1271.02 181.648 1266.63 186.382 1263.34 192.509C1260.23 198.636 1258.67 205.69 1258.67 213.674C1258.67 221.657 1260.23 228.712 1263.34 234.839C1266.63 240.965 1271.02 245.793 1276.51 249.32C1282.18 252.662 1288.68 254.333 1296 254.333ZM1361.59 280.511H1331.39V244.586L1336.61 212.003L1331.39 179.698V80H1361.59V280.511ZM1450.8 283.296C1437.62 283.296 1425.73 280.325 1415.12 274.384C1404.7 268.257 1396.37 259.903 1390.15 249.32C1384.11 238.738 1381.09 226.856 1381.09 213.674C1381.09 200.492 1384.11 188.702 1390.15 178.306C1396.19 167.724 1404.32 159.369 1414.57 153.242C1425 147.115 1436.53 144.052 1449.15 144.052C1461.41 144.052 1472.21 146.93 1481.54 152.685C1491.05 158.441 1498.46 166.331 1503.76 176.356C1509.25 186.382 1512 197.8 1512 210.61C1512 212.838 1511.81 215.159 1511.45 217.573C1511.26 219.801 1510.9 222.307 1510.35 225.092H1402.22V200.028H1494.71L1483.45 210.053C1483.09 201.885 1481.54 195.015 1478.79 189.445C1476.05 183.876 1472.11 179.605 1466.99 176.635C1462.05 173.664 1455.92 172.179 1448.6 172.179C1440.92 172.179 1434.24 173.85 1428.57 177.192C1422.9 180.534 1418.5 185.268 1415.4 191.395C1412.28 197.336 1410.73 204.484 1410.73 212.838C1410.73 221.193 1412.38 228.527 1415.67 234.839C1418.96 241.151 1423.63 246.071 1429.66 249.599C1435.71 252.94 1442.65 254.611 1450.53 254.611C1457.29 254.611 1463.52 253.405 1469.19 250.991C1475.04 248.577 1479.98 245.05 1484.01 240.408L1503.22 260.181C1496.81 267.793 1489.04 273.548 1479.89 277.448C1470.74 281.346 1461.05 283.296 1450.8 283.296Z" fill="url(#paint2_linear_3015_8987)"/>
<path d="M614.273 397.898V336.46C614.273 332.484 615.136 329.034 616.861 326.108C618.587 323.107 620.95 320.744 623.95 319.019C627.026 317.294 630.589 316.431 634.64 316.431C637.716 316.431 640.379 316.956 642.629 318.006C644.88 319.057 646.943 320.594 648.818 322.62L642.179 329.146C641.204 328.096 640.116 327.308 638.916 326.783C637.716 326.183 636.253 325.883 634.528 325.883C631.302 325.883 628.789 326.821 626.989 328.696C625.263 330.572 624.4 333.16 624.4 336.46V397.898H614.273ZM601.108 353.676V344.449H641.392V353.676H601.108ZM672.906 399.024C667.655 399.024 662.929 397.786 658.728 395.31C654.527 392.835 651.189 389.497 648.714 385.296C646.238 381.02 645 376.256 645 371.005C645 365.829 646.238 361.178 648.714 357.052C651.189 352.851 654.527 349.513 658.728 347.038C662.929 344.562 667.655 343.324 672.906 343.324C678.082 343.324 682.771 344.562 686.972 347.038C691.248 349.438 694.623 352.739 697.099 356.94C699.574 361.141 700.812 365.829 700.812 371.005C700.812 376.256 699.574 381.02 697.099 385.296C694.623 389.497 691.248 392.835 686.972 395.31C682.771 397.786 678.082 399.024 672.906 399.024ZM672.906 389.234C676.282 389.234 679.283 388.446 681.908 386.871C684.534 385.296 686.597 383.158 688.097 380.457C689.597 377.682 690.347 374.531 690.347 371.005C690.347 367.554 689.56 364.479 687.984 361.778C686.484 359.078 684.421 356.977 681.796 355.477C679.245 353.902 676.282 353.114 672.906 353.114C669.531 353.114 666.53 353.902 663.904 355.477C661.279 356.977 659.216 359.078 657.716 361.778C656.215 364.479 655.465 367.554 655.465 371.005C655.465 374.531 656.215 377.682 657.716 380.457C659.216 383.158 661.279 385.296 663.904 386.871C666.53 388.446 669.531 389.234 672.906 389.234ZM712.223 397.898V344.449H722.35V397.898H712.223ZM722.35 367.404L718.524 365.717C718.524 358.89 720.1 353.451 723.25 349.401C726.401 345.35 730.939 343.324 736.866 343.324C739.566 343.324 742.004 343.812 744.18 344.787C746.355 345.687 748.381 347.225 750.256 349.401L743.617 356.265C742.492 355.064 741.254 354.202 739.904 353.676C738.554 353.151 736.978 352.889 735.178 352.889C731.427 352.889 728.351 354.089 725.951 356.49C723.55 358.89 722.35 362.528 722.35 367.404ZM784.571 397.898V319.807H791.997L825.079 374.156H820.016L853.098 319.807H860.524V397.898H849.947V338.373L852.423 339.048L826.317 381.92H818.89L792.785 339.048L795.148 338.373V397.898H784.571ZM899.893 399.024C895.017 399.024 890.591 397.823 886.615 395.423C882.639 392.947 879.488 389.609 877.163 385.408C874.912 381.207 873.787 376.481 873.787 371.23C873.787 365.979 874.912 361.253 877.163 357.052C879.488 352.851 882.602 349.513 886.502 347.038C890.478 344.562 894.942 343.324 899.893 343.324C903.944 343.324 907.544 344.187 910.695 345.912C913.921 347.563 916.509 349.888 918.459 352.889C920.41 355.814 921.497 359.228 921.722 363.128V379.219C921.497 383.045 920.41 386.458 918.459 389.459C916.584 392.46 914.033 394.823 910.808 396.548C907.657 398.199 904.019 399.024 899.893 399.024ZM901.581 389.459C906.607 389.459 910.658 387.771 913.733 384.396C916.809 380.945 918.347 376.556 918.347 371.23C918.347 367.554 917.634 364.366 916.209 361.666C914.859 358.89 912.908 356.752 910.358 355.252C907.807 353.676 904.844 352.889 901.468 352.889C898.092 352.889 895.092 353.676 892.466 355.252C889.916 356.827 887.89 359.003 886.39 361.778C884.965 364.479 884.252 367.592 884.252 371.118C884.252 374.718 884.965 377.907 886.39 380.682C887.89 383.383 889.953 385.521 892.579 387.096C895.204 388.671 898.205 389.459 901.581 389.459ZM917.672 397.898V383.495L919.585 370.443L917.672 357.502V344.449H927.911V397.898H917.672ZM980.464 397.898V366.729C980.464 362.678 979.188 359.34 976.638 356.715C974.087 354.089 970.787 352.776 966.736 352.776C964.035 352.776 961.635 353.376 959.534 354.577C957.434 355.777 955.783 357.427 954.583 359.528C953.383 361.628 952.783 364.029 952.783 366.729L948.619 364.366C948.619 360.315 949.519 356.715 951.32 353.564C953.12 350.413 955.633 347.938 958.859 346.137C962.085 344.262 965.723 343.324 969.774 343.324C973.825 343.324 977.388 344.337 980.464 346.362C983.614 348.388 986.09 351.051 987.89 354.352C989.691 357.577 990.591 361.028 990.591 364.704V397.898H980.464ZM942.656 397.898V344.449H952.783V397.898H942.656ZM1025.79 399.024C1021.44 399.024 1017.5 398.048 1013.98 396.098C1010.53 394.073 1007.83 391.297 1005.88 387.771C1003.93 384.246 1002.95 380.157 1002.95 375.506V344.449H1013.08V375.056C1013.08 377.982 1013.57 380.532 1014.54 382.708C1015.59 384.808 1017.09 386.421 1019.04 387.546C1020.99 388.671 1023.28 389.234 1025.91 389.234C1029.88 389.234 1033 387.996 1035.25 385.521C1037.5 382.97 1038.62 379.482 1038.62 375.056V344.449H1048.75V375.506C1048.75 380.157 1047.77 384.246 1045.82 387.771C1043.87 391.297 1041.17 394.073 1037.72 396.098C1034.35 398.048 1030.37 399.024 1025.79 399.024ZM1069.97 397.898V336.46C1069.97 332.484 1070.84 329.034 1072.56 326.108C1074.29 323.107 1076.65 320.744 1079.65 319.019C1082.73 317.294 1086.29 316.431 1090.34 316.431C1093.42 316.431 1096.08 316.956 1098.33 318.006C1100.58 319.057 1102.64 320.594 1104.52 322.62L1097.88 329.146C1096.9 328.096 1095.82 327.308 1094.62 326.783C1093.42 326.183 1091.95 325.883 1090.23 325.883C1087 325.883 1084.49 326.821 1082.69 328.696C1080.96 330.572 1080.1 333.16 1080.1 336.46V397.898H1069.97ZM1056.81 353.676V344.449H1097.09V353.676H1056.81ZM1126.92 399.024C1122.04 399.024 1117.62 397.823 1113.64 395.423C1109.67 392.947 1106.51 389.609 1104.19 385.408C1101.94 381.207 1100.81 376.481 1100.81 371.23C1100.81 365.979 1101.94 361.253 1104.19 357.052C1106.51 352.851 1109.63 349.513 1113.53 347.038C1117.5 344.562 1121.97 343.324 1126.92 343.324C1130.97 343.324 1134.57 344.187 1137.72 345.912C1140.95 347.563 1143.54 349.888 1145.49 352.889C1147.44 355.814 1148.52 359.228 1148.75 363.128V379.219C1148.52 383.045 1147.44 386.458 1145.49 389.459C1143.61 392.46 1141.06 394.823 1137.83 396.548C1134.68 398.199 1131.04 399.024 1126.92 399.024ZM1128.61 389.459C1133.63 389.459 1137.68 387.771 1140.76 384.396C1143.84 380.945 1145.37 376.556 1145.37 371.23C1145.37 367.554 1144.66 364.366 1143.23 361.666C1141.88 358.89 1139.93 356.752 1137.38 355.252C1134.83 353.676 1131.87 352.889 1128.49 352.889C1125.12 352.889 1122.12 353.676 1119.49 355.252C1116.94 356.827 1114.92 359.003 1113.42 361.778C1111.99 364.479 1111.28 367.592 1111.28 371.118C1111.28 374.718 1111.99 377.907 1113.42 380.682C1114.92 383.383 1116.98 385.521 1119.6 387.096C1122.23 388.671 1125.23 389.459 1128.61 389.459ZM1144.7 397.898V383.495L1146.61 370.443L1144.7 357.502V344.449H1154.94V397.898H1144.7ZM1194.1 399.024C1188.85 399.024 1184.08 397.786 1179.81 395.31C1175.61 392.835 1172.27 389.497 1169.79 385.296C1167.39 381.02 1166.19 376.294 1166.19 371.118C1166.19 365.867 1167.39 361.141 1169.79 356.94C1172.27 352.739 1175.61 349.438 1179.81 347.038C1184.08 344.562 1188.85 343.324 1194.1 343.324C1198.23 343.324 1202.05 344.112 1205.58 345.687C1209.1 347.188 1212.14 349.401 1214.69 352.326L1207.94 359.078C1206.29 357.127 1204.26 355.664 1201.86 354.689C1199.54 353.639 1196.95 353.114 1194.1 353.114C1190.72 353.114 1187.72 353.902 1185.1 355.477C1182.47 356.977 1180.41 359.078 1178.91 361.778C1177.41 364.479 1176.66 367.592 1176.66 371.118C1176.66 374.643 1177.41 377.757 1178.91 380.457C1180.41 383.158 1182.47 385.296 1185.1 386.871C1187.72 388.446 1190.72 389.234 1194.1 389.234C1196.95 389.234 1199.54 388.746 1201.86 387.771C1204.26 386.721 1206.33 385.221 1208.05 383.27L1214.69 390.022C1212.22 392.872 1209.18 395.085 1205.58 396.661C1202.05 398.236 1198.23 399.024 1194.1 399.024ZM1232.29 397.898V322.057H1242.42V397.898H1232.29ZM1219.12 353.676V344.449H1255.58V353.676H1219.12ZM1287 399.024C1282.64 399.024 1278.71 398.048 1275.18 396.098C1271.73 394.073 1269.03 391.297 1267.08 387.771C1265.13 384.246 1264.15 380.157 1264.15 375.506V344.449H1274.28V375.056C1274.28 377.982 1274.77 380.532 1275.74 382.708C1276.79 384.808 1278.29 386.421 1280.24 387.546C1282.19 388.671 1284.48 389.234 1287.11 389.234C1291.08 389.234 1294.2 387.996 1296.45 385.521C1298.7 382.97 1299.82 379.482 1299.82 375.056V344.449H1309.95V375.506C1309.95 380.157 1308.97 384.246 1307.02 387.771C1305.07 391.297 1302.37 394.073 1298.92 396.098C1295.55 398.048 1291.57 399.024 1287 399.024ZM1323.52 397.898V344.449H1333.65V397.898H1323.52ZM1333.65 367.404L1329.82 365.717C1329.82 358.89 1331.4 353.451 1334.55 349.401C1337.7 345.35 1342.24 343.324 1348.17 343.324C1350.87 343.324 1353.3 343.812 1355.48 344.787C1357.66 345.687 1359.68 347.225 1361.56 349.401L1354.92 356.265C1353.79 355.064 1352.55 354.202 1351.2 353.676C1349.85 353.151 1348.28 352.889 1346.48 352.889C1342.73 352.889 1339.65 354.089 1337.25 356.49C1334.85 358.89 1333.65 362.528 1333.65 367.404ZM1391.68 399.024C1386.36 399.024 1381.56 397.823 1377.28 395.423C1373 392.947 1369.63 389.609 1367.15 385.408C1364.68 381.207 1363.44 376.444 1363.44 371.118C1363.44 365.867 1364.64 361.141 1367.04 356.94C1369.52 352.739 1372.82 349.438 1376.94 347.038C1381.14 344.562 1385.83 343.324 1391.01 343.324C1395.96 343.324 1400.31 344.449 1404.06 346.7C1407.89 348.95 1410.85 352.064 1412.95 356.039C1415.13 360.015 1416.21 364.516 1416.21 369.542C1416.21 370.293 1416.18 371.118 1416.1 372.018C1416.03 372.843 1415.88 373.818 1415.65 374.944H1370.53V366.504H1410.25L1406.54 369.767C1406.54 366.167 1405.9 363.128 1404.62 360.653C1403.35 358.102 1401.55 356.152 1399.22 354.802C1396.9 353.376 1394.08 352.664 1390.78 352.664C1387.33 352.664 1384.29 353.414 1381.67 354.914C1379.04 356.415 1377.02 358.515 1375.59 361.216C1374.17 363.916 1373.45 367.104 1373.45 370.78C1373.45 374.531 1374.2 377.832 1375.71 380.682C1377.21 383.458 1379.34 385.633 1382.12 387.209C1384.89 388.709 1388.08 389.459 1391.68 389.459C1394.68 389.459 1397.42 388.934 1399.9 387.884C1402.45 386.834 1404.62 385.258 1406.42 383.158L1412.95 389.797C1410.4 392.797 1407.25 395.085 1403.5 396.661C1399.82 398.236 1395.88 399.024 1391.68 399.024ZM1427.26 397.898V344.449H1437.38V397.898H1427.26ZM1437.38 367.404L1433.56 365.717C1433.56 358.89 1435.13 353.451 1438.28 349.401C1441.43 345.35 1445.97 343.324 1451.9 343.324C1454.6 343.324 1457.04 343.812 1459.21 344.787C1461.39 345.687 1463.41 347.225 1465.29 349.401L1458.65 356.265C1457.53 355.064 1456.29 354.202 1454.94 353.676C1453.59 353.151 1452.01 352.889 1450.21 352.889C1446.46 352.889 1443.38 354.089 1440.98 356.49C1438.58 358.89 1437.38 362.528 1437.38 367.404ZM1488.2 399.024C1485.2 399.024 1482.35 398.649 1479.65 397.898C1477.02 397.073 1474.59 395.948 1472.34 394.523C1470.09 393.022 1468.14 391.26 1466.49 389.234L1473.01 382.708C1474.96 385.108 1477.21 386.909 1479.76 388.109C1482.31 389.234 1485.16 389.797 1488.31 389.797C1491.47 389.797 1493.9 389.272 1495.63 388.221C1497.35 387.096 1498.22 385.558 1498.22 383.608C1498.22 381.657 1497.5 380.157 1496.08 379.107C1494.73 377.982 1492.97 377.081 1490.79 376.406C1488.61 375.656 1486.29 374.944 1483.81 374.268C1481.41 373.518 1479.13 372.581 1476.95 371.455C1474.77 370.33 1472.97 368.792 1471.55 366.842C1470.2 364.891 1469.52 362.303 1469.52 359.078C1469.52 355.852 1470.31 353.076 1471.89 350.751C1473.46 348.35 1475.64 346.512 1478.41 345.237C1481.26 343.962 1484.68 343.324 1488.65 343.324C1492.85 343.324 1496.57 344.074 1499.79 345.575C1503.09 347 1505.79 349.176 1507.89 352.101L1501.37 358.628C1499.87 356.677 1497.99 355.177 1495.74 354.127C1493.57 353.076 1491.09 352.551 1488.31 352.551C1485.39 352.551 1483.14 353.076 1481.56 354.127C1480.06 355.102 1479.31 356.49 1479.31 358.29C1479.31 360.09 1479.99 361.478 1481.34 362.453C1482.69 363.429 1484.45 364.254 1486.63 364.929C1488.88 365.604 1491.2 366.317 1493.6 367.067C1496 367.742 1498.29 368.68 1500.47 369.88C1502.64 371.08 1504.41 372.693 1505.76 374.718C1507.18 376.744 1507.89 379.407 1507.89 382.708C1507.89 387.734 1506.09 391.71 1502.49 394.635C1498.97 397.561 1494.2 399.024 1488.2 399.024Z" fill="url(#paint3_linear_3015_8987)"/>
<path d="M1218.7 468.066C1216.67 468.066 1214.82 467.652 1213.17 466.825C1211.55 465.96 1210.25 464.774 1209.28 463.27C1208.3 461.765 1207.75 460.053 1207.64 458.135V450.065C1207.75 448.109 1208.3 446.397 1209.28 444.93C1210.29 443.425 1211.61 442.259 1213.23 441.431C1214.88 440.566 1216.71 440.133 1218.7 440.133C1221.14 440.133 1223.35 440.754 1225.3 441.995C1227.3 443.237 1228.86 444.911 1229.99 447.018C1231.11 449.124 1231.68 451.495 1231.68 454.128C1231.68 456.761 1231.11 459.131 1229.99 461.238C1228.86 463.345 1227.3 465.019 1225.3 466.26C1223.35 467.464 1221.14 468.066 1218.7 468.066ZM1204.59 467.502V427.211H1209.67V447.243L1208.71 453.733L1209.67 460.279V467.502H1204.59ZM1217.85 463.27C1219.55 463.27 1221.03 462.875 1222.31 462.085C1223.59 461.295 1224.61 460.222 1225.36 458.868C1226.11 457.476 1226.49 455.877 1226.49 454.072C1226.49 452.303 1226.11 450.723 1225.36 449.331C1224.61 447.939 1223.59 446.867 1222.31 446.115C1221.03 445.325 1219.56 444.93 1217.91 444.93C1216.22 444.93 1214.73 445.325 1213.45 446.115C1212.17 446.867 1211.17 447.939 1210.46 449.331C1209.75 450.723 1209.39 452.322 1209.39 454.128C1209.39 455.896 1209.73 457.476 1210.4 458.868C1211.12 460.222 1212.12 461.295 1213.39 462.085C1214.71 462.875 1216.2 463.27 1217.85 463.27ZM1245.19 467.728L1233.57 440.698H1239.21L1247.84 461.859H1246.04L1255.12 440.698H1260.77L1248.24 467.728H1245.19ZM1237.52 478.732L1245.42 462.536L1248.24 467.728L1243.16 478.732H1237.52ZM1288.91 468.066C1285.82 468.066 1283.19 467.502 1281.01 466.373C1278.82 465.245 1276.89 463.608 1275.19 461.464L1278.81 457.852C1280.05 459.583 1281.48 460.9 1283.09 461.802C1284.71 462.668 1286.71 463.1 1289.08 463.1C1291.41 463.1 1293.27 462.593 1294.66 461.577C1296.09 460.561 1296.81 459.169 1296.81 457.401C1296.81 455.934 1296.47 454.749 1295.79 453.846C1295.11 452.943 1294.19 452.209 1293.03 451.645C1291.9 451.043 1290.66 450.516 1289.3 450.065C1287.95 449.576 1286.59 449.068 1285.24 448.541C1283.88 447.977 1282.64 447.3 1281.51 446.51C1280.39 445.682 1279.46 444.61 1278.75 443.293C1278.07 441.977 1277.73 440.321 1277.73 438.327C1277.73 436.108 1278.26 434.227 1279.31 432.684C1280.41 431.104 1281.87 429.9 1283.72 429.073C1285.6 428.208 1287.7 427.775 1290.04 427.775C1292.59 427.775 1294.89 428.283 1296.92 429.299C1298.95 430.277 1300.61 431.575 1301.89 433.192L1298.27 436.804C1297.11 435.449 1295.85 434.434 1294.49 433.757C1293.18 433.079 1291.65 432.741 1289.92 432.741C1287.82 432.741 1286.14 433.211 1284.9 434.152C1283.66 435.054 1283.04 436.334 1283.04 437.989C1283.04 439.306 1283.38 440.378 1284.05 441.205C1284.77 441.995 1285.69 442.673 1286.82 443.237C1287.95 443.801 1289.19 444.328 1290.54 444.817C1291.94 445.268 1293.31 445.776 1294.66 446.341C1296.02 446.905 1297.26 447.62 1298.39 448.485C1299.52 449.35 1300.42 450.479 1301.1 451.871C1301.81 453.225 1302.17 454.937 1302.17 457.006C1302.17 460.467 1300.96 463.176 1298.56 465.132C1296.19 467.088 1292.97 468.066 1288.91 468.066ZM1320.27 468.066C1317.64 468.066 1315.25 467.446 1313.11 466.204C1311 464.963 1309.33 463.288 1308.09 461.182C1306.88 459.037 1306.28 456.667 1306.28 454.072C1306.28 451.438 1306.88 449.068 1308.09 446.961C1309.33 444.855 1311 443.199 1313.11 441.995C1315.25 440.754 1317.64 440.133 1320.27 440.133C1322.34 440.133 1324.26 440.528 1326.03 441.318C1327.8 442.071 1329.32 443.18 1330.6 444.648L1327.22 448.033C1326.39 447.055 1325.37 446.322 1324.17 445.833C1323 445.306 1321.7 445.043 1320.27 445.043C1318.58 445.043 1317.08 445.438 1315.76 446.228C1314.44 446.98 1313.41 448.033 1312.66 449.388C1311.9 450.742 1311.53 452.303 1311.53 454.072C1311.53 455.84 1311.9 457.401 1312.66 458.755C1313.41 460.11 1314.44 461.182 1315.76 461.972C1317.08 462.762 1318.58 463.157 1320.27 463.157C1321.7 463.157 1323 462.912 1324.17 462.423C1325.37 461.897 1326.41 461.144 1327.27 460.166L1330.6 463.552C1329.36 464.981 1327.84 466.091 1326.03 466.881C1324.26 467.671 1322.34 468.066 1320.27 468.066ZM1335.69 467.502V440.698H1340.77V467.502H1335.69ZM1338.23 435.337C1337.29 435.337 1336.52 435.036 1335.92 434.434C1335.32 433.794 1335.02 433.004 1335.02 432.064C1335.02 431.161 1335.32 430.408 1335.92 429.806C1336.52 429.167 1337.29 428.847 1338.23 428.847C1339.17 428.847 1339.95 429.167 1340.55 429.806C1341.15 430.408 1341.45 431.161 1341.45 432.064C1341.45 433.004 1341.15 433.794 1340.55 434.434C1339.95 435.036 1339.17 435.337 1338.23 435.337ZM1348.26 467.502V440.698H1353.34V467.502H1348.26ZM1366.37 467.502V451.306C1366.37 449.313 1365.75 447.751 1364.51 446.623C1363.31 445.456 1361.78 444.873 1359.94 444.873C1358.7 444.873 1357.59 445.137 1356.61 445.663C1355.63 446.19 1354.84 446.924 1354.24 447.864C1353.64 448.805 1353.34 449.933 1353.34 451.25L1351.25 450.234C1351.25 448.203 1351.68 446.435 1352.55 444.93C1353.45 443.425 1354.67 442.259 1356.21 441.431C1357.76 440.566 1359.49 440.133 1361.41 440.133C1363.29 440.133 1364.98 440.547 1366.48 441.375C1368.03 442.202 1369.23 443.369 1370.1 444.873C1371 446.378 1371.45 448.165 1371.45 450.234V467.502H1366.37ZM1384.49 467.502V451.306C1384.49 449.313 1383.87 447.751 1382.62 446.623C1381.42 445.456 1379.91 444.873 1378.11 444.873C1376.87 444.873 1375.74 445.137 1374.72 445.663C1373.75 446.19 1372.96 446.924 1372.35 447.864C1371.75 448.805 1371.45 449.933 1371.45 451.25L1368.57 450.234C1368.69 448.165 1369.23 446.397 1370.21 444.93C1371.22 443.425 1372.52 442.259 1374.1 441.431C1375.68 440.566 1377.41 440.133 1379.29 440.133C1381.25 440.133 1383 440.547 1384.54 441.375C1386.08 442.202 1387.31 443.369 1388.21 444.873C1389.15 446.378 1389.62 448.184 1389.62 450.291V467.502H1384.49ZM1410.64 468.066C1408.61 468.066 1406.76 467.652 1405.11 466.825C1403.49 465.96 1402.19 464.774 1401.22 463.27C1400.24 461.765 1399.69 460.053 1399.58 458.135V450.065C1399.69 448.109 1400.24 446.397 1401.22 444.93C1402.23 443.425 1403.55 442.259 1405.17 441.431C1406.82 440.566 1408.65 440.133 1410.64 440.133C1413.08 440.133 1415.29 440.754 1417.24 441.995C1419.24 443.237 1420.8 444.911 1421.93 447.018C1423.05 449.124 1423.62 451.495 1423.62 454.128C1423.62 456.761 1423.05 459.131 1421.93 461.238C1420.8 463.345 1419.24 465.019 1417.24 466.26C1415.29 467.464 1413.08 468.066 1410.64 468.066ZM1396.53 478.732V440.698H1401.61V447.751L1400.65 454.241L1401.61 460.787V478.732H1396.53ZM1409.79 463.27C1411.49 463.27 1412.97 462.875 1414.25 462.085C1415.53 461.295 1416.55 460.222 1417.3 458.868C1418.05 457.476 1418.43 455.877 1418.43 454.072C1418.43 452.303 1418.05 450.723 1417.3 449.331C1416.55 447.939 1415.53 446.867 1414.25 446.115C1412.97 445.325 1411.5 444.93 1409.85 444.93C1408.16 444.93 1406.67 445.325 1405.39 446.115C1404.11 446.867 1403.12 447.939 1402.4 449.331C1401.69 450.723 1401.33 452.322 1401.33 454.128C1401.33 455.896 1401.67 457.476 1402.34 458.868C1403.06 460.222 1404.06 461.295 1405.34 462.085C1406.65 462.875 1408.14 463.27 1409.79 463.27ZM1429.38 467.502V427.211H1434.45V467.502H1429.38ZM1441.94 467.502V440.698H1447.02V467.502H1441.94ZM1444.48 435.337C1443.54 435.337 1442.77 435.036 1442.17 434.434C1441.57 433.794 1441.26 433.004 1441.26 432.064C1441.26 431.161 1441.57 430.408 1442.17 429.806C1442.77 429.167 1443.54 428.847 1444.48 428.847C1445.42 428.847 1446.19 429.167 1446.8 429.806C1447.4 430.408 1447.7 431.161 1447.7 432.064C1447.7 433.004 1447.4 433.794 1446.8 434.434C1446.19 435.036 1445.42 435.337 1444.48 435.337ZM1458.34 467.502V436.691C1458.34 434.697 1458.78 432.967 1459.64 431.499C1460.51 429.995 1461.69 428.809 1463.2 427.944C1464.74 427.079 1466.53 426.646 1468.56 426.646C1470.1 426.646 1471.43 426.91 1472.56 427.436C1473.69 427.963 1474.73 428.734 1475.67 429.75L1472.34 433.023C1471.85 432.496 1471.3 432.101 1470.7 431.838C1470.1 431.537 1469.37 431.386 1468.5 431.386C1466.88 431.386 1465.62 431.857 1464.72 432.797C1463.85 433.738 1463.42 435.036 1463.42 436.691V467.502H1458.34ZM1451.74 445.325V440.698H1471.94V445.325H1451.74ZM1484.97 467.728L1473.34 440.698H1478.98L1487.62 461.859H1485.81L1494.9 440.698H1500.54L1488.01 467.728H1484.97ZM1477.29 478.732L1485.19 462.536L1488.01 467.728L1482.93 478.732H1477.29Z" fill="url(#paint4_linear_3015_8987)"/>
<rect x="1503.5" y="44.5" width="63.7327" height="62" rx="31" stroke="#182133" stroke-width="3"/>
<path d="M1520.68 87V65.7603H1523.65V87H1520.68ZM1513.25 67.8401V65.13H1531.05V67.8401H1513.25ZM1534.58 87V65.13H1536.66L1545.93 80.3508H1544.51L1553.77 65.13H1555.85V87H1552.89V70.3297L1553.58 70.5187L1546.27 82.5252H1544.19L1536.88 70.5187L1537.54 70.3297V87H1534.58Z" fill="#182133"/>
<defs>
<linearGradient id="paint0_linear_3015_8987" x1="310.788" y1="488.187" x2="310.788" y2="68.9738" gradientUnits="userSpaceOnUse">
<stop stop-color="#016358"/>
<stop offset="1" stop-color="#182133"/>
</linearGradient>
<linearGradient id="paint1_linear_3015_8987" x1="379.825" y1="451.558" x2="284.193" y2="99.5077" gradientUnits="userSpaceOnUse">
<stop stop-color="#016358"/>
<stop offset="1" stop-color="#182133"/>
</linearGradient>
<linearGradient id="paint2_linear_3015_8987" x1="591.635" y1="182.89" x2="1519.68" y2="182.89" gradientUnits="userSpaceOnUse">
<stop stop-color="#016358"/>
<stop offset="1" stop-color="#182133"/>
</linearGradient>
<linearGradient id="paint3_linear_3015_8987" x1="599" y1="356.898" x2="1512" y2="356.898" gradientUnits="userSpaceOnUse">
<stop stop-color="#026257"/>
<stop offset="1" stop-color="#172334"/>
</linearGradient>
<linearGradient id="paint4_linear_3015_8987" x1="1200.65" y1="447.002" x2="1501.65" y2="447.002" gradientUnits="userSpaceOnUse">
<stop stop-color="#11343D"/>
<stop offset="1" stop-color="#172334"/>
</linearGradient>
</defs>
</svg>
