<svg width="1623" height="560" viewBox="0 0 1623 560" fill="none" xmlns="http://www.w3.org/2000/svg">
<path d="M112.187 282.022L114.867 249.417L143.199 170.621L166.939 141.897L250.023 85.6133L284.482 76.6855L366.418 79.0145L403.558 92.9883L478.985 153.153L499.661 185.759L521.868 266.884V305.7L486.643 398.082L463.287 424.865L392.837 470.28L355.698 483.478L257.681 478.819L223.987 464.457L160.046 412.444L137.84 380.227L112.187 282.022Z" fill="url(#paint0_linear_3002_31801)"/>
<path d="M136.182 380.929L136.086 380.563L111.21 285.602L111.027 284.905L111.168 284.632L112.766 248.87L112.779 248.586L112.876 248.317L140.96 170.661L141.059 170.386L141.238 170.156L165.353 139.083L165.45 139.16L165.844 138.898L247.18 84.9725L247.798 84.5626L248.11 84.624L284.416 74.7617L284.683 74.7705L365.595 77.3125L365.88 77.3218L366.148 77.4186L404.246 91.1344L404.396 91.1175L404.559 91.2472L404.568 91.2493L404.567 91.2521L404.976 91.5748L479.905 150.68L480.483 151.136L480.52 151.397L480.538 151.384L501.144 184.157L501.294 184.398L522.999 266.515L523 266.751L523.32 305.362L523.405 305.566L523.145 306.258L488.119 399.003L487.86 399.691L487.538 399.847L463.632 426.194L463.477 426.365L463.286 426.49L393.589 472.539L393.391 472.67L393.167 472.744L355.991 485.201L355.864 484.814L355.425 484.793L258.681 480.422L258.378 480.409L258.362 480.45L258.246 480.403L257.968 480.389L257.802 480.221L223.137 465.969L222.888 465.866L222.68 465.697L158.931 413.693L158.732 413.531L158.585 413.319L136.272 381.265L136.27 381.263L136.27 381.26L136.087 380.998L136.182 380.929ZM492.634 230.88L519.603 296.339L519.36 267.018L497.921 185.901L481.778 160.226L491.884 231.198L492.634 230.88ZM373.925 362.779L416.378 430.271L484.976 396.996L519.482 305.628L490.061 234.217L413.997 254.88L373.794 362.863L373.925 362.779ZM413.808 251.108L488.163 230.91L477.088 153.138L403.319 94.9468L326.714 103.171L325.108 177.959L413.808 251.108ZM391.799 469.313L461.105 423.523L478.699 404.135L416.686 434.214L363.229 478.887L391.799 469.313ZM324.672 99.6753L324.736 99.6683L395.861 92.0348L365.198 80.9954L284.839 78.4696L256.274 86.2293L324.672 99.6753ZM370.363 361.62L410.651 253.411L322.708 181.221L224.936 245.821L254.479 357.601L370.363 361.62ZM259.554 476.765L354.887 481.074L413.307 432.255L371.219 365.345L254.147 361.286L205.714 421.618L259.554 476.765ZM222.726 242.874L321.472 177.629L323.071 103.123L248.556 88.4737L168.438 141.59L150.534 215.51L222.726 242.874ZM202.768 419.437L251.13 359.195L221.283 246.269L149.395 219.021L114.912 285.352L139.423 378.915L202.768 419.437ZM161.412 410.977L224.754 462.65L251.304 473.565L201.976 423.036L201.935 422.995L201.813 423.192L144.311 386.407L161.412 410.977ZM146.505 216.659L146.61 216.224L163.165 147.875L144.28 172.208L116.393 249.321L115.158 276.959L146.505 216.659Z" fill="white"/>
<path opacity="0.16" d="M116.198 249.538L133.423 295.423L171.703 267.036L194.833 205.712L184.123 159.389L139.92 178.227L138.507 174.823L184.143 155.375L245.349 115.685L245.414 115.617L283.572 75.7891L284.877 77.0758L286.185 78.3623L249.49 116.663L286.61 144.013L353.173 145.65L392.235 122.046L364.163 80.4483L367.17 78.3628L396.056 121.169L454.487 167.782L454.472 167.802L500.248 183.233L499.674 184.986L499.099 186.738L454.259 171.621L439.074 215.439L456.395 280.971L492.773 311.235L519.549 265.556L521.115 266.498L522.68 267.442L494.739 315.109L469.149 383.757L463.572 425.118L459.964 424.617L465.251 385.398L419.015 384.981L362.697 421.151L345.015 464.896L392.248 469.22L391.92 472.898L342.953 468.414L266.542 463.475L266.555 463.265L224.528 466.687L224.237 463.006L264.272 459.746L252.671 415.85L201.186 375.505L153.754 371.109L160.322 409.803L156.732 410.431L149.902 370.187L131.604 300.96L130.869 298.998L112.795 250.852L116.198 249.538ZM466.017 381.712L491.045 314.575L455.049 284.63L415.501 324.101L419.903 381.296L466.017 381.712ZM381.08 199.177L436.13 212.797L451.05 169.739L394.749 124.826L356.075 148.195L381.08 199.177ZM362.002 302.217L413.509 320.908L452.812 281.682L435.573 216.459L380.582 202.855L346.508 246.149L362.002 302.217ZM360.495 418.193L416.329 382.334L411.858 324.231L360.742 305.682L313.071 337.258L310.476 392.66L360.495 418.193ZM287.643 241.487L343.658 243.848L377.706 200.589L352.564 149.33L287.143 147.721L256.884 195.263L287.643 241.487ZM311.184 334.097L358.388 302.829L343.104 247.521L288.059 245.202L268.108 298.177L311.184 334.097ZM341.197 464.6L358.663 421.392L308.887 395.984L256.578 416.362L268.079 459.874L341.197 464.6ZM253.707 193.445L283.65 146.397L246.715 119.183L187.453 157.612L198.232 204.225L253.707 193.445ZM211.188 311.386L264.709 296.847L284.724 243.704L253.774 197.191L197.848 208.061L175.496 267.319L211.188 311.386ZM255.01 413.016L306.82 392.833L309.418 337.405L265.202 300.536L212.15 314.948L203.545 372.687L255.01 413.016ZM200.01 371.688L208.606 314.017L173.301 270.426L134.843 298.945L152.915 367.322L200.01 371.688Z" fill="white"/>
<path opacity="0.32" d="M449.479 170.295C448.837 167.865 450.26 165.368 452.657 164.716C455.053 164.065 457.517 165.507 458.159 167.937C458.802 170.367 457.379 172.864 454.982 173.515C452.585 174.167 450.121 172.725 449.479 170.295ZM487.963 315.919C487.32 313.489 488.743 310.99 491.14 310.34C493.537 309.689 496.001 311.132 496.643 313.561C497.285 315.991 495.862 318.489 493.466 319.139C491.069 319.79 488.605 318.349 487.963 315.919ZM450.147 283.756C449.505 281.326 450.927 278.827 453.323 278.176C455.72 277.525 458.184 278.968 458.826 281.398C459.469 283.827 458.047 286.325 455.65 286.976C453.253 287.627 450.789 286.185 450.147 283.756ZM432.351 216.441C431.709 214.012 433.132 211.514 435.529 210.863C437.925 210.212 440.389 211.654 441.031 214.083C441.673 216.513 440.251 219.012 437.854 219.663C435.458 220.314 432.994 218.871 432.351 216.441ZM462.829 384.525C462.187 382.095 463.61 379.597 466.007 378.946C468.404 378.295 470.867 379.737 471.509 382.166C472.152 384.596 470.73 387.094 468.333 387.745C465.936 388.396 463.472 386.955 462.829 384.525ZM391.034 123.449C390.392 121.019 391.814 118.521 394.211 117.87C396.608 117.219 399.072 118.661 399.714 121.091C400.356 123.521 398.934 126.018 396.537 126.669C394.14 127.32 391.677 125.878 391.034 123.449ZM408.21 323.914C407.568 321.484 408.99 318.986 411.387 318.335C413.784 317.684 416.247 319.126 416.889 321.556C417.532 323.986 416.109 326.484 413.713 327.135C411.316 327.786 408.852 326.344 408.21 323.914ZM375.997 202.038C375.355 199.608 376.777 197.111 379.174 196.46C381.571 195.809 384.034 197.251 384.677 199.681C385.319 202.111 383.896 204.608 381.499 205.259C379.102 205.91 376.639 204.468 375.997 202.038ZM413.449 384.266C412.807 381.837 414.23 379.339 416.626 378.688C419.023 378.037 421.487 379.479 422.129 381.909C422.771 384.339 421.349 386.836 418.952 387.487C416.555 388.138 414.091 386.696 413.449 384.266ZM349.393 148.903C348.751 146.473 350.173 143.976 352.57 143.325C354.966 142.674 357.431 144.116 358.073 146.546C358.715 148.976 357.292 151.474 354.895 152.124C352.499 152.775 350.035 151.333 349.393 148.903ZM355.68 304.698C355.038 302.268 356.46 299.77 358.857 299.119C361.254 298.468 363.717 299.91 364.36 302.34C365.001 304.77 363.58 307.268 361.183 307.919C358.786 308.57 356.323 307.128 355.68 304.698ZM340.209 246.185C339.567 243.756 340.989 241.258 343.386 240.607C345.783 239.956 348.246 241.398 348.888 243.828C349.531 246.258 348.109 248.756 345.712 249.406C343.315 250.057 340.851 248.615 340.209 246.185ZM356.298 421.48C355.655 419.05 357.078 416.552 359.475 415.901C361.872 415.25 364.335 416.692 364.978 419.122C365.62 421.552 364.198 424.049 361.801 424.7C359.404 425.352 356.94 423.91 356.298 421.48ZM281.462 147.084C280.82 144.654 282.243 142.156 284.639 141.505C287.036 140.854 289.499 142.296 290.142 144.726C290.784 147.156 289.362 149.653 286.965 150.304C284.568 150.955 282.104 149.514 281.462 147.084ZM306.524 336.916C305.881 334.486 307.305 331.988 309.702 331.337C312.098 330.686 314.562 332.128 315.204 334.557C315.846 336.987 314.423 339.485 312.027 340.136C309.63 340.787 307.166 339.346 306.524 336.916ZM282.098 244.516C281.455 242.086 282.878 239.589 285.275 238.937C287.672 238.286 290.136 239.728 290.778 242.158C291.421 244.588 289.997 247.086 287.6 247.738C285.204 248.388 282.74 246.945 282.098 244.516ZM338.221 467.416C337.579 464.986 339 462.489 341.397 461.838C343.794 461.187 346.258 462.629 346.9 465.059C347.542 467.489 346.12 469.987 343.723 470.638C341.327 471.289 338.863 469.846 338.221 467.416ZM242.499 117.585C241.857 115.155 243.28 112.658 245.677 112.006C248.074 111.355 250.537 112.797 251.179 115.227C251.821 117.657 250.4 120.154 248.003 120.805C245.606 121.457 243.142 120.015 242.499 117.585ZM304.75 395.403C304.107 392.973 305.529 390.474 307.926 389.823C310.323 389.172 312.788 390.615 313.43 393.044C314.072 395.474 312.649 397.972 310.252 398.623C307.855 399.274 305.392 397.832 304.75 395.403ZM250.356 196.56C249.714 194.13 251.136 191.633 253.533 190.982C255.93 190.331 258.393 191.773 259.035 194.203C259.678 196.633 258.256 199.13 255.859 199.782C253.462 200.432 250.998 198.99 250.356 196.56ZM261.333 299.68C260.691 297.25 262.112 294.753 264.509 294.101C266.906 293.45 269.37 294.892 270.012 297.322C270.654 299.752 269.232 302.249 266.835 302.901C264.438 303.552 261.975 302.11 261.333 299.68ZM262.372 462.087C261.729 459.657 263.151 457.158 265.548 456.507C267.945 455.856 270.409 457.299 271.051 459.729C271.693 462.158 270.271 464.656 267.874 465.307C265.478 465.958 263.014 464.516 262.372 462.087ZM250.277 416.326C249.634 413.896 251.057 411.398 253.454 410.747C255.85 410.096 258.314 411.538 258.956 413.968C259.599 416.398 258.176 418.896 255.779 419.547C253.382 420.198 250.919 418.756 250.277 416.326ZM180.492 157.531C179.849 155.101 181.272 152.603 183.669 151.952C186.066 151.301 188.53 152.744 189.172 155.173C189.814 157.603 188.392 160.1 185.995 160.751C183.598 161.402 181.134 159.961 180.492 157.531ZM192.773 207.485C192.132 205.055 193.553 202.557 195.95 201.907C198.347 201.256 200.81 202.698 201.453 205.128C202.095 207.558 200.673 210.056 198.276 210.707C195.879 211.357 193.416 209.915 192.773 207.485ZM206.203 314.655C205.561 312.226 206.983 309.728 209.38 309.077C211.777 308.426 214.24 309.868 214.882 312.297C215.525 314.727 214.103 317.226 211.706 317.877C209.309 318.528 206.845 317.085 206.203 314.655ZM196.845 374.264C196.203 371.834 197.625 369.337 200.022 368.686C202.419 368.035 204.882 369.477 205.524 371.907C206.166 374.337 204.745 376.834 202.348 377.486C199.951 378.136 197.487 376.694 196.845 374.264ZM169.044 269.103C168.402 266.674 169.825 264.176 172.222 263.525C174.619 262.874 177.083 264.315 177.725 266.745C178.368 269.175 176.944 271.674 174.547 272.325C172.15 272.976 169.687 271.533 169.044 269.103ZM128.138 299.077C127.497 296.648 128.919 294.15 131.316 293.499C133.713 292.848 136.176 294.29 136.819 296.719C137.461 299.149 136.038 301.648 133.641 302.299C131.245 302.95 128.781 301.507 128.138 299.077ZM147.207 371.234C146.565 368.804 147.989 366.306 150.386 365.655C152.782 365.004 155.246 366.446 155.888 368.876C156.53 371.306 155.108 373.803 152.711 374.454C150.314 375.106 147.85 373.664 147.207 371.234Z" fill="white"/>
<path d="M479.03 233.942C477.469 228.032 480.928 221.957 486.757 220.373C492.587 218.79 498.579 222.297 500.142 228.207C501.703 234.117 498.243 240.192 492.414 241.776C486.585 243.359 480.592 239.851 479.03 233.942ZM398.514 258.68C396.562 251.293 400.886 243.699 408.173 241.719C415.46 239.741 422.95 244.124 424.902 251.512C426.855 258.899 422.53 266.493 415.244 268.472C407.957 270.452 400.466 266.067 398.514 258.68ZM404.421 433.407C402.859 427.497 406.319 421.422 412.148 419.838C417.978 418.255 423.969 421.762 425.532 427.672C427.094 433.582 423.635 439.657 417.805 441.241C411.975 442.825 405.983 439.317 404.421 433.407ZM314.409 102.769C312.848 96.8594 316.307 90.784 322.137 89.2004C327.966 87.6171 333.959 91.1248 335.52 97.0347C337.082 102.945 333.623 109.019 327.794 110.603C321.964 112.186 315.971 108.679 314.409 102.769ZM308.168 185.461C306.216 178.074 310.54 170.48 317.827 168.5C325.114 166.521 332.605 170.905 334.557 178.293C336.51 185.681 332.185 193.275 324.898 195.253C317.611 197.233 310.121 192.849 308.168 185.461ZM355.578 369.37C353.625 361.983 357.95 354.389 365.237 352.41C372.523 350.43 380.014 354.814 381.967 362.202C383.919 369.589 379.595 377.183 372.307 379.163C365.02 381.142 357.531 376.758 355.578 369.37ZM240.062 364.437C238.11 357.05 242.434 349.456 249.722 347.476C257.009 345.497 264.499 349.881 266.452 357.269C268.404 364.656 264.079 372.25 256.792 374.23C249.506 376.209 242.015 371.825 240.062 364.437ZM209.596 249.165C207.644 241.778 211.969 234.184 219.255 232.206C226.542 230.226 234.032 234.61 235.985 241.997C237.937 249.385 233.613 256.979 226.326 258.958C219.039 260.937 211.548 256.554 209.596 249.165ZM193.035 423.39C191.473 417.479 194.932 411.405 200.761 409.821C206.591 408.237 212.583 411.745 214.146 417.655C215.708 423.564 212.248 429.64 206.418 431.224C200.589 432.807 194.596 429.299 193.035 423.39ZM139.076 219.244C137.514 213.335 140.974 207.26 146.804 205.676C152.633 204.093 158.625 207.6 160.187 213.51C161.749 219.42 158.29 225.495 152.46 227.079C146.631 228.663 140.638 225.155 139.076 219.244Z" fill="url(#paint1_linear_3002_31801)"/>
<mask id="mask0_3002_31801" style="mask-type:luminance" maskUnits="userSpaceOnUse" x="138" y="88" width="363" height="354">
<path d="M479.031 233.942C477.469 228.032 480.928 221.957 486.758 220.373C492.588 218.79 498.579 222.297 500.142 228.207C501.704 234.117 498.244 240.192 492.415 241.776C486.585 243.359 480.593 239.851 479.031 233.942ZM398.514 258.68C396.562 251.293 400.886 243.699 408.174 241.719C415.46 239.741 422.951 244.124 424.903 251.512C426.856 258.899 422.531 266.493 415.244 268.472C407.957 270.452 400.467 266.067 398.514 258.68ZM404.421 433.407C402.86 427.497 406.319 421.422 412.149 419.838C417.978 418.255 423.97 421.762 425.532 427.672C427.094 433.582 423.635 439.657 417.806 441.241C411.976 442.825 405.983 439.317 404.421 433.407ZM314.41 102.769C312.848 96.8594 316.308 90.784 322.137 89.2004C327.967 87.6171 333.959 91.1248 335.521 97.0347C337.083 102.945 333.624 109.019 327.794 110.603C321.964 112.186 315.972 108.679 314.41 102.769ZM308.169 185.461C306.217 178.074 310.541 170.48 317.827 168.5C325.115 166.521 332.605 170.905 334.557 178.293C336.51 185.681 332.185 193.275 324.899 195.253C317.612 197.233 310.121 192.849 308.169 185.461ZM355.578 369.37C353.626 361.983 357.95 354.389 365.237 352.41C372.524 350.43 380.014 354.814 381.967 362.202C383.919 369.589 379.595 377.183 372.308 379.163C365.021 381.142 357.531 376.758 355.578 369.37ZM240.063 364.437C238.11 357.05 242.435 349.456 249.722 347.476C257.009 345.497 264.5 349.881 266.452 357.269C268.404 364.656 264.08 372.25 256.793 374.23C249.506 376.209 242.016 371.825 240.063 364.437ZM209.597 249.165C207.644 241.778 211.969 234.184 219.256 232.206C226.542 230.226 234.033 234.61 235.986 241.997C237.938 249.385 233.614 256.979 226.326 258.958C219.039 260.937 211.549 256.554 209.597 249.165ZM193.035 423.39C191.473 417.479 194.932 411.405 200.762 409.821C206.592 408.237 212.584 411.745 214.146 417.655C215.708 423.564 212.248 429.64 206.419 431.224C200.589 432.807 194.597 429.299 193.035 423.39ZM139.076 219.244C137.514 213.335 140.974 207.26 146.804 205.676C152.634 204.093 158.626 207.6 160.187 213.51C161.75 219.42 158.29 225.495 152.461 227.079C146.631 228.663 140.639 225.155 139.076 219.244Z" fill="white"/>
</mask>
<g mask="url(#mask0_3002_31801)">
<path d="M355.578 369.372L350.3 370.806H350.301L355.578 369.372ZM160.187 213.512L165.465 212.078V212.077L160.187 213.512ZM479.031 233.943L484.308 232.51C483.527 229.555 485.257 226.517 488.172 225.725L486.757 220.375L485.343 215.025C476.599 217.4 471.41 226.512 473.753 235.377L479.031 233.943ZM486.757 220.375L488.172 225.725C491.087 224.934 494.083 226.688 494.864 229.642L500.142 228.208L505.42 226.774C503.077 217.909 494.087 212.649 485.343 215.025L486.757 220.375ZM500.142 228.208L494.864 229.642C495.645 232.597 493.915 235.635 491 236.427L492.414 241.777L493.829 247.128C502.573 244.752 507.763 235.64 505.42 226.774L500.142 228.208ZM492.414 241.777L491 236.427C488.085 237.218 485.09 235.465 484.308 232.51L479.031 233.943L473.753 235.377C476.096 244.242 485.084 249.503 493.829 247.128L492.414 241.777ZM398.514 258.682L403.792 257.248C402.621 252.816 405.215 248.26 409.588 247.072L408.173 241.721L406.759 236.371C396.557 239.142 390.503 249.773 393.236 260.116L398.514 258.682ZM408.173 241.721L409.588 247.072C413.96 245.885 418.454 248.514 419.625 252.947L424.903 251.514L430.181 250.08C427.447 239.737 416.961 233.6 406.759 236.371L408.173 241.721ZM424.903 251.514L419.625 252.947C420.797 257.38 418.202 261.936 413.83 263.123L415.244 268.474L416.658 273.825C426.86 271.053 432.914 260.422 430.181 250.08L424.903 251.514ZM415.244 268.474L413.83 263.123C409.458 264.311 404.964 261.68 403.792 257.248L398.514 258.682L393.236 260.116C395.97 270.458 406.456 276.596 416.658 273.825L415.244 268.474ZM404.421 433.408L409.699 431.975C408.918 429.02 410.647 425.982 413.563 425.191L412.149 419.84L410.734 414.49C401.99 416.865 396.8 425.977 399.144 434.842L404.421 433.408ZM412.149 419.84L413.563 425.191C416.478 424.399 419.473 426.152 420.255 429.108L425.532 427.674L430.81 426.24C428.467 417.375 419.479 412.114 410.734 414.49L412.149 419.84ZM425.532 427.674L420.255 429.108C421.035 432.063 419.305 435.101 416.391 435.892L417.806 441.242L419.22 446.594C427.965 444.217 433.153 435.105 430.81 426.24L425.532 427.674ZM417.806 441.242L416.391 435.892C413.477 436.684 410.48 434.93 409.699 431.975L404.421 433.408L399.144 434.842C401.487 443.708 410.475 448.969 419.22 446.594L417.806 441.242ZM314.41 102.771L319.687 101.337C318.907 98.3824 320.637 95.3444 323.551 94.5526L322.137 89.2021L320.723 83.8514C311.979 86.2269 306.789 95.3396 309.132 104.205L314.41 102.771ZM322.137 89.2021L323.551 94.5526C326.465 93.761 329.462 95.5148 330.243 98.4701L335.521 97.0364L340.798 95.6028C338.455 86.7381 329.468 81.4764 320.723 83.8514L322.137 89.2021ZM335.521 97.0364L330.243 98.4701C331.024 101.425 329.295 104.462 326.379 105.254L327.794 110.604L329.208 115.955C337.952 113.579 343.141 104.468 340.798 95.6028L335.521 97.0364ZM327.794 110.604L326.38 105.254C323.464 106.046 320.469 104.292 319.687 101.337L314.41 102.771L309.132 104.205C311.475 113.07 320.464 118.331 329.208 115.955L327.794 110.604ZM308.169 185.463L313.447 184.029C312.275 179.596 314.87 175.04 319.242 173.853L317.827 168.502L316.414 163.151C306.211 165.923 300.158 176.555 302.891 186.897L308.169 185.463ZM317.827 168.502L319.242 173.853C323.614 172.665 328.108 175.296 329.28 179.729L334.557 178.295L339.836 176.861C337.102 166.519 326.615 160.38 316.414 163.151L317.827 168.502ZM334.557 178.295L329.28 179.729C330.451 184.162 327.856 188.717 323.484 189.905L324.899 195.255L326.313 200.606C336.514 197.835 342.569 187.203 339.836 176.861L334.557 178.295ZM324.899 195.255L323.484 189.905C319.112 191.092 314.618 188.462 313.447 184.029L308.169 185.463L302.891 186.897C305.625 197.239 316.111 203.377 326.313 200.606L324.899 195.255ZM355.578 369.372L360.856 367.938C359.684 363.506 362.279 358.95 366.651 357.762L365.237 352.412L363.823 347.061C353.62 349.832 347.567 360.463 350.3 370.806L355.578 369.372ZM365.237 352.412L366.651 357.762C371.023 356.575 375.518 359.205 376.689 363.638L381.967 362.204L387.245 360.77C384.511 350.427 374.025 344.29 363.823 347.061L365.237 352.412ZM381.967 362.204L376.689 363.638C377.86 368.07 375.266 372.626 370.893 373.813L372.307 379.165L373.722 384.515C383.924 381.743 389.978 371.112 387.245 360.77L381.967 362.204ZM372.307 379.165L370.894 373.813C366.521 375.001 362.027 372.371 360.856 367.938L355.578 369.372L350.301 370.806C353.034 381.148 363.52 387.286 373.722 384.515L372.307 379.165ZM240.063 364.439L245.34 363.006C244.169 358.574 246.764 354.017 251.137 352.829L249.722 347.478L248.308 342.128C238.107 344.899 232.051 355.53 234.784 365.873L240.063 364.439ZM249.722 347.478L251.137 352.829C255.509 351.642 260.002 354.272 261.174 358.705L266.452 357.271L271.73 355.837C268.996 345.494 258.509 339.357 248.308 342.128L249.722 347.478ZM266.452 357.271L261.174 358.705C262.345 363.137 259.751 367.693 255.378 368.88L256.793 374.232L258.207 379.582C268.408 376.81 274.463 366.179 271.73 355.837L266.452 357.271ZM256.793 374.232L255.378 368.88C251.006 370.068 246.512 367.438 245.34 363.006L240.063 364.439L234.784 365.873C237.518 376.215 248.006 382.353 258.207 379.582L256.793 374.232ZM209.597 249.167L214.874 247.734C213.703 243.301 216.298 238.745 220.67 237.558L219.256 232.207L217.841 226.856C207.639 229.628 201.585 240.259 204.318 250.601L209.597 249.167ZM219.256 232.207L220.67 237.558C225.042 236.37 229.536 239.001 230.707 243.433L235.986 241.999L241.263 240.565C238.529 230.223 228.044 224.085 217.841 226.856L219.256 232.207ZM235.986 241.999L230.707 243.433C231.879 247.865 229.285 252.421 224.912 253.609L226.326 258.96L227.74 264.31C237.943 261.538 243.996 250.908 241.263 240.565L235.986 241.999ZM226.326 258.96L224.912 253.609C220.54 254.797 216.046 252.166 214.874 247.734L209.597 249.167L204.318 250.601C207.052 260.944 217.539 267.081 227.74 264.31L226.326 258.96ZM193.035 423.391L198.313 421.957C197.532 419.003 199.261 415.965 202.176 415.173L200.762 409.823L199.347 404.473C190.603 406.848 185.414 415.96 187.757 424.824L193.035 423.391ZM200.762 409.823L202.176 415.173C205.091 414.381 208.087 416.135 208.869 419.09L214.146 417.656L219.424 416.222C217.081 407.357 208.091 402.097 199.347 404.473L200.762 409.823ZM214.146 417.656L208.869 419.09C209.649 422.045 207.919 425.083 205.004 425.875L206.419 431.225L207.833 436.576C216.577 434.2 221.767 425.088 219.424 416.222L214.146 417.656ZM206.419 431.225L205.004 425.875C202.09 426.666 199.094 424.912 198.313 421.957L193.035 423.391L187.757 424.824C190.1 433.689 199.088 438.951 207.833 436.576L206.419 431.225ZM139.076 219.246L144.354 217.812C143.573 214.858 145.303 211.82 148.218 211.028L146.804 205.678L145.39 200.327C136.646 202.703 131.455 211.814 133.798 220.68L139.076 219.246ZM146.804 205.678L148.218 211.028C151.132 210.237 154.128 211.991 154.91 214.946L160.187 213.512L165.465 212.077C163.122 203.213 154.134 197.952 145.39 200.327L146.804 205.678ZM160.187 213.512L154.91 214.945C155.691 217.901 153.961 220.938 151.046 221.73L152.46 227.08L153.875 232.431C162.62 230.055 167.808 220.943 165.465 212.078L160.187 213.512ZM152.46 227.08L151.046 221.73C148.132 222.522 145.136 220.767 144.354 217.812L139.076 219.246L133.798 220.68C136.141 229.545 145.13 234.807 153.875 232.431L152.46 227.08Z" fill="white"/>
</g>
<path d="M666.237 283.296C651.051 283.296 638.153 280.511 627.541 274.941C616.93 269.371 607.416 261.202 599 250.434L620.406 228.712C625.712 236.51 632.024 242.636 639.342 247.093C646.66 251.362 655.991 253.497 667.334 253.497C677.946 253.497 686.362 251.27 692.582 246.814C698.986 242.358 702.188 236.231 702.188 228.434C702.188 221.936 700.541 216.644 697.248 212.56C693.955 208.476 689.564 205.133 684.075 202.534C678.769 199.75 672.823 197.336 666.237 195.294C659.833 193.065 653.338 190.652 646.752 188.053C640.349 185.268 634.402 181.833 628.913 177.749C623.608 173.664 619.308 168.373 616.015 161.875C612.722 155.377 611.075 147.115 611.075 137.09C611.075 125.579 613.819 115.832 619.308 107.849C624.98 99.6799 632.573 93.4602 642.087 89.1898C651.6 84.92 662.212 82.7844 673.921 82.7844C686.545 82.7844 697.797 85.2913 707.676 90.3038C717.739 95.3169 725.881 101.722 732.101 109.52L710.695 131.241C705.207 124.929 699.443 120.287 693.406 117.317C687.551 114.161 680.782 112.583 673.098 112.583C663.584 112.583 656.083 114.532 650.594 118.431C645.288 122.33 642.635 127.807 642.635 134.862C642.635 140.803 644.282 145.63 647.575 149.343C650.868 152.871 655.168 155.934 660.473 158.533C665.962 160.947 671.909 163.267 678.312 165.496C684.898 167.724 691.393 170.23 697.797 173.015C704.384 175.799 710.329 179.42 715.635 183.876C721.124 188.146 725.515 193.716 728.808 200.585C732.101 207.454 733.748 216.087 733.748 226.484C733.748 243.936 727.619 257.768 715.361 267.979C703.286 278.19 686.911 283.296 666.237 283.296ZM814.653 283.296C801.663 283.296 789.861 280.233 779.248 274.105C768.822 267.979 760.589 259.624 754.551 249.042C748.514 238.459 745.495 226.67 745.495 213.674C745.495 200.492 748.514 188.702 754.551 178.306C760.589 167.724 768.822 159.369 779.248 153.242C789.861 147.115 801.663 144.052 814.653 144.052C824.896 144.052 834.409 146.094 843.193 150.179C852.159 154.078 859.754 159.74 865.973 167.167L846.211 187.496C842.369 182.855 837.704 179.42 832.215 177.192C826.908 174.778 821.054 173.572 814.653 173.572C807.152 173.572 800.475 175.335 794.621 178.863C788.949 182.205 784.466 186.846 781.172 192.787C778.059 198.728 776.506 205.69 776.506 213.674C776.506 221.471 778.059 228.434 781.172 234.56C784.466 240.502 788.949 245.236 794.621 248.763C800.475 252.105 807.152 253.776 814.653 253.776C821.054 253.776 826.908 252.662 832.215 250.434C837.704 248.021 842.369 244.493 846.211 239.851L865.973 260.181C859.754 267.608 852.159 273.363 843.193 277.448C834.409 281.346 824.896 283.296 814.653 283.296ZM882.522 280.511V146.837H912.709V280.511H882.522ZM897.618 122.33C892.494 122.33 888.193 120.566 884.716 117.039C881.421 113.511 879.78 109.148 879.78 103.95C879.78 98.7515 881.421 94.3886 884.716 90.8608C888.193 87.3331 892.494 85.5695 897.618 85.5695C902.919 85.5695 907.219 87.3331 910.514 90.8608C913.809 94.3886 915.456 98.7515 915.456 103.95C915.456 109.148 913.809 113.511 910.514 117.039C907.219 120.566 902.919 122.33 897.618 122.33ZM1031.37 280.511V203.37C1031.37 194.458 1028.53 187.125 1022.86 181.369C1017.37 175.614 1010.24 172.736 1001.46 172.736C995.598 172.736 990.386 174.036 985.815 176.635C981.237 179.234 977.672 182.855 975.107 187.496C972.548 192.138 971.265 197.429 971.265 203.37L959.47 196.686C959.47 186.475 961.664 177.47 966.053 169.673C970.441 161.69 976.484 155.47 984.167 151.014C992.033 146.373 1000.82 144.052 1010.51 144.052C1020.39 144.052 1029.17 146.651 1036.86 151.85C1044.54 156.862 1050.58 163.453 1054.97 171.622C1059.36 179.605 1061.56 187.96 1061.56 196.686V280.511H1031.37ZM941.078 280.511V146.837H971.265V280.511H941.078ZM1147.12 283.296C1134.32 283.296 1122.7 280.233 1112.26 274.105C1101.84 267.793 1093.52 259.346 1087.29 248.763C1081.25 238.181 1078.24 226.391 1078.24 213.395C1078.24 200.399 1081.25 188.702 1087.29 178.306C1093.52 167.909 1101.84 159.647 1112.26 153.521C1122.7 147.208 1134.32 144.052 1147.12 144.052C1160.11 144.052 1171.82 147.115 1182.25 153.242C1192.68 159.369 1200.91 167.724 1206.95 178.306C1213.17 188.702 1216.28 200.399 1216.28 213.395C1216.28 226.391 1213.17 238.181 1206.95 248.763C1200.91 259.346 1192.68 267.793 1182.25 274.105C1171.82 280.233 1160.11 283.296 1147.12 283.296ZM1147.12 253.776C1154.62 253.776 1161.21 252.105 1166.88 248.763C1172.73 245.236 1177.22 240.408 1180.33 234.282C1183.62 228.155 1185.26 221.193 1185.26 213.395C1185.26 205.598 1183.62 198.728 1180.33 192.787C1177.03 186.846 1172.55 182.205 1166.88 178.863C1161.21 175.335 1154.62 173.572 1147.12 173.572C1139.8 173.572 1133.22 175.335 1127.36 178.863C1121.69 182.205 1117.21 186.846 1113.91 192.787C1110.81 198.728 1109.25 205.598 1109.25 213.395C1109.25 221.193 1110.81 228.155 1113.91 234.282C1117.21 240.408 1121.69 245.236 1127.36 248.763C1133.22 252.105 1139.8 253.776 1147.12 253.776ZM1291.05 283.296C1279.16 283.296 1268.37 280.233 1258.67 274.105C1249.16 267.979 1241.56 259.717 1235.89 249.32C1230.4 238.738 1227.66 226.948 1227.66 213.952C1227.66 200.77 1230.4 188.981 1235.89 178.584C1241.56 168.002 1249.16 159.647 1258.67 153.521C1268.37 147.208 1279.16 144.052 1291.05 144.052C1301.12 144.052 1309.99 146.28 1317.67 150.736C1325.54 155.006 1331.77 160.947 1336.34 168.559C1340.91 176.171 1343.2 184.804 1343.2 194.458V232.89C1343.2 242.544 1340.91 251.177 1336.34 258.789C1331.95 266.401 1325.82 272.434 1317.95 276.891C1310.09 281.16 1301.12 283.296 1291.05 283.296ZM1296 254.333C1303.5 254.333 1309.99 252.662 1315.48 249.32C1321.15 245.793 1325.54 240.965 1328.65 234.839C1331.77 228.712 1333.32 221.657 1333.32 213.674C1333.32 205.69 1331.77 198.636 1328.65 192.509C1325.54 186.382 1321.15 181.648 1315.48 178.306C1309.99 174.778 1303.5 173.015 1296 173.015C1288.68 173.015 1282.18 174.778 1276.51 178.306C1271.02 181.648 1266.63 186.382 1263.34 192.509C1260.23 198.636 1258.67 205.69 1258.67 213.674C1258.67 221.657 1260.23 228.712 1263.34 234.839C1266.63 240.965 1271.02 245.793 1276.51 249.32C1282.18 252.662 1288.68 254.333 1296 254.333ZM1361.59 280.511H1331.39V244.586L1336.61 212.003L1331.39 179.698V80H1361.59V280.511ZM1450.8 283.296C1437.62 283.296 1425.73 280.325 1415.12 274.384C1404.7 268.257 1396.37 259.903 1390.15 249.32C1384.11 238.738 1381.09 226.856 1381.09 213.674C1381.09 200.492 1384.11 188.702 1390.15 178.306C1396.19 167.724 1404.32 159.369 1414.57 153.242C1425 147.115 1436.53 144.052 1449.15 144.052C1461.41 144.052 1472.21 146.93 1481.54 152.685C1491.05 158.441 1498.46 166.331 1503.76 176.356C1509.25 186.382 1512 197.8 1512 210.61C1512 212.838 1511.81 215.159 1511.45 217.573C1511.26 219.801 1510.9 222.307 1510.35 225.092H1402.22V200.028H1494.71L1483.45 210.053C1483.09 201.885 1481.54 195.015 1478.79 189.445C1476.05 183.876 1472.11 179.605 1466.99 176.635C1462.05 173.664 1455.92 172.179 1448.6 172.179C1440.92 172.179 1434.24 173.85 1428.57 177.192C1422.9 180.534 1418.5 185.268 1415.4 191.395C1412.28 197.336 1410.73 204.484 1410.73 212.838C1410.73 221.193 1412.38 228.527 1415.67 234.839C1418.96 241.151 1423.63 246.071 1429.66 249.599C1435.71 252.94 1442.65 254.611 1450.53 254.611C1457.29 254.611 1463.52 253.405 1469.19 250.991C1475.04 248.577 1479.98 245.05 1484.01 240.408L1503.22 260.181C1496.81 267.793 1489.04 273.548 1479.89 277.448C1470.74 281.346 1461.05 283.296 1450.8 283.296Z" fill="url(#paint2_linear_3002_31801)"/>
<path d="M616.804 402.865V331.951C616.804 327.362 617.8 323.379 619.792 320.002C621.783 316.539 624.511 313.811 627.974 311.82C631.524 309.828 635.637 308.833 640.313 308.833C643.863 308.833 646.936 309.439 649.534 310.651C652.132 311.863 654.513 313.638 656.677 315.976L649.014 323.509C647.889 322.297 646.633 321.388 645.248 320.782C643.863 320.089 642.174 319.743 640.183 319.743C636.459 319.743 633.559 320.825 631.481 322.989C629.489 325.154 628.494 328.141 628.494 331.951V402.865H616.804ZM601.609 351.823V341.173H648.105V351.823H601.609ZM684.481 404.164C678.42 404.164 672.965 402.735 668.116 399.878C663.267 397.021 659.414 393.168 656.557 388.319C653.699 383.383 652.271 377.885 652.271 371.824C652.271 365.85 653.699 360.481 656.557 355.719C659.414 350.87 663.267 347.017 668.116 344.16C672.965 341.302 678.42 339.874 684.481 339.874C690.455 339.874 695.867 341.302 700.716 344.16C705.651 346.931 709.547 350.74 712.405 355.589C715.262 360.438 716.691 365.85 716.691 371.824C716.691 377.885 715.262 383.383 712.405 388.319C709.547 393.168 705.651 397.021 700.716 399.878C695.867 402.735 690.455 404.164 684.481 404.164ZM684.481 392.865C688.377 392.865 691.84 391.955 694.871 390.137C697.901 388.319 700.283 385.851 702.014 382.734C703.746 379.53 704.612 375.894 704.612 371.824C704.612 367.841 703.703 364.291 701.884 361.174C700.153 358.057 697.772 355.632 694.741 353.901C691.797 352.082 688.377 351.173 684.481 351.173C680.584 351.173 677.121 352.082 674.09 353.901C671.06 355.632 668.679 358.057 666.947 361.174C665.215 364.291 664.349 367.841 664.349 371.824C664.349 375.894 665.215 379.53 666.947 382.734C668.679 385.851 671.06 388.319 674.09 390.137C677.121 391.955 680.584 392.865 684.481 392.865ZM729.861 402.865V341.173H741.55V402.865H729.861ZM741.55 367.668L737.134 365.72C737.134 357.84 738.953 351.563 742.589 346.887C746.226 342.212 751.464 339.874 758.305 339.874C761.422 339.874 764.236 340.437 766.747 341.562C769.258 342.601 771.596 344.376 773.76 346.887L766.098 354.81C764.799 353.425 763.37 352.429 761.812 351.823C760.253 351.217 758.435 350.914 756.357 350.914C752.027 350.914 748.477 352.299 745.707 355.07C742.936 357.84 741.55 362.04 741.55 367.668ZM821.55 363.642V353.381H845.967C851.249 353.381 855.319 352.039 858.176 349.355C861.033 346.671 862.462 343.034 862.462 338.445C862.462 334.116 861.033 330.522 858.176 327.665C855.405 324.808 851.379 323.379 846.097 323.379H821.55V312.729H846.487C852.201 312.729 857.18 313.855 861.423 316.106C865.666 318.271 868.913 321.258 871.164 325.068C873.502 328.877 874.671 333.25 874.671 338.185C874.671 343.294 873.502 347.753 871.164 351.563C868.913 355.373 865.666 358.36 861.423 360.525C857.18 362.603 852.201 363.642 846.487 363.642H821.55ZM813.368 402.865V312.729H825.576V402.865H813.368ZM865.319 402.865L832.59 362.473L844.149 358.447L880.775 402.865H865.319ZM917.867 404.164C911.719 404.164 906.177 402.779 901.242 400.008C896.307 397.151 892.41 393.297 889.553 388.449C886.696 383.6 885.267 378.102 885.267 371.954C885.267 365.893 886.652 360.438 889.423 355.589C892.28 350.74 896.09 346.931 900.852 344.16C905.701 341.302 911.113 339.874 917.087 339.874C922.802 339.874 927.824 341.173 932.153 343.77C936.569 346.368 939.989 349.961 942.414 354.55C944.925 359.139 946.18 364.334 946.18 370.136C946.18 371.002 946.137 371.954 946.05 372.993C945.964 373.945 945.791 375.071 945.531 376.37H893.449V366.629H939.297L935.011 370.395C935.011 366.239 934.275 362.733 932.803 359.875C931.331 356.931 929.253 354.68 926.568 353.121C923.884 351.476 920.637 350.654 916.828 350.654C912.845 350.654 909.338 351.52 906.307 353.251C903.277 354.983 900.939 357.407 899.294 360.525C897.649 363.642 896.826 367.322 896.826 371.564C896.826 375.894 897.692 379.703 899.424 382.994C901.155 386.197 903.623 388.708 906.827 390.527C910.03 392.258 913.71 393.124 917.867 393.124C921.33 393.124 924.49 392.518 927.348 391.306C930.292 390.094 932.803 388.275 934.881 385.851L942.414 393.514C939.47 396.977 935.833 399.618 931.504 401.437C927.261 403.255 922.715 404.164 917.867 404.164ZM978.537 404.164C975.074 404.164 971.784 403.731 968.667 402.865C965.636 401.913 962.822 400.614 960.224 398.969C957.627 397.237 955.376 395.202 953.471 392.865L961.004 385.332C963.255 388.102 965.853 390.18 968.796 391.566C971.74 392.865 975.031 393.514 978.667 393.514C982.304 393.514 985.118 392.908 987.109 391.696C989.101 390.397 990.097 388.622 990.097 386.371C990.097 384.119 989.274 382.388 987.629 381.175C986.07 379.877 984.036 378.838 981.525 378.058C979.014 377.192 976.329 376.37 973.472 375.591C970.701 374.725 968.06 373.642 965.549 372.344C963.038 371.045 960.96 369.27 959.315 367.019C957.757 364.767 956.977 361.78 956.977 358.057C956.977 354.334 957.887 351.13 959.705 348.446C961.523 345.675 964.034 343.554 967.238 342.082C970.528 340.61 974.468 339.874 979.057 339.874C983.906 339.874 988.192 340.74 991.915 342.471C995.725 344.117 998.842 346.628 1001.27 350.004L993.733 357.537C992.002 355.286 989.837 353.554 987.239 352.342C984.728 351.13 981.871 350.524 978.667 350.524C975.29 350.524 972.693 351.13 970.875 352.342C969.143 353.468 968.277 355.07 968.277 357.148C968.277 359.226 969.056 360.828 970.615 361.953C972.173 363.079 974.208 364.031 976.719 364.811C979.317 365.59 982.001 366.412 984.772 367.278C987.542 368.058 990.183 369.14 992.694 370.525C995.205 371.911 997.24 373.772 998.799 376.11C1000.44 378.448 1001.27 381.522 1001.27 385.332C1001.27 391.133 999.188 395.722 995.032 399.099C990.963 402.476 985.464 404.164 978.537 404.164ZM1042.93 404.164C1036.78 404.164 1031.24 402.779 1026.3 400.008C1021.37 397.151 1017.47 393.297 1014.61 388.449C1011.76 383.6 1010.33 378.102 1010.33 371.954C1010.33 365.893 1011.71 360.438 1014.48 355.589C1017.34 350.74 1021.15 346.931 1025.91 344.16C1030.76 341.302 1036.17 339.874 1042.15 339.874C1047.86 339.874 1052.88 341.173 1057.21 343.77C1061.63 346.368 1065.05 349.961 1067.47 354.55C1069.98 359.139 1071.24 364.334 1071.24 370.136C1071.24 371.002 1071.2 371.954 1071.11 372.993C1071.02 373.945 1070.85 375.071 1070.59 376.37H1018.51V366.629H1064.36L1060.07 370.395C1060.07 366.239 1059.33 362.733 1057.86 359.875C1056.39 356.931 1054.31 354.68 1051.63 353.121C1048.94 351.476 1045.7 350.654 1041.89 350.654C1037.9 350.654 1034.4 351.52 1031.37 353.251C1028.34 354.983 1026 357.407 1024.35 360.525C1022.71 363.642 1021.89 367.322 1021.89 371.564C1021.89 375.894 1022.75 379.703 1024.48 382.994C1026.21 386.197 1028.68 388.708 1031.89 390.527C1035.09 392.258 1038.77 393.124 1042.93 393.124C1046.39 393.124 1049.55 392.518 1052.41 391.306C1055.35 390.094 1057.86 388.275 1059.94 385.851L1067.47 393.514C1064.53 396.977 1060.89 399.618 1056.56 401.437C1052.32 403.255 1047.77 404.164 1042.93 404.164ZM1110.22 404.164C1104.59 404.164 1099.48 402.779 1094.9 400.008C1090.31 397.151 1086.67 393.297 1083.99 388.449C1081.39 383.6 1080.09 378.145 1080.09 372.084C1080.09 366.023 1081.39 360.568 1083.99 355.719C1086.67 350.87 1090.26 347.017 1094.77 344.16C1099.35 341.302 1104.51 339.874 1110.22 339.874C1114.9 339.874 1119.05 340.87 1122.69 342.861C1126.41 344.766 1129.4 347.45 1131.65 350.914C1133.9 354.29 1135.16 358.23 1135.42 362.733V381.305C1135.16 385.721 1133.9 389.661 1131.65 393.124C1129.49 396.588 1126.54 399.315 1122.82 401.307C1119.18 403.212 1114.98 404.164 1110.22 404.164ZM1112.17 393.124C1117.97 393.124 1122.65 391.176 1126.2 387.28C1129.75 383.297 1131.52 378.231 1131.52 372.084C1131.52 367.841 1130.7 364.161 1129.05 361.044C1127.49 357.84 1125.24 355.373 1122.3 353.641C1119.36 351.823 1115.94 350.914 1112.04 350.914C1108.14 350.914 1104.68 351.823 1101.65 353.641C1098.7 355.459 1096.37 357.97 1094.64 361.174C1092.99 364.291 1092.17 367.884 1092.17 371.954C1092.17 376.11 1092.99 379.79 1094.64 382.994C1096.37 386.111 1098.75 388.579 1101.78 390.397C1104.81 392.215 1108.27 393.124 1112.17 393.124ZM1130.74 402.865V386.241L1132.95 371.175L1130.74 356.239V341.173H1142.56V402.865H1130.74ZM1159.58 402.865V341.173H1171.27V402.865H1159.58ZM1171.27 367.668L1166.85 365.72C1166.85 357.84 1168.67 351.563 1172.31 346.887C1175.94 342.212 1181.18 339.874 1188.02 339.874C1191.14 339.874 1193.95 340.437 1196.46 341.562C1198.98 342.601 1201.31 344.376 1203.48 346.887L1195.82 354.81C1194.52 353.425 1193.09 352.429 1191.53 351.823C1189.97 351.217 1188.15 350.914 1186.07 350.914C1181.74 350.914 1178.19 352.299 1175.42 355.07C1172.65 357.84 1171.27 362.04 1171.27 367.668ZM1237.86 404.164C1231.8 404.164 1226.3 402.735 1221.37 399.878C1216.52 397.021 1212.67 393.168 1209.81 388.319C1207.04 383.383 1205.65 377.928 1205.65 371.954C1205.65 365.893 1207.04 360.438 1209.81 355.589C1212.67 350.74 1216.52 346.931 1221.37 344.16C1226.3 341.302 1231.8 339.874 1237.86 339.874C1242.62 339.874 1247.04 340.783 1251.11 342.601C1255.18 344.333 1258.69 346.887 1261.63 350.264L1253.84 358.057C1251.93 355.806 1249.6 354.117 1246.82 352.992C1244.14 351.779 1241.15 351.173 1237.86 351.173C1233.97 351.173 1230.5 352.082 1227.47 353.901C1224.44 355.632 1222.06 358.057 1220.33 361.174C1218.6 364.291 1217.73 367.884 1217.73 371.954C1217.73 376.024 1218.6 379.617 1220.33 382.734C1222.06 385.851 1224.44 388.319 1227.47 390.137C1230.5 391.955 1233.97 392.865 1237.86 392.865C1241.15 392.865 1244.14 392.302 1246.82 391.176C1249.6 389.964 1251.98 388.232 1253.97 385.981L1261.63 393.774C1258.77 397.064 1255.27 399.618 1251.11 401.437C1247.04 403.255 1242.62 404.164 1237.86 404.164ZM1316.86 402.865V366.889C1316.86 362.213 1315.39 358.36 1312.45 355.329C1309.5 352.299 1305.69 350.784 1301.02 350.784C1297.9 350.784 1295.13 351.476 1292.71 352.862C1290.28 354.247 1288.38 356.152 1286.99 358.576C1285.61 361.001 1284.91 363.772 1284.91 366.889L1280.11 364.161C1280.11 359.486 1281.15 355.329 1283.22 351.693C1285.3 348.056 1288.2 345.199 1291.93 343.121C1295.65 340.956 1299.85 339.874 1304.52 339.874C1309.2 339.874 1313.31 340.913 1316.86 342.991C1320.5 345.069 1323.36 347.97 1325.43 351.693C1327.51 355.416 1328.55 359.702 1328.55 364.551V402.865H1316.86ZM1273.22 402.865V310.131H1284.91V402.865H1273.22ZM1372.95 404.164C1366.8 404.164 1361.26 402.779 1356.33 400.008C1351.39 397.151 1347.49 393.297 1344.64 388.449C1341.78 383.6 1340.35 378.102 1340.35 371.954C1340.35 365.893 1341.74 360.438 1344.51 355.589C1347.37 350.74 1351.17 346.931 1355.94 344.16C1360.79 341.302 1366.2 339.874 1372.17 339.874C1377.89 339.874 1382.91 341.173 1387.24 343.77C1391.65 346.368 1395.07 349.961 1397.5 354.55C1400.01 359.139 1401.26 364.334 1401.26 370.136C1401.26 371.002 1401.22 371.954 1401.14 372.993C1401.05 373.945 1400.88 375.071 1400.62 376.37H1348.53V366.629H1394.38L1390.1 370.395C1390.1 366.239 1389.36 362.733 1387.89 359.875C1386.42 356.931 1384.34 354.68 1381.65 353.121C1378.97 351.476 1375.72 350.654 1371.91 350.654C1367.93 350.654 1364.42 351.52 1361.39 353.251C1358.36 354.983 1356.02 357.407 1354.38 360.525C1352.73 363.642 1351.91 367.322 1351.91 371.564C1351.91 375.894 1352.78 379.703 1354.51 382.994C1356.24 386.197 1358.71 388.708 1361.91 390.527C1365.12 392.258 1368.8 393.124 1372.95 393.124C1376.41 393.124 1379.58 392.518 1382.43 391.306C1385.38 390.094 1387.89 388.275 1389.97 385.851L1397.5 393.514C1394.55 396.977 1390.92 399.618 1386.59 401.437C1382.35 403.255 1377.8 404.164 1372.95 404.164ZM1414.01 402.865V341.173H1425.7V402.865H1414.01ZM1425.7 367.668L1421.28 365.72C1421.28 357.84 1423.1 351.563 1426.74 346.887C1430.38 342.212 1435.61 339.874 1442.45 339.874C1445.57 339.874 1448.39 340.437 1450.9 341.562C1453.41 342.601 1455.74 344.376 1457.91 346.887L1450.25 354.81C1448.95 353.425 1447.52 352.429 1445.96 351.823C1444.4 351.217 1442.58 350.914 1440.51 350.914C1436.18 350.914 1432.63 352.299 1429.86 355.07C1427.08 357.84 1425.7 362.04 1425.7 367.668ZM1484.36 404.164C1480.89 404.164 1477.6 403.731 1474.49 402.865C1471.45 401.913 1468.64 400.614 1466.04 398.969C1463.45 397.237 1461.19 395.202 1459.29 392.865L1466.82 385.332C1469.07 388.102 1471.67 390.18 1474.62 391.566C1477.56 392.865 1480.85 393.514 1484.49 393.514C1488.12 393.514 1490.94 392.908 1492.93 391.696C1494.92 390.397 1495.92 388.622 1495.92 386.371C1495.92 384.119 1495.09 382.388 1493.45 381.175C1491.89 379.877 1489.85 378.838 1487.34 378.058C1484.83 377.192 1482.15 376.37 1479.29 375.591C1476.52 374.725 1473.88 373.642 1471.37 372.344C1468.86 371.045 1466.78 369.27 1465.13 367.019C1463.58 364.767 1462.8 361.78 1462.8 358.057C1462.8 354.334 1463.71 351.13 1465.52 348.446C1467.34 345.675 1469.85 343.554 1473.06 342.082C1476.35 340.61 1480.29 339.874 1484.88 339.874C1489.72 339.874 1494.01 340.74 1497.73 342.471C1501.54 344.117 1504.66 346.628 1507.09 350.004L1499.55 357.537C1497.82 355.286 1495.66 353.554 1493.06 352.342C1490.55 351.13 1487.69 350.524 1484.49 350.524C1481.11 350.524 1478.51 351.13 1476.69 352.342C1474.96 353.468 1474.1 355.07 1474.1 357.148C1474.1 359.226 1474.88 360.828 1476.43 361.953C1477.99 363.079 1480.03 364.031 1482.54 364.811C1485.14 365.59 1487.82 366.412 1490.59 367.278C1493.36 368.058 1496 369.14 1498.51 370.525C1501.02 371.911 1503.06 373.772 1504.62 376.11C1506.26 378.448 1507.09 381.522 1507.09 385.332C1507.09 391.133 1505.01 395.722 1500.85 399.099C1496.78 402.476 1491.28 404.164 1484.36 404.164Z" fill="url(#paint3_linear_3002_31801)"/>
<path d="M1218.7 468.066C1216.67 468.066 1214.82 467.652 1213.17 466.825C1211.55 465.96 1210.25 464.774 1209.28 463.27C1208.3 461.765 1207.75 460.053 1207.64 458.135V450.065C1207.75 448.109 1208.3 446.397 1209.28 444.93C1210.29 443.425 1211.61 442.259 1213.23 441.431C1214.88 440.566 1216.71 440.133 1218.7 440.133C1221.14 440.133 1223.35 440.754 1225.3 441.995C1227.3 443.237 1228.86 444.911 1229.99 447.018C1231.11 449.124 1231.68 451.495 1231.68 454.128C1231.68 456.761 1231.11 459.131 1229.99 461.238C1228.86 463.345 1227.3 465.019 1225.3 466.26C1223.35 467.464 1221.14 468.066 1218.7 468.066ZM1204.59 467.502V427.211H1209.67V447.243L1208.71 453.733L1209.67 460.279V467.502H1204.59ZM1217.85 463.27C1219.55 463.27 1221.03 462.875 1222.31 462.085C1223.59 461.295 1224.61 460.222 1225.36 458.868C1226.11 457.476 1226.49 455.877 1226.49 454.072C1226.49 452.303 1226.11 450.723 1225.36 449.331C1224.61 447.939 1223.59 446.867 1222.31 446.115C1221.03 445.325 1219.56 444.93 1217.91 444.93C1216.22 444.93 1214.73 445.325 1213.45 446.115C1212.17 446.867 1211.17 447.939 1210.46 449.331C1209.75 450.723 1209.39 452.322 1209.39 454.128C1209.39 455.896 1209.73 457.476 1210.4 458.868C1211.12 460.222 1212.12 461.295 1213.39 462.085C1214.71 462.875 1216.2 463.27 1217.85 463.27ZM1245.19 467.728L1233.57 440.698H1239.21L1247.84 461.859H1246.04L1255.12 440.698H1260.77L1248.24 467.728H1245.19ZM1237.52 478.732L1245.42 462.536L1248.24 467.728L1243.16 478.732H1237.52ZM1288.91 468.066C1285.82 468.066 1283.19 467.502 1281.01 466.373C1278.82 465.245 1276.89 463.608 1275.19 461.464L1278.81 457.852C1280.05 459.583 1281.48 460.9 1283.09 461.802C1284.71 462.668 1286.71 463.1 1289.08 463.1C1291.41 463.1 1293.27 462.593 1294.66 461.577C1296.09 460.561 1296.81 459.169 1296.81 457.401C1296.81 455.934 1296.47 454.749 1295.79 453.846C1295.11 452.943 1294.19 452.209 1293.03 451.645C1291.9 451.043 1290.66 450.516 1289.3 450.065C1287.95 449.576 1286.59 449.068 1285.24 448.541C1283.88 447.977 1282.64 447.3 1281.51 446.51C1280.39 445.682 1279.46 444.61 1278.75 443.293C1278.07 441.977 1277.73 440.321 1277.73 438.327C1277.73 436.108 1278.26 434.227 1279.31 432.684C1280.41 431.104 1281.87 429.9 1283.72 429.073C1285.6 428.208 1287.7 427.775 1290.04 427.775C1292.59 427.775 1294.89 428.283 1296.92 429.299C1298.95 430.277 1300.61 431.575 1301.89 433.192L1298.27 436.804C1297.11 435.449 1295.85 434.434 1294.49 433.757C1293.18 433.079 1291.65 432.741 1289.92 432.741C1287.82 432.741 1286.14 433.211 1284.9 434.152C1283.66 435.054 1283.04 436.334 1283.04 437.989C1283.04 439.306 1283.38 440.378 1284.05 441.205C1284.77 441.995 1285.69 442.673 1286.82 443.237C1287.95 443.801 1289.19 444.328 1290.54 444.817C1291.94 445.268 1293.31 445.776 1294.66 446.341C1296.02 446.905 1297.26 447.62 1298.39 448.485C1299.52 449.35 1300.42 450.479 1301.1 451.871C1301.81 453.225 1302.17 454.937 1302.17 457.006C1302.17 460.467 1300.96 463.176 1298.56 465.132C1296.19 467.088 1292.97 468.066 1288.91 468.066ZM1320.27 468.066C1317.64 468.066 1315.25 467.446 1313.11 466.204C1311 464.963 1309.33 463.288 1308.09 461.182C1306.88 459.037 1306.28 456.667 1306.28 454.072C1306.28 451.438 1306.88 449.068 1308.09 446.961C1309.33 444.855 1311 443.199 1313.11 441.995C1315.25 440.754 1317.64 440.133 1320.27 440.133C1322.34 440.133 1324.26 440.528 1326.03 441.318C1327.8 442.071 1329.32 443.18 1330.6 444.648L1327.22 448.033C1326.39 447.055 1325.37 446.322 1324.17 445.833C1323 445.306 1321.7 445.043 1320.27 445.043C1318.58 445.043 1317.08 445.438 1315.76 446.228C1314.44 446.98 1313.41 448.033 1312.66 449.388C1311.9 450.742 1311.53 452.303 1311.53 454.072C1311.53 455.84 1311.9 457.401 1312.66 458.755C1313.41 460.11 1314.44 461.182 1315.76 461.972C1317.08 462.762 1318.58 463.157 1320.27 463.157C1321.7 463.157 1323 462.912 1324.17 462.423C1325.37 461.897 1326.41 461.144 1327.27 460.166L1330.6 463.552C1329.36 464.981 1327.84 466.091 1326.03 466.881C1324.26 467.671 1322.34 468.066 1320.27 468.066ZM1335.69 467.502V440.698H1340.77V467.502H1335.69ZM1338.23 435.337C1337.29 435.337 1336.52 435.036 1335.92 434.434C1335.32 433.794 1335.02 433.004 1335.02 432.064C1335.02 431.161 1335.32 430.408 1335.92 429.806C1336.52 429.167 1337.29 428.847 1338.23 428.847C1339.17 428.847 1339.95 429.167 1340.55 429.806C1341.15 430.408 1341.45 431.161 1341.45 432.064C1341.45 433.004 1341.15 433.794 1340.55 434.434C1339.95 435.036 1339.17 435.337 1338.23 435.337ZM1348.26 467.502V440.698H1353.34V467.502H1348.26ZM1366.37 467.502V451.306C1366.37 449.313 1365.75 447.751 1364.51 446.623C1363.31 445.456 1361.78 444.873 1359.94 444.873C1358.7 444.873 1357.59 445.137 1356.61 445.663C1355.63 446.19 1354.84 446.924 1354.24 447.864C1353.64 448.805 1353.34 449.933 1353.34 451.25L1351.25 450.234C1351.25 448.203 1351.68 446.435 1352.55 444.93C1353.45 443.425 1354.67 442.259 1356.21 441.431C1357.76 440.566 1359.49 440.133 1361.41 440.133C1363.29 440.133 1364.98 440.547 1366.48 441.375C1368.03 442.202 1369.23 443.369 1370.1 444.873C1371 446.378 1371.45 448.165 1371.45 450.234V467.502H1366.37ZM1384.49 467.502V451.306C1384.49 449.313 1383.87 447.751 1382.62 446.623C1381.42 445.456 1379.91 444.873 1378.11 444.873C1376.87 444.873 1375.74 445.137 1374.72 445.663C1373.75 446.19 1372.96 446.924 1372.35 447.864C1371.75 448.805 1371.45 449.933 1371.45 451.25L1368.57 450.234C1368.69 448.165 1369.23 446.397 1370.21 444.93C1371.22 443.425 1372.52 442.259 1374.1 441.431C1375.68 440.566 1377.41 440.133 1379.29 440.133C1381.25 440.133 1383 440.547 1384.54 441.375C1386.08 442.202 1387.31 443.369 1388.21 444.873C1389.15 446.378 1389.62 448.184 1389.62 450.291V467.502H1384.49ZM1410.64 468.066C1408.61 468.066 1406.76 467.652 1405.11 466.825C1403.49 465.96 1402.19 464.774 1401.22 463.27C1400.24 461.765 1399.69 460.053 1399.58 458.135V450.065C1399.69 448.109 1400.24 446.397 1401.22 444.93C1402.23 443.425 1403.55 442.259 1405.17 441.431C1406.82 440.566 1408.65 440.133 1410.64 440.133C1413.08 440.133 1415.29 440.754 1417.24 441.995C1419.24 443.237 1420.8 444.911 1421.93 447.018C1423.05 449.124 1423.62 451.495 1423.62 454.128C1423.62 456.761 1423.05 459.131 1421.93 461.238C1420.8 463.345 1419.24 465.019 1417.24 466.26C1415.29 467.464 1413.08 468.066 1410.64 468.066ZM1396.53 478.732V440.698H1401.61V447.751L1400.65 454.241L1401.61 460.787V478.732H1396.53ZM1409.79 463.27C1411.49 463.27 1412.97 462.875 1414.25 462.085C1415.53 461.295 1416.55 460.222 1417.3 458.868C1418.05 457.476 1418.43 455.877 1418.43 454.072C1418.43 452.303 1418.05 450.723 1417.3 449.331C1416.55 447.939 1415.53 446.867 1414.25 446.115C1412.97 445.325 1411.5 444.93 1409.85 444.93C1408.16 444.93 1406.67 445.325 1405.39 446.115C1404.11 446.867 1403.12 447.939 1402.4 449.331C1401.69 450.723 1401.33 452.322 1401.33 454.128C1401.33 455.896 1401.67 457.476 1402.34 458.868C1403.06 460.222 1404.06 461.295 1405.34 462.085C1406.65 462.875 1408.14 463.27 1409.79 463.27ZM1429.38 467.502V427.211H1434.45V467.502H1429.38ZM1441.94 467.502V440.698H1447.02V467.502H1441.94ZM1444.48 435.337C1443.54 435.337 1442.77 435.036 1442.17 434.434C1441.57 433.794 1441.26 433.004 1441.26 432.064C1441.26 431.161 1441.57 430.408 1442.17 429.806C1442.77 429.167 1443.54 428.847 1444.48 428.847C1445.42 428.847 1446.19 429.167 1446.8 429.806C1447.4 430.408 1447.7 431.161 1447.7 432.064C1447.7 433.004 1447.4 433.794 1446.8 434.434C1446.19 435.036 1445.42 435.337 1444.48 435.337ZM1458.34 467.502V436.691C1458.34 434.697 1458.78 432.967 1459.64 431.499C1460.51 429.995 1461.69 428.809 1463.2 427.944C1464.74 427.079 1466.53 426.646 1468.56 426.646C1470.1 426.646 1471.43 426.91 1472.56 427.436C1473.69 427.963 1474.73 428.734 1475.67 429.75L1472.34 433.023C1471.85 432.496 1471.3 432.101 1470.7 431.838C1470.1 431.537 1469.37 431.386 1468.5 431.386C1466.88 431.386 1465.62 431.857 1464.72 432.797C1463.85 433.738 1463.42 435.036 1463.42 436.691V467.502H1458.34ZM1451.74 445.325V440.698H1471.94V445.325H1451.74ZM1484.97 467.728L1473.34 440.698H1478.98L1487.62 461.859H1485.81L1494.9 440.698H1500.54L1488.01 467.728H1484.97ZM1477.29 478.732L1485.19 462.536L1488.01 467.728L1482.93 478.732H1477.29Z" fill="url(#paint4_linear_3002_31801)"/>
<rect x="1503.5" y="44.5" width="63.7327" height="62" rx="31" stroke="#182133" stroke-width="3"/>
<path d="M1520.68 87V65.7603H1523.65V87H1520.68ZM1513.25 67.8401V65.13H1531.05V67.8401H1513.25ZM1534.58 87V65.13H1536.66L1545.93 80.3508H1544.51L1553.77 65.13H1555.85V87H1552.89V70.3297L1553.58 70.5187L1546.27 82.5252H1544.19L1536.88 70.5187L1537.54 70.3297V87H1534.58Z" fill="#182133"/>
<defs>
<linearGradient id="paint0_linear_3002_31801" x1="310.788" y1="488.187" x2="310.788" y2="68.9738" gradientUnits="userSpaceOnUse">
<stop stop-color="#016358"/>
<stop offset="1" stop-color="#182133"/>
</linearGradient>
<linearGradient id="paint1_linear_3002_31801" x1="379.826" y1="451.558" x2="284.193" y2="99.5077" gradientUnits="userSpaceOnUse">
<stop stop-color="#016358"/>
<stop offset="1" stop-color="#182133"/>
</linearGradient>
<linearGradient id="paint2_linear_3002_31801" x1="591.635" y1="182.89" x2="1519.68" y2="182.89" gradientUnits="userSpaceOnUse">
<stop stop-color="#016358"/>
<stop offset="1" stop-color="#182133"/>
</linearGradient>
<linearGradient id="paint3_linear_3002_31801" x1="599" y1="354.865" x2="1512" y2="354.865" gradientUnits="userSpaceOnUse">
<stop stop-color="#026257"/>
<stop offset="1" stop-color="#172334"/>
</linearGradient>
<linearGradient id="paint4_linear_3002_31801" x1="1200.65" y1="447.002" x2="1501.65" y2="447.002" gradientUnits="userSpaceOnUse">
<stop stop-color="#11343D"/>
<stop offset="1" stop-color="#172334"/>
</linearGradient>
</defs>
</svg>
