<svg width="2270" height="606" viewBox="0 0 2270 606" fill="none" xmlns="http://www.w3.org/2000/svg">
<path d="M135.403 303.62L138.638 264.801L172.835 170.989L201.488 136.791L301.77 69.7818L343.362 59.1527L442.258 61.9255L487.085 78.5623L578.125 150.193L603.08 189.012L629.884 285.597L629.884 331.81L587.368 441.798L559.178 473.685L474.145 527.754L429.319 543.467L311.013 537.921L270.345 520.822L193.169 458.897L166.366 420.54L135.403 303.62Z" fill="url(#paint0_linear_577_485)"/>
<path d="M164.345 421.375L164.23 420.939L134.204 307.882L133.983 307.052L134.154 306.727L136.083 264.15L136.098 263.812L136.215 263.492L170.112 171.037L170.232 170.709L170.448 170.435L199.555 133.441L199.671 133.532L200.147 133.22L298.319 69.0184L299.065 68.5304L299.441 68.6035L343.262 56.8618L343.585 56.8723L441.244 59.8987L441.588 59.9097L441.912 60.025L487.896 76.3546L488.077 76.3345L488.274 76.4889L488.284 76.4914L488.283 76.4947L488.777 76.8789L579.215 147.248L579.913 147.791L579.958 148.101L579.98 148.086L604.851 187.105L605.032 187.391L631.229 285.158L631.231 285.439L631.617 331.407L631.72 331.651L631.406 332.474L589.13 442.894L588.817 443.713L588.429 443.899L559.574 475.267L559.387 475.47L559.156 475.619L475.033 530.443L474.794 530.599L474.523 530.688L429.652 545.518L429.499 545.058L428.969 545.033L312.2 539.829L311.835 539.813L311.815 539.862L311.675 539.806L311.34 539.79L311.139 539.589L269.299 522.621L268.999 522.499L268.747 522.297L191.803 460.383L191.563 460.19L191.385 459.938L164.454 421.775L164.452 421.773L164.451 421.769L164.231 421.457L164.345 421.375ZM594.579 242.731L627.131 320.665L626.837 285.756L600.96 189.181L581.476 158.613L593.674 243.11L594.579 242.731ZM451.299 399.766L502.539 480.12L585.336 440.504L626.985 331.724L591.474 246.705L499.665 271.305L451.141 399.867L451.299 399.766ZM499.437 266.814L589.183 242.767L575.815 150.174L486.777 80.8936L394.315 90.6846L392.377 179.725L499.437 266.814ZM472.873 526.603L556.524 472.087L577.76 449.004L502.911 484.815L438.389 538.001L472.873 526.603ZM391.851 86.5232L391.928 86.5148L477.775 77.4266L440.765 64.2834L343.773 61.2763L309.295 70.5147L391.851 86.5232ZM446.999 398.387L495.626 269.556L389.48 183.609L271.47 260.52L307.129 393.602L446.999 398.387ZM313.254 535.475L428.32 540.605L498.832 482.482L448.032 402.822L306.728 397.989L248.27 469.818L313.254 535.475ZM268.803 257.011L387.988 179.333L389.918 90.6273L299.979 73.1869L203.278 136.426L181.668 224.433L268.803 257.011ZM244.714 467.222L303.086 395.499L267.061 261.053L180.293 228.612L138.673 307.584L168.257 418.978L244.714 467.222ZM194.798 457.15L271.251 518.67L303.296 531.665L243.758 471.507L243.708 471.458L243.561 471.692L174.157 427.897L194.798 457.15ZM176.805 225.8L176.932 225.283L196.914 143.908L174.119 172.878L140.46 264.687L138.969 297.592L176.805 225.8Z" fill="white"/>
<path opacity="0.16" d="M140.23 264.944L161.02 319.573L207.224 285.776L235.142 212.766L222.214 157.615L168.862 180.043L167.157 175.99L222.239 152.836L296.114 105.582L296.192 105.501L342.248 58.0836L343.824 59.6155L345.402 61.1472L301.112 106.747L345.915 139.309L426.256 141.258L473.403 113.156L439.521 63.6308L443.15 61.1478L478.016 112.112L548.541 167.608L548.523 167.631L603.774 186.003L603.081 188.09L602.387 190.176L548.266 172.178L529.938 224.347L550.844 302.367L594.752 338.399L627.07 284.014L628.96 285.136L630.849 286.26L597.125 343.011L566.238 424.741L559.507 473.984L555.152 473.388L561.533 426.695L505.727 426.198L437.752 469.261L416.409 521.342L473.419 526.49L473.023 530.869L413.921 525.531L321.693 519.651L321.709 519.401L270.983 523.475L270.632 519.092L318.954 515.211L304.951 462.95L242.809 414.916L185.559 409.682L193.487 455.751L189.154 456.498L180.91 408.585L158.825 326.165L157.937 323.83L136.122 266.508L140.23 264.944ZM562.458 422.306L592.666 342.375L549.219 306.723L501.486 353.716L506.799 421.811L562.458 422.306ZM459.94 204.985L526.384 221.201L544.393 169.938L476.438 116.465L429.759 144.288L459.94 204.985ZM436.913 327.662L499.081 349.915L546.519 303.213L525.712 225.561L459.339 209.364L418.212 260.909L436.913 327.662ZM435.094 465.739L502.485 423.047L497.088 353.871L435.392 331.787L377.853 369.381L374.721 435.341L435.094 465.739ZM347.162 255.359L414.772 258.17L455.867 206.667L425.521 145.639L346.558 143.724L310.036 200.326L347.162 255.359ZM375.576 365.617L432.551 328.391L414.103 262.543L347.664 259.781L323.583 322.852L375.576 365.617ZM411.801 520.99L432.882 469.548L372.803 439.298L309.667 463.559L323.548 515.363L411.801 520.99ZM306.202 198.161L342.343 142.147L297.762 109.747L226.234 155.5L239.244 210.996L306.202 198.161ZM254.882 338.578L319.481 321.269L343.639 257.998L306.282 202.621L238.78 215.562L211.802 286.113L254.882 338.578ZM307.774 459.576L370.309 435.547L373.444 369.556L320.076 325.661L256.043 342.819L245.657 411.561L307.774 459.576ZM241.39 410.372L251.765 341.711L209.152 289.813L162.734 323.766L184.547 405.174L241.39 410.372Z" fill="white"/>
<path opacity="0.32" d="M542.491 170.601C541.716 167.708 543.433 164.735 546.326 163.959C549.219 163.184 552.192 164.901 552.967 167.794C553.743 170.687 552.026 173.66 549.133 174.435C546.24 175.211 543.266 173.494 542.491 170.601ZM588.94 343.977C588.165 341.084 589.882 338.109 592.775 337.334C595.668 336.559 598.642 338.277 599.417 341.17C600.192 344.062 598.475 347.036 595.583 347.811C592.69 348.586 589.716 346.87 588.94 343.977ZM543.297 305.684C542.522 302.791 544.238 299.816 547.131 299.041C550.024 298.266 552.998 299.984 553.773 302.877C554.548 305.769 552.832 308.743 549.939 309.518C547.046 310.293 544.072 308.576 543.297 305.684ZM521.818 225.541C521.043 222.649 522.76 219.675 525.653 218.9C528.545 218.125 531.519 219.842 532.294 222.734C533.069 225.627 531.353 228.602 528.46 229.377C525.567 230.152 522.593 228.434 521.818 225.541ZM558.604 425.657C557.829 422.764 559.547 419.79 562.44 419.015C565.333 418.24 568.306 419.956 569.081 422.849C569.857 425.742 568.14 428.715 565.247 429.491C562.354 430.266 559.38 428.55 558.604 425.657ZM471.948 114.828C471.173 111.935 472.89 108.961 475.783 108.186C478.676 107.411 481.65 109.127 482.425 112.02C483.2 114.913 481.483 117.887 478.59 118.662C475.697 119.437 472.724 117.72 471.948 114.828ZM492.679 353.495C491.904 350.602 493.621 347.628 496.514 346.853C499.407 346.078 502.38 347.795 503.155 350.688C503.931 353.581 502.214 356.555 499.321 357.33C496.428 358.105 493.454 356.388 492.679 353.495ZM453.799 208.394C453.024 205.501 454.74 202.527 457.633 201.752C460.526 200.977 463.499 202.694 464.275 205.587C465.05 208.48 463.333 211.453 460.44 212.228C457.547 213.004 454.574 211.287 453.799 208.394ZM499.003 425.349C498.228 422.457 499.945 419.483 502.838 418.708C505.731 417.933 508.705 419.649 509.48 422.542C510.255 425.435 508.538 428.408 505.645 429.184C502.752 429.959 499.778 428.242 499.003 425.349ZM421.688 145.133C420.913 142.24 422.63 139.267 425.522 138.492C428.415 137.716 431.39 139.433 432.165 142.326C432.94 145.219 431.222 148.193 428.329 148.968C425.437 149.743 422.463 148.026 421.688 145.133ZM429.276 330.617C428.501 327.724 430.218 324.75 433.111 323.975C436.004 323.2 438.977 324.917 439.753 327.81C440.527 330.703 438.811 333.677 435.918 334.452C433.025 335.227 430.052 333.51 429.276 330.617ZM410.603 260.954C409.828 258.062 411.545 255.088 414.438 254.313C417.331 253.538 420.304 255.254 421.079 258.147C421.855 261.04 420.138 264.014 417.245 264.789C414.352 265.564 411.378 263.847 410.603 260.954ZM430.022 469.654C429.246 466.761 430.964 463.787 433.857 463.012C436.75 462.237 439.723 463.954 440.499 466.847C441.274 469.74 439.557 472.713 436.664 473.488C433.771 474.264 430.797 472.547 430.022 469.654ZM339.696 142.967C338.921 140.074 340.638 137.1 343.531 136.325C346.424 135.55 349.397 137.267 350.173 140.16C350.948 143.053 349.231 146.026 346.338 146.801C343.445 147.576 340.471 145.86 339.696 142.967ZM369.945 368.975C369.17 366.082 370.888 363.108 373.781 362.333C376.673 361.558 379.647 363.275 380.422 366.167C381.197 369.06 379.48 372.034 376.588 372.809C373.695 373.584 370.72 371.868 369.945 368.975ZM340.463 258.966C339.688 256.073 341.405 253.1 344.298 252.324C347.191 251.549 350.165 253.266 350.94 256.159C351.716 259.052 349.998 262.026 347.105 262.802C344.212 263.576 341.238 261.859 340.463 258.966ZM408.203 524.345C407.428 521.452 409.144 518.478 412.037 517.703C414.93 516.928 417.904 518.645 418.679 521.538C419.454 524.431 417.737 527.405 414.844 528.18C411.952 528.955 408.978 527.238 408.203 524.345ZM292.668 107.846C291.893 104.953 293.611 101.98 296.504 101.204C299.397 100.429 302.37 102.146 303.145 105.039C303.92 107.932 302.204 110.905 299.311 111.68C296.418 112.456 293.444 110.739 292.668 107.846ZM367.804 438.608C367.028 435.715 368.745 432.74 371.638 431.965C374.531 431.19 377.506 432.907 378.281 435.8C379.056 438.693 377.338 441.667 374.445 442.442C371.552 443.217 368.579 441.5 367.804 438.608ZM302.151 201.872C301.376 198.979 303.093 196.006 305.986 195.23C308.879 194.455 311.852 196.172 312.627 199.065C313.403 201.958 311.686 204.931 308.793 205.707C305.9 206.482 302.926 204.765 302.151 201.872ZM315.4 324.643C314.625 321.75 316.341 318.777 319.234 318.001C322.127 317.226 325.101 318.943 325.876 321.836C326.651 324.729 324.934 327.702 322.041 328.478C319.148 329.253 316.175 327.536 315.4 324.643ZM316.654 518C315.879 515.107 317.595 512.132 320.488 511.357C323.381 510.582 326.355 512.3 327.13 515.193C327.905 518.085 326.188 521.059 323.295 521.834C320.403 522.609 317.429 520.892 316.654 518ZM302.056 463.518C301.28 460.625 302.997 457.651 305.89 456.876C308.783 456.101 311.757 457.818 312.532 460.711C313.307 463.604 311.59 466.578 308.697 467.353C305.804 468.128 302.831 466.411 302.056 463.518ZM217.826 155.405C217.05 152.512 218.768 149.538 221.661 148.763C224.554 147.988 227.528 149.705 228.303 152.597C229.078 155.49 227.361 158.464 224.468 159.239C221.575 160.014 218.601 158.298 217.826 155.405ZM232.649 214.879C231.875 211.986 233.591 209.012 236.484 208.237C239.377 207.462 242.35 209.179 243.126 212.072C243.901 214.965 242.184 217.939 239.291 218.714C236.398 219.489 233.425 217.772 232.649 214.879ZM248.859 342.472C248.084 339.58 249.801 336.606 252.694 335.831C255.587 335.056 258.56 336.773 259.335 339.665C260.111 342.558 258.394 345.533 255.501 346.308C252.608 347.083 249.634 345.365 248.859 342.472ZM237.564 413.441C236.789 410.548 238.506 407.575 241.399 406.799C244.292 406.024 247.265 407.741 248.04 410.634C248.815 413.527 247.099 416.5 244.206 417.276C241.313 418.051 238.339 416.334 237.564 413.441ZM204.009 288.239C203.234 285.347 204.951 282.373 207.844 281.598C210.737 280.823 213.711 282.539 214.486 285.432C215.262 288.325 213.544 291.3 210.651 292.075C207.758 292.85 204.785 291.132 204.009 288.239ZM154.636 323.925C153.862 321.033 155.578 318.059 158.471 317.284C161.364 316.509 164.337 318.226 165.113 321.118C165.888 324.011 164.171 326.986 161.278 327.761C158.385 328.536 155.412 326.818 154.636 323.925ZM177.652 409.833C176.877 406.94 178.595 403.966 181.488 403.191C184.381 402.416 187.354 404.133 188.129 407.026C188.904 409.919 187.188 412.892 184.295 413.667C181.402 414.443 178.428 412.726 177.652 409.833Z" fill="white"/>
<mask id="path-6-inside-1_577_485" fill="white">
<path d="M578.153 246.375C576.268 239.339 580.443 232.107 587.479 230.221C594.516 228.336 601.748 232.511 603.634 239.547C605.519 246.584 601.343 253.817 594.307 255.702C587.271 257.587 580.038 253.411 578.153 246.375ZM480.97 275.828C478.614 267.033 483.833 257.992 492.629 255.635C501.424 253.279 510.465 258.498 512.821 267.294C515.178 276.089 509.958 285.13 501.163 287.486C492.368 289.843 483.327 284.623 480.97 275.828ZM488.1 483.852C486.215 476.816 490.391 469.584 497.427 467.698C504.463 465.813 511.695 469.988 513.581 477.025C515.466 484.061 511.291 491.294 504.255 493.179C497.218 495.065 489.985 490.889 488.1 483.852ZM379.457 90.2054C377.572 83.169 381.748 75.9359 388.784 74.0505C395.82 72.1654 403.053 76.3416 404.938 83.3778C406.823 90.4139 402.648 97.6459 395.612 99.5315C388.575 101.417 381.342 97.2416 379.457 90.2054ZM371.924 188.656C369.568 179.861 374.787 170.819 383.582 168.462C392.378 166.106 401.419 171.326 403.775 180.122C406.132 188.917 400.912 197.958 392.117 200.314C383.322 202.671 374.281 197.451 371.924 188.656ZM429.147 407.612C426.79 398.817 432.01 389.776 440.805 387.42C449.6 385.063 458.641 390.282 460.998 399.078C463.354 407.873 458.135 416.914 449.339 419.271C440.544 421.627 431.504 416.408 429.147 407.612ZM289.721 401.739C287.364 392.944 292.584 383.903 301.38 381.546C310.175 379.19 319.216 384.409 321.573 393.205C323.929 402 318.709 411.041 309.914 413.398C301.119 415.754 292.078 410.535 289.721 401.739ZM252.949 264.5C250.592 255.705 255.812 246.664 264.607 244.308C273.402 241.951 282.443 247.171 284.8 255.966C287.156 264.761 281.937 273.802 273.141 276.159C264.346 278.515 255.305 273.296 252.949 264.5ZM232.959 471.926C231.074 464.889 235.249 457.657 242.285 455.772C249.322 453.886 256.554 458.062 258.44 465.098C260.325 472.134 256.149 479.367 249.113 481.253C242.077 483.138 234.844 478.962 232.959 471.926ZM167.831 228.877C165.946 221.841 170.122 214.609 177.159 212.723C184.195 210.838 191.427 215.013 193.312 222.05C195.198 229.086 191.022 236.319 183.986 238.204C176.95 240.09 169.717 235.914 167.831 228.877Z"/>
</mask>
<path d="M578.153 246.375C576.268 239.339 580.443 232.107 587.479 230.221C594.516 228.336 601.748 232.511 603.634 239.547C605.519 246.584 601.343 253.817 594.307 255.702C587.271 257.587 580.038 253.411 578.153 246.375ZM480.97 275.828C478.614 267.033 483.833 257.992 492.629 255.635C501.424 253.279 510.465 258.498 512.821 267.294C515.178 276.089 509.958 285.13 501.163 287.486C492.368 289.843 483.327 284.623 480.97 275.828ZM488.1 483.852C486.215 476.816 490.391 469.584 497.427 467.698C504.463 465.813 511.695 469.988 513.581 477.025C515.466 484.061 511.291 491.294 504.255 493.179C497.218 495.065 489.985 490.889 488.1 483.852ZM379.457 90.2054C377.572 83.169 381.748 75.9359 388.784 74.0505C395.82 72.1654 403.053 76.3416 404.938 83.3778C406.823 90.4139 402.648 97.6459 395.612 99.5315C388.575 101.417 381.342 97.2416 379.457 90.2054ZM371.924 188.656C369.568 179.861 374.787 170.819 383.582 168.462C392.378 166.106 401.419 171.326 403.775 180.122C406.132 188.917 400.912 197.958 392.117 200.314C383.322 202.671 374.281 197.451 371.924 188.656ZM429.147 407.612C426.79 398.817 432.01 389.776 440.805 387.42C449.6 385.063 458.641 390.282 460.998 399.078C463.354 407.873 458.135 416.914 449.339 419.271C440.544 421.627 431.504 416.408 429.147 407.612ZM289.721 401.739C287.364 392.944 292.584 383.903 301.38 381.546C310.175 379.19 319.216 384.409 321.573 393.205C323.929 402 318.709 411.041 309.914 413.398C301.119 415.754 292.078 410.535 289.721 401.739ZM252.949 264.5C250.592 255.705 255.812 246.664 264.607 244.308C273.402 241.951 282.443 247.171 284.8 255.966C287.156 264.761 281.937 273.802 273.141 276.159C264.346 278.515 255.305 273.296 252.949 264.5ZM232.959 471.926C231.074 464.889 235.249 457.657 242.285 455.772C249.322 453.886 256.554 458.062 258.44 465.098C260.325 472.134 256.149 479.367 249.113 481.253C242.077 483.138 234.844 478.962 232.959 471.926ZM167.831 228.877C165.946 221.841 170.122 214.609 177.159 212.723C184.195 210.838 191.427 215.013 193.312 222.05C195.198 229.086 191.022 236.319 183.986 238.204C176.95 240.09 169.717 235.914 167.831 228.877Z" fill="url(#paint1_linear_577_485)"/>
<path d="M578.153 246.375L571.783 248.082L571.783 248.082L578.153 246.375ZM587.479 230.221L585.772 223.851L585.772 223.851L587.479 230.221ZM603.634 239.547L610.004 237.84L610.004 237.84L603.634 239.547ZM594.307 255.702L596.014 262.072L596.014 262.072L594.307 255.702ZM480.97 275.828L474.6 277.535L474.6 277.535L480.97 275.828ZM492.629 255.635L490.922 249.265L490.922 249.265L492.629 255.635ZM512.821 267.294L519.192 265.587L519.192 265.587L512.821 267.294ZM501.163 287.486L502.87 293.857L502.87 293.857L501.163 287.486ZM488.1 483.852L481.73 485.559L481.73 485.559L488.1 483.852ZM497.427 467.698L495.72 461.328L495.72 461.328L497.427 467.698ZM513.581 477.025L519.951 475.318L519.951 475.318L513.581 477.025ZM504.255 493.179L505.962 499.55L505.962 499.55L504.255 493.179ZM379.457 90.2054L373.087 91.9123L373.087 91.9124L379.457 90.2054ZM388.784 74.0505L387.077 67.6802L387.077 67.6802L388.784 74.0505ZM404.938 83.3778L411.308 81.671L411.308 81.6709L404.938 83.3778ZM395.612 99.5315L397.319 105.902L397.319 105.902L395.612 99.5315ZM371.924 188.656L365.554 190.363L365.554 190.363L371.924 188.656ZM383.582 168.462L381.876 162.092L381.876 162.092L383.582 168.462ZM403.775 180.122L410.146 178.415L410.146 178.415L403.775 180.122ZM392.117 200.314L393.824 206.685L393.824 206.685L392.117 200.314ZM429.147 407.612L422.776 409.319L422.777 409.319L429.147 407.612ZM440.805 387.42L439.098 381.049L439.098 381.049L440.805 387.42ZM460.998 399.078L467.368 397.371L467.368 397.371L460.998 399.078ZM449.339 419.271L451.046 425.641L451.046 425.641L449.339 419.271ZM289.721 401.739L283.35 403.446L283.35 403.447L289.721 401.739ZM301.38 381.546L299.673 375.176L299.673 375.176L301.38 381.546ZM321.573 393.205L327.943 391.498L327.943 391.498L321.573 393.205ZM309.914 413.398L311.621 419.768L311.621 419.768L309.914 413.398ZM252.949 264.5L246.578 266.207L246.578 266.207L252.949 264.5ZM264.607 244.308L262.9 237.937L262.9 237.937L264.607 244.308ZM284.8 255.966L291.17 254.259L291.17 254.259L284.8 255.966ZM273.141 276.159L274.848 282.529L274.848 282.529L273.141 276.159ZM232.959 471.926L226.589 473.632L226.589 473.632L232.959 471.926ZM242.285 455.772L240.578 449.402L240.578 449.402L242.285 455.772ZM258.44 465.098L264.81 463.391L264.81 463.391L258.44 465.098ZM249.113 481.253L250.82 487.623L250.82 487.623L249.113 481.253ZM167.831 228.877L161.461 230.584L161.461 230.584L167.831 228.877ZM177.159 212.723L175.452 206.353L175.452 206.353L177.159 212.723ZM193.312 222.05L199.682 220.343L199.682 220.342L193.312 222.05ZM183.986 238.204L185.693 244.574L185.693 244.574L183.986 238.204ZM578.153 246.375L584.523 244.668C583.58 241.15 585.668 237.534 589.186 236.591L587.479 230.221L585.772 223.851C575.218 226.679 568.955 237.527 571.783 248.082L578.153 246.375ZM587.479 230.221L589.186 236.591C592.705 235.649 596.321 237.737 597.264 241.254L603.634 239.547L610.004 237.84C607.176 227.285 596.326 221.023 585.772 223.851L587.479 230.221ZM603.634 239.547L597.264 241.254C598.206 244.772 596.118 248.389 592.6 249.332L594.307 255.702L596.014 262.072C606.568 259.244 612.832 248.395 610.004 237.84L603.634 239.547ZM594.307 255.702L592.6 249.332C589.082 250.274 585.466 248.187 584.523 244.668L578.153 246.375L571.783 248.082C574.611 258.636 585.459 264.9 596.014 262.072L594.307 255.702ZM480.97 275.828L487.341 274.121C485.927 268.844 489.058 263.42 494.336 262.006L492.629 255.635L490.922 249.265C478.608 252.565 471.301 265.221 474.6 277.535L480.97 275.828ZM492.629 255.635L494.336 262.006C499.613 260.592 505.037 263.723 506.451 269L512.821 267.294L519.192 265.587C515.892 253.273 503.235 245.966 490.922 249.265L492.629 255.635ZM512.821 267.294L506.451 269C507.865 274.278 504.733 279.702 499.456 281.116L501.163 287.486L502.87 293.857C515.184 290.557 522.491 277.9 519.192 265.587L512.821 267.294ZM501.163 287.486L499.456 281.116C494.179 282.53 488.755 279.398 487.341 274.121L480.97 275.828L474.6 277.535C477.9 289.848 490.556 297.156 502.87 293.857L501.163 287.486ZM488.1 483.852L494.47 482.145C493.528 478.628 495.615 475.011 499.134 474.069L497.427 467.698L495.72 461.328C485.166 464.156 478.901 475.004 481.73 485.559L488.1 483.852ZM497.427 467.698L499.134 474.069C502.652 473.126 506.268 475.213 507.211 478.732L513.581 477.025L519.951 475.318C517.123 464.763 506.275 458.5 495.72 461.328L497.427 467.698ZM513.581 477.025L507.211 478.732C508.153 482.25 506.065 485.867 502.548 486.809L504.255 493.179L505.962 499.55C516.517 496.721 522.779 485.872 519.951 475.318L513.581 477.025ZM504.255 493.179L502.548 486.809C499.03 487.752 495.413 485.664 494.47 482.145L488.1 483.852L481.73 485.559C484.558 496.114 495.407 502.378 505.962 499.55L504.255 493.179ZM379.457 90.2054L385.827 88.4985C384.885 84.9803 386.973 81.3634 390.491 80.4207L388.784 74.0505L387.077 67.6802C376.523 70.5083 370.259 81.3577 373.087 91.9123L379.457 90.2054ZM388.784 74.0505L390.491 80.4208C394.008 79.4783 397.625 81.5663 398.568 85.0847L404.938 83.3778L411.308 81.6709C408.48 71.1169 397.632 64.8525 387.077 67.6802L388.784 74.0505ZM404.938 83.3778L398.568 85.0846C399.51 88.6025 397.423 92.2185 393.904 93.1613L395.612 99.5315L397.319 105.902C407.873 103.073 414.136 92.2254 411.308 81.671L404.938 83.3778ZM395.612 99.5315L393.905 93.1613C390.386 94.1041 386.77 92.016 385.827 88.4984L379.457 90.2054L373.087 91.9124C375.915 102.467 386.765 108.73 397.319 105.902L395.612 99.5315ZM371.924 188.656L378.295 186.949C376.88 181.671 380.013 176.247 385.289 174.833L383.582 168.462L381.876 162.092C369.561 165.392 362.255 178.05 365.554 190.363L371.924 188.656ZM383.582 168.462L385.289 174.833C390.566 173.419 395.991 176.551 397.405 181.829L403.775 180.122L410.146 178.415C406.846 166.102 394.189 158.793 381.876 162.092L383.582 168.462ZM403.775 180.122L397.405 181.828C398.819 187.106 395.687 192.53 390.41 193.944L392.117 200.314L393.824 206.685C406.137 203.385 413.445 190.728 410.146 178.415L403.775 180.122ZM392.117 200.314L390.41 193.944C385.133 195.358 379.709 192.226 378.295 186.949L371.924 188.656L365.554 190.363C368.854 202.676 381.51 209.984 393.824 206.685L392.117 200.314ZM429.147 407.612L435.517 405.905C434.103 400.628 437.235 395.204 442.512 393.79L440.805 387.42L439.098 381.049C426.784 384.349 419.477 397.006 422.776 409.319L429.147 407.612ZM440.805 387.42L442.512 393.79C447.789 392.376 453.214 395.508 454.628 400.785L460.998 399.078L467.368 397.371C464.069 385.057 451.412 377.75 439.098 381.049L440.805 387.42ZM460.998 399.078L454.628 400.785C456.041 406.062 452.91 411.486 447.632 412.9L449.339 419.271L451.046 425.641C463.36 422.341 470.667 409.684 467.368 397.371L460.998 399.078ZM449.339 419.271L447.633 412.9C442.355 414.314 436.931 411.183 435.517 405.905L429.147 407.612L422.777 409.319C426.076 421.633 438.733 428.94 451.046 425.641L449.339 419.271ZM289.721 401.739L296.091 400.033C294.677 394.756 297.809 389.331 303.087 387.917L301.38 381.546L299.673 375.176C287.36 378.476 280.051 391.132 283.35 403.446L289.721 401.739ZM301.38 381.546L303.087 387.917C308.364 386.503 313.788 389.635 315.202 394.912L321.573 393.205L327.943 391.498C324.643 379.184 311.986 371.877 299.673 375.176L301.38 381.546ZM321.573 393.205L315.202 394.912C316.616 400.189 313.484 405.613 308.207 407.027L309.914 413.398L311.621 419.768C323.934 416.468 331.242 403.811 327.943 391.498L321.573 393.205ZM309.914 413.398L308.207 407.027C302.93 408.441 297.505 405.309 296.091 400.032L289.721 401.739L283.35 403.447C286.65 415.76 299.308 423.067 311.621 419.768L309.914 413.398ZM252.949 264.5L259.319 262.794C257.905 257.516 261.037 252.092 266.314 250.678L264.607 244.308L262.9 237.937C250.586 241.237 243.279 253.894 246.578 266.207L252.949 264.5ZM264.607 244.308L266.314 250.678C271.591 249.264 277.015 252.396 278.429 257.673L284.8 255.966L291.17 254.259C287.87 241.946 275.214 234.638 262.9 237.937L264.607 244.308ZM284.8 255.966L278.429 257.673C279.843 262.95 276.712 268.374 271.434 269.788L273.141 276.159L274.848 282.529C287.162 279.229 294.469 266.573 291.17 254.259L284.8 255.966ZM273.141 276.159L271.434 269.788C266.157 271.203 260.733 268.071 259.319 262.794L252.949 264.5L246.578 266.207C249.878 278.521 262.535 285.828 274.848 282.529L273.141 276.159ZM232.959 471.926L239.329 470.219C238.387 466.701 240.474 463.085 243.992 462.142L242.285 455.772L240.578 449.402C230.024 452.23 223.761 463.078 226.589 473.632L232.959 471.926ZM242.285 455.772L243.992 462.142C247.511 461.199 251.127 463.287 252.07 466.805L258.44 465.098L264.81 463.391C261.982 452.836 251.132 446.574 240.578 449.402L242.285 455.772ZM258.44 465.098L252.07 466.805C253.012 470.323 250.924 473.94 247.406 474.883L249.113 481.253L250.82 487.623C261.374 484.795 267.638 473.946 264.81 463.391L258.44 465.098ZM249.113 481.253L247.406 474.883C243.888 475.825 240.272 473.737 239.329 470.219L232.959 471.926L226.589 473.632C229.417 484.186 240.265 490.451 250.82 487.623L249.113 481.253ZM167.831 228.877L174.202 227.17C173.259 223.653 175.347 220.036 178.865 219.093L177.159 212.723L175.452 206.353C164.898 209.181 158.633 220.029 161.461 230.584L167.831 228.877ZM177.159 212.723L178.865 219.093C182.383 218.151 185.999 220.239 186.942 223.757L193.312 222.05L199.682 220.342C196.854 209.788 186.006 203.525 175.452 206.353L177.159 212.723ZM193.312 222.05L186.942 223.756C187.885 227.275 185.797 230.891 182.279 231.834L183.986 238.204L185.693 244.574C196.248 241.746 202.51 230.897 199.682 220.343L193.312 222.05ZM183.986 238.204L182.279 231.834C178.761 232.777 175.144 230.688 174.201 227.17L167.831 228.877L161.461 230.584C164.289 241.139 175.138 247.403 185.693 244.574L183.986 238.204Z" fill="white" mask="url(#path-6-inside-1_577_485)"/>
<path d="M827.074 460.365C802.923 460.365 782.409 456 765.532 447.271C748.655 438.541 733.524 425.738 720.139 408.861L754.184 374.817C762.622 387.038 772.661 396.64 784.3 403.624C795.939 410.316 810.779 413.662 828.82 413.662C845.697 413.662 859.082 410.171 868.975 403.187C879.16 396.204 884.252 386.601 884.252 374.38C884.252 364.196 881.633 355.903 876.395 349.501C871.158 343.1 864.174 337.862 855.445 333.788C847.006 329.424 837.549 325.641 827.074 322.44C816.89 318.948 806.56 315.166 796.085 311.092C785.901 306.727 776.444 301.344 767.714 294.943C759.276 288.541 752.438 280.248 747.2 270.064C741.963 259.88 739.344 246.931 739.344 231.218C739.344 213.177 743.708 197.901 752.438 185.389C761.458 172.586 773.534 162.838 788.665 156.145C803.796 149.453 820.673 146.106 839.295 146.106C859.373 146.106 877.268 150.035 892.981 157.891C908.985 165.748 921.934 175.786 931.827 188.008L897.782 222.052C889.053 212.159 879.887 204.884 870.285 200.229C860.973 195.282 850.207 192.809 837.986 192.809C822.855 192.809 810.925 195.864 802.195 201.975C793.757 208.085 789.538 216.669 789.538 227.726C789.538 237.038 792.157 244.603 797.394 250.423C802.632 255.951 809.47 260.753 817.908 264.826C826.638 268.609 836.095 272.246 846.279 275.738C856.754 279.23 867.084 283.158 877.268 287.523C887.744 291.887 897.2 297.561 905.639 304.545C914.368 311.238 921.352 319.967 926.589 330.733C931.827 341.499 934.446 355.03 934.446 371.325C934.446 398.677 924.698 420.355 905.202 436.359C885.998 452.363 859.955 460.365 827.074 460.365ZM1063.12 460.365C1042.46 460.365 1023.69 455.564 1006.81 445.961C990.229 436.359 977.135 423.265 967.532 406.679C957.93 390.093 953.129 371.616 953.129 351.247C953.129 330.588 957.93 312.11 967.532 295.816C977.135 279.23 990.229 266.136 1006.81 256.533C1023.69 246.931 1042.46 242.13 1063.12 242.13C1079.41 242.13 1094.54 245.331 1108.51 251.732C1122.77 257.843 1134.85 266.718 1144.74 278.357L1113.31 310.219C1107.2 302.945 1099.78 297.561 1091.05 294.07C1082.61 290.287 1073.3 288.396 1063.12 288.396C1051.19 288.396 1040.57 291.16 1031.26 296.689C1022.24 301.926 1015.11 309.201 1009.87 318.512C1004.92 327.823 1002.45 338.735 1002.45 351.247C1002.45 363.468 1004.92 374.38 1009.87 383.982C1015.11 393.294 1022.24 400.714 1031.26 406.242C1040.57 411.48 1051.19 414.099 1063.12 414.099C1073.3 414.099 1082.61 412.353 1091.05 408.861C1099.78 405.079 1107.2 399.55 1113.31 392.275L1144.74 424.138C1134.85 435.777 1122.77 444.797 1108.51 451.199C1094.54 457.309 1079.41 460.365 1063.12 460.365ZM1171.06 456V246.494H1219.07V456H1171.06ZM1195.07 208.085C1186.92 208.085 1180.08 205.321 1174.55 199.792C1169.31 194.264 1166.7 187.426 1166.7 179.278C1166.7 171.131 1169.31 164.293 1174.55 158.764C1180.08 153.235 1186.92 150.471 1195.07 150.471C1203.5 150.471 1210.34 153.235 1215.58 158.764C1220.82 164.293 1223.44 171.131 1223.44 179.278C1223.44 187.426 1220.82 194.264 1215.58 199.792C1210.34 205.321 1203.5 208.085 1195.07 208.085ZM1407.79 456V335.098C1407.79 321.131 1403.28 309.637 1394.26 300.617C1385.53 291.596 1374.18 287.086 1360.22 287.086C1350.9 287.086 1342.61 289.123 1335.34 293.197C1328.06 297.27 1322.39 302.945 1318.31 310.219C1314.24 317.494 1312.2 325.787 1312.2 335.098L1293.44 324.623C1293.44 308.619 1296.93 294.506 1303.91 282.285C1310.89 269.773 1320.5 260.025 1332.72 253.042C1345.23 245.767 1359.2 242.13 1374.62 242.13C1390.33 242.13 1404.3 246.204 1416.52 254.351C1428.74 262.207 1438.34 272.537 1445.33 285.34C1452.31 297.852 1455.8 310.947 1455.8 324.623V456H1407.79ZM1264.19 456V246.494H1312.2V456H1264.19ZM1591.89 460.365C1571.52 460.365 1553.04 455.564 1536.45 445.961C1519.87 436.068 1506.63 422.828 1496.73 406.242C1487.13 389.657 1482.33 371.179 1482.33 350.811C1482.33 330.442 1487.13 312.11 1496.73 295.816C1506.63 279.521 1519.87 266.572 1536.45 256.97C1553.04 247.076 1571.52 242.13 1591.89 242.13C1612.54 242.13 1631.17 246.931 1647.75 256.533C1664.34 266.136 1677.43 279.23 1687.04 295.816C1696.93 312.11 1701.88 330.442 1701.88 350.811C1701.88 371.179 1696.93 389.657 1687.04 406.242C1677.43 422.828 1664.34 436.068 1647.75 445.961C1631.17 455.564 1612.54 460.365 1591.89 460.365ZM1591.89 414.099C1603.82 414.099 1614.29 411.48 1623.31 406.242C1632.62 400.714 1639.75 393.148 1644.7 383.546C1649.94 373.944 1652.55 363.032 1652.55 350.811C1652.55 338.59 1649.94 327.823 1644.7 318.512C1639.46 309.201 1632.33 301.926 1623.31 296.689C1614.29 291.16 1603.82 288.396 1591.89 288.396C1580.25 288.396 1569.77 291.16 1560.46 296.689C1551.44 301.926 1544.31 309.201 1539.07 318.512C1534.13 327.823 1531.65 338.59 1531.65 350.811C1531.65 363.032 1534.13 373.944 1539.07 383.546C1544.31 393.148 1551.44 400.714 1560.46 406.242C1569.77 411.48 1580.25 414.099 1591.89 414.099ZM1820.8 460.365C1801.89 460.365 1784.72 455.564 1769.3 445.961C1754.17 436.359 1742.09 423.41 1733.07 407.115C1724.34 390.53 1719.98 372.052 1719.98 351.684C1719.98 331.024 1724.34 312.547 1733.07 296.252C1742.09 279.666 1754.17 266.572 1769.3 256.97C1784.72 247.076 1801.89 242.13 1820.8 242.13C1836.81 242.13 1850.92 245.622 1863.14 252.605C1875.65 259.298 1885.55 268.609 1892.82 280.539C1900.1 292.469 1903.73 306 1903.73 321.131V381.364C1903.73 396.495 1900.1 410.025 1892.82 421.955C1885.84 433.886 1876.09 443.342 1863.58 450.326C1851.07 457.018 1836.81 460.365 1820.8 460.365ZM1828.66 414.972C1840.59 414.972 1850.92 412.353 1859.65 407.115C1868.67 401.587 1875.65 394.021 1880.6 384.419C1885.55 374.817 1888.02 363.759 1888.02 351.247C1888.02 338.735 1885.55 327.678 1880.6 318.076C1875.65 308.473 1868.67 301.053 1859.65 295.816C1850.92 290.287 1840.59 287.523 1828.66 287.523C1817.02 287.523 1806.69 290.287 1797.67 295.816C1788.94 301.053 1781.96 308.473 1776.72 318.076C1771.77 327.678 1769.3 338.735 1769.3 351.247C1769.3 363.759 1771.77 374.817 1776.72 384.419C1781.96 394.021 1788.94 401.587 1797.67 407.115C1806.69 412.353 1817.02 414.972 1828.66 414.972ZM1932.98 456H1884.96V399.695L1893.26 348.628L1884.96 297.998V141.742H1932.98V456ZM2074.86 460.365C2053.91 460.365 2035 455.709 2018.12 446.398C2001.54 436.795 1988.3 423.701 1978.4 407.115C1968.8 390.53 1964 371.907 1964 351.247C1964 330.588 1968.8 312.11 1978.4 295.816C1988.01 279.23 2000.95 266.136 2017.25 256.533C2033.83 246.931 2052.17 242.13 2072.24 242.13C2091.74 242.13 2108.91 246.64 2123.75 255.66C2138.88 264.681 2150.66 277.047 2159.1 292.76C2167.83 308.473 2172.2 326.368 2172.2 346.446C2172.2 349.938 2171.9 353.575 2171.32 357.358C2171.03 360.85 2170.45 364.778 2169.58 369.143H1997.61V329.86H2144.7L2126.8 345.573C2126.22 332.77 2123.75 322.004 2119.38 313.274C2115.02 304.545 2108.76 297.852 2100.61 293.197C2092.76 288.541 2083.01 286.213 2071.37 286.213C2059.15 286.213 2048.53 288.832 2039.51 294.07C2030.49 299.307 2023.5 306.727 2018.56 316.33C2013.61 325.641 2011.14 336.844 2011.14 349.938C2011.14 363.032 2013.76 374.526 2018.99 384.419C2024.23 394.312 2031.65 402.023 2041.25 407.552C2050.86 412.789 2061.91 415.408 2074.43 415.408C2085.19 415.408 2095.09 413.517 2104.11 409.734C2113.42 405.951 2121.27 400.423 2127.68 393.148L2158.23 424.138C2148.04 436.068 2135.68 445.088 2121.13 451.199C2106.58 457.309 2091.16 460.365 2074.86 460.365Z" fill="url(#paint2_linear_577_485)"/>
<defs>
<linearGradient id="paint0_linear_577_485" x1="375.113" y1="549.074" x2="375.113" y2="49.9713" gradientUnits="userSpaceOnUse">
<stop stop-color="#016358"/>
<stop offset="1" stop-color="#182133"/>
</linearGradient>
<linearGradient id="paint1_linear_577_485" x1="458.414" y1="505.462" x2="345.897" y2="85.5422" gradientUnits="userSpaceOnUse">
<stop stop-color="#016358"/>
<stop offset="1" stop-color="#182133"/>
</linearGradient>
<linearGradient id="paint2_linear_577_485" x1="708.425" y1="303" x2="2184.42" y2="303" gradientUnits="userSpaceOnUse">
<stop stop-color="#016358"/>
<stop offset="1" stop-color="#182133"/>
</linearGradient>
</defs>
</svg>
